<svg xmlns="http://www.w3.org/2000/svg" version="1.1" width="1024" height="856">
<rect x="0" y="0" width="1024" height="856" fill="#979288" />
<g transform="scale(4.000000) translate(0.5 0.5)">
<g transform="translate(103.092547 31.047148) rotate(231.593910) scale(48.316204 87.414384)"><ellipse fill="#000000" fill-opacity="0.501961" cx="0" cy="0" rx="1" ry="1" /></g>
<ellipse fill="#ffffff" fill-opacity="0.501961" cx="170" cy="128" rx="91" ry="79" />
<ellipse fill="#000000" fill-opacity="0.501961" cx="61" cy="127" rx="17" ry="213" />
<g transform="translate(217.586836 0.000000) rotate(14.123933) scale(149.780016 31.348315)"><ellipse fill="#000000" fill-opacity="0.501961" cx="0" cy="0" rx="1" ry="1" /></g>
<ellipse fill="#fffffc" fill-opacity="0.501961" cx="190" cy="64" rx="37" ry="37" />
<g transform="translate(234.437753 180.474938) rotate(230.350192) scale(18.922206 61.392547)"><ellipse fill="#a26a4f" fill-opacity="0.501961" cx="0" cy="0" rx="1" ry="1" /></g>
<g transform="translate(74.768439 90.277391) rotate(196.655199) scale(18.139424 122.337488)"><ellipse fill="#0b1314" fill-opacity="0.501961" cx="0" cy="0" rx="1" ry="1" /></g>
<ellipse fill="#dae1dc" fill-opacity="0.501961" cx="95" cy="145" rx="29" ry="38" />
<ellipse fill="#fff4cd" fill-opacity="0.501961" cx="150" cy="165" rx="51" ry="51" />
<ellipse fill="#021c2e" fill-opacity="0.501961" cx="135" cy="35" rx="28" ry="28" />
<ellipse fill="#cfbea2" fill-opacity="0.501961" cx="20" cy="62" rx="27" ry="27" />
<rect fill="#000000" fill-opacity="0.501961" x="144" y="104" width="10" height="14" />
<g transform="translate(225.363167 0.000000) rotate(89.348358) scale(26.129500 57.869493)"><ellipse fill="#000f1d" fill-opacity="0.501961" cx="0" cy="0" rx="1" ry="1" /></g>
<ellipse fill="#694e2b" fill-opacity="0.501961" cx="79" cy="213" rx="49" ry="19" />
<ellipse fill="#efe6d2" fill-opacity="0.501961" cx="204" cy="92" rx="52" ry="67" />
<polygon fill="#534f47" fill-opacity="0.501961" points="209,59 270,49 220,17" />
<polygon fill="#48352f" fill-opacity="0.501961" points="198.879533,80.676563,170.827931,87.996050,189.416255,73.375726,193.201727,79.760712" />
<g transform="translate(60.045372 181.267772) rotate(339.582911) scale(14.380320 19.954457)"><ellipse fill="#000000" fill-opacity="0.501961" cx="0" cy="0" rx="1" ry="1" /></g>
<g transform="translate(133.165212 84.572828) rotate(70.720813) scale(23.455775 29.058565)"><ellipse fill="#dbe7f1" fill-opacity="0.501961" cx="0" cy="0" rx="1" ry="1" /></g>
<ellipse fill="#937a59" fill-opacity="0.501961" cx="38" cy="151" rx="9" ry="213" />
<g transform="translate(255 198) rotate(47) scale(47 38)"><rect fill="#eab4a6" fill-opacity="0.501961" x="-0.5" y="-0.5" width="1" height="1" /></g>
<g transform="translate(8.267162 37.275916) rotate(270.446813) scale(124.853305 24.574681)"><ellipse fill="#c4baa6" fill-opacity="0.501961" cx="0" cy="0" rx="1" ry="1" /></g>
<ellipse fill="#000000" fill-opacity="0.501961" cx="54" cy="90" rx="8" ry="109" />
<rect fill="#906f55" fill-opacity="0.501961" x="151" y="117" width="28" height="9" />
<ellipse fill="#ffffff" fill-opacity="0.501961" cx="173" cy="55" rx="15" ry="26" />
<polygon fill="#87a0b5" fill-opacity="0.501961" points="111,96 93,76 68,171" />
<ellipse fill="#121716" fill-opacity="0.501961" cx="63" cy="11" rx="20" ry="20" />
<g transform="translate(66 194) rotate(3) scale(35 8)"><rect fill="#000000" fill-opacity="0.501961" x="-0.5" y="-0.5" width="1" height="1" /></g>
<ellipse fill="#f9fefe" fill-opacity="0.501961" cx="180" cy="95" rx="49" ry="11" />
<polygon fill="#ece0c7" fill-opacity="0.501961" points="168,229 92,188 91,135" />
<g transform="translate(237.367575 19.076299) rotate(143.538261) scale(9.495954 82.843334)"><ellipse fill="#131d1d" fill-opacity="0.501961" cx="0" cy="0" rx="1" ry="1" /></g>
<polygon fill="#24333c" fill-opacity="0.501961" points="159.369674,43.609356,198.787749,-16.000000,53.243485,-13.165382,153.790167,66.661125" />
<polygon fill="#bdb6ad" fill-opacity="0.501961" points="253,52 252,121 214,21" />
<polygon fill="#372c23" fill-opacity="0.501961" points="156.244388,115.105921,149.323791,118.971611,141.746552,99.172127,160.086659,112.529114" />
<ellipse fill="#9e8466" fill-opacity="0.501961" cx="208" cy="203" rx="36" ry="15" />
<polygon fill="#897864" fill-opacity="0.501961" points="44.400074,197.127613,50.116662,227.491510,76.702873,220.305981,77.458902,199.130335" />
<polygon fill="#192123" fill-opacity="0.501961" points="54.012918,78.587964,121.299693,66.745834,81.721283,-16.000000,45.137207,-0.287844" />
<g transform="translate(204.936249 120.365372) rotate(90.751373) scale(58.605222 15.548526)"><ellipse fill="#f9f0db" fill-opacity="0.501961" cx="0" cy="0" rx="1" ry="1" /></g>
<ellipse fill="#eee7db" fill-opacity="0.501961" cx="128" cy="138" rx="30" ry="30" />
<g transform="translate(67.056241 112.269919) rotate(211.514589) scale(8.242073 30.962012)"><ellipse fill="#060903" fill-opacity="0.501961" cx="0" cy="0" rx="1" ry="1" /></g>
<g transform="translate(200.952554 2.332603) rotate(78.185288) scale(26.254500 29.467550)"><ellipse fill="#172a37" fill-opacity="0.501961" cx="0" cy="0" rx="1" ry="1" /></g>
<polygon fill="#2a1d12" fill-opacity="0.501961" points="211,61 217,35 221,47" />
<polygon fill="#e8eae9" fill-opacity="0.501961" points="127,79 178,92 108,119" />
<g transform="translate(224.340593 182.446670) rotate(47.750208) scale(10.745819 43.623581)"><ellipse fill="#997b6b" fill-opacity="0.501961" cx="0" cy="0" rx="1" ry="1" /></g>
<ellipse fill="#a59479" fill-opacity="0.501961" cx="17" cy="164" rx="30" ry="30" />
<polygon fill="#5a6d74" fill-opacity="0.501961" points="92,199 66,138 67,179" />
<polygon fill="#5f4928" fill-opacity="0.501961" points="241,-4 261,89 271,0" />
<ellipse fill="#f3e4c6" fill-opacity="0.501961" cx="173" cy="152" rx="36" ry="31" />
<polygon fill="#f5fdff" fill-opacity="0.501961" points="159.505347,42.698176,157.349487,92.777189,157.193077,115.891943,183.178229,104.144005" />
<g transform="translate(149.224979 68.462813) rotate(271.677731) scale(8.079584 7.982822)"><ellipse fill="#aeb4b8" fill-opacity="0.501961" cx="0" cy="0" rx="1" ry="1" /></g>
<g transform="translate(81.815515 113.683433) rotate(33.379452) scale(5.071468 25.678618)"><ellipse fill="#5a6d7b" fill-opacity="0.501961" cx="0" cy="0" rx="1" ry="1" /></g>
<polygon fill="#99adbc" fill-opacity="0.501961" points="117.439526,63.588255,97.455599,75.067121,67.995155,157.996692,130.941670,57.542380" />
<polygon fill="#000000" fill-opacity="0.501961" points="152,102 146,115 157,111" />
<g transform="translate(55.065974 164.064112) rotate(177.376865) scale(8.340568 29.786648)"><ellipse fill="#000000" fill-opacity="0.501961" cx="0" cy="0" rx="1" ry="1" /></g>
<g transform="translate(161 121) rotate(272) scale(4 18)"><rect fill="#725145" fill-opacity="0.501961" x="-0.5" y="-0.5" width="1" height="1" /></g>
<ellipse fill="#ebebe5" fill-opacity="0.501961" cx="179" cy="38" rx="14" ry="13" />
<g transform="translate(166.010175 204.430911) rotate(152.997013) scale(25.490639 15.556541)"><ellipse fill="#d3cab5" fill-opacity="0.501961" cx="0" cy="0" rx="1" ry="1" /></g>
<g transform="translate(167 127) rotate(151) scale(43 13)"><rect fill="#dbc49c" fill-opacity="0.501961" x="-0.5" y="-0.5" width="1" height="1" /></g>
<polygon fill="#2d1d17" fill-opacity="0.501961" points="186,78 186,84 172,86" />
<rect fill="#867862" fill-opacity="0.501961" x="33" y="6" width="13" height="180" />
<polygon fill="#fffff5" fill-opacity="0.501961" points="211,48 215,42 216,48" />
<g transform="translate(225 41) rotate(129) scale(20 19)"><rect fill="#a19484" fill-opacity="0.501961" x="-0.5" y="-0.5" width="1" height="1" /></g>
<ellipse fill="#fcfdf1" fill-opacity="0.501961" cx="183" cy="61" rx="17" ry="17" />
<g transform="translate(234.189266 62.776787) rotate(96.812540) scale(12.220279 20.334046)"><ellipse fill="#b7b0a2" fill-opacity="0.501961" cx="0" cy="0" rx="1" ry="1" /></g>
<ellipse fill="#d5b4a5" fill-opacity="0.501961" cx="255" cy="185" rx="10" ry="25" />
<g transform="translate(130.326249 88.272507) rotate(280.511749) scale(18.550680 30.347080)"><ellipse fill="#d4d9db" fill-opacity="0.501961" cx="0" cy="0" rx="1" ry="1" /></g>
<g transform="translate(117.937340 209.476718) rotate(20.762886) scale(24.714582 2.908799)"><ellipse fill="#665131" fill-opacity="0.501961" cx="0" cy="0" rx="1" ry="1" /></g>
<g transform="translate(4.030796 20.273666) rotate(110.217731) scale(41.755607 27.452751)"><ellipse fill="#b6b3a7" fill-opacity="0.501961" cx="0" cy="0" rx="1" ry="1" /></g>
<g transform="translate(118.370638 19.611234) rotate(292.776839) scale(56.017872 28.025367)"><ellipse fill="#253138" fill-opacity="0.501961" cx="0" cy="0" rx="1" ry="1" /></g>
<g transform="translate(144.873216 166.138058) rotate(283.218690) scale(21.600465 45.737592)"><ellipse fill="#f2ead9" fill-opacity="0.501961" cx="0" cy="0" rx="1" ry="1" /></g>
<ellipse fill="#e7dfdc" fill-opacity="0.501961" cx="235" cy="144" rx="14" ry="14" />
<g transform="translate(165.591655 8.849821) rotate(176.967478) scale(26.210893 15.100059)"><ellipse fill="#29363d" fill-opacity="0.501961" cx="0" cy="0" rx="1" ry="1" /></g>
<g transform="translate(244.863873 100.467749) rotate(155.025976) scale(18.241559 34.007283)"><ellipse fill="#d4cfc4" fill-opacity="0.501961" cx="0" cy="0" rx="1" ry="1" /></g>
<ellipse fill="#aca18e" fill-opacity="0.501961" cx="21" cy="99" rx="10" ry="87" />
<g transform="translate(101.567623 121.805187) rotate(293.714725) scale(36.273046 11.116965)"><ellipse fill="#c5ccce" fill-opacity="0.501961" cx="0" cy="0" rx="1" ry="1" /></g>
<polygon fill="#f3f7f2" fill-opacity="0.501961" points="156,89 210,103 231,77" />
<g transform="translate(237.322525 0.351686) rotate(102.342325) scale(31.371530 8.694091)"><ellipse fill="#041826" fill-opacity="0.501961" cx="0" cy="0" rx="1" ry="1" /></g>
<polygon fill="#fffbe6" fill-opacity="0.501961" points="196.748727,146.136192,187.674034,137.640639,199.904553,106.508996,217.248891,103.998732" />
<polygon fill="#e4d5b7" fill-opacity="0.501961" points="169.782537,126.415245,223.038816,174.170896,154.398192,148.330675,128.349106,117.703264" />
<rect fill="#000000" fill-opacity="0.501961" x="48" y="176" width="21" height="21" />
<polygon fill="#afb5b5" fill-opacity="0.501961" points="92.660745,129.016752,85.401067,180.940790,75.537122,166.799289,68.880471,135.753613" />
<polygon fill="#cfcac4" fill-opacity="0.501961" points="159.081216,128.885501,134.769045,127.042906,143.078436,113.317344,136.215634,101.515370" />
<g transform="translate(0.000000 111.470695) rotate(9.253453) scale(13.125396 78.072199)"><ellipse fill="#b9b2a0" fill-opacity="0.501961" cx="0" cy="0" rx="1" ry="1" /></g>
<g transform="translate(89 213) rotate(225) scale(31 33)"><rect fill="#705b42" fill-opacity="0.501961" x="-0.5" y="-0.5" width="1" height="1" /></g>
<g transform="translate(206 213) rotate(120) scale(25 36)"><rect fill="#877551" fill-opacity="0.501961" x="-0.5" y="-0.5" width="1" height="1" /></g>
<g transform="translate(60 104) rotate(0) scale(25 50)"><rect fill="#121208" fill-opacity="0.501961" x="-0.5" y="-0.5" width="1" height="1" /></g>
<rect fill="#685641" fill-opacity="0.501961" x="43" y="45" width="4" height="74" />
<polygon fill="#9b917f" fill-opacity="0.501961" points="169,27 158,42 168,37" />
<g transform="translate(233.938487 202.246117) rotate(124.421524) scale(9.476989 25.770602)"><ellipse fill="#ba8d7c" fill-opacity="0.501961" cx="0" cy="0" rx="1" ry="1" /></g>
<polygon fill="#2b353b" fill-opacity="0.501961" points="160.591461,21.752148,203.489466,-15.116175,116.823253,-2.288104,155.777606,66.231790" />
<polygon fill="#0e1e2b" fill-opacity="0.501961" points="240,-11 242,30 196,18" />
<g transform="translate(224 121) rotate(307) scale(47 12)"><rect fill="#ded0b3" fill-opacity="0.501961" x="-0.5" y="-0.5" width="1" height="1" /></g>
<polygon fill="#c6ccd1" fill-opacity="0.501961" points="156,103 156,117 172,116" />
<g transform="translate(136 65) rotate(87) scale(10 39)"><rect fill="#9eadbb" fill-opacity="0.501961" x="-0.5" y="-0.5" width="1" height="1" /></g>
<rect fill="#1c1c15" fill-opacity="0.501961" x="55" y="54" width="31" height="48" />
<g transform="translate(210 58) rotate(49) scale(16 3)"><rect fill="#9e937c" fill-opacity="0.501961" x="-0.5" y="-0.5" width="1" height="1" /></g>
<polygon fill="#9b8972" fill-opacity="0.501961" points="0,229 -11,144 45,229" />
<ellipse fill="#33170a" fill-opacity="0.501961" cx="185" cy="80" rx="3" ry="3" />
<ellipse fill="#746147" fill-opacity="0.501961" cx="37" cy="199" rx="6" ry="20" />
<polygon fill="#ecf0f0" fill-opacity="0.501961" points="125,84 145,113 123,115" />
</g>
</svg>