<svg xmlns="http://www.w3.org/2000/svg" version="1.1" width="1024" height="856">
<rect x="0" y="0" width="1024" height="856" fill="#979288" />
<g transform="scale(4.000000) translate(0.5 0.5)">
<polygon fill="#000000" fill-opacity="0.501961" points="46,126 45,-6 235,-16" />
<g transform="translate(172.455808 122.347083) rotate(50.968341) scale(77.274246 100.921471)"><ellipse fill="#ffffff" fill-opacity="0.501961" cx="0" cy="0" rx="1" ry="1" /></g>
<g transform="translate(62.953741 77.423473) rotate(1.423850) scale(18.217774 183.627109)"><ellipse fill="#000000" fill-opacity="0.501961" cx="0" cy="0" rx="1" ry="1" /></g>
<g transform="translate(231.133615 10.362982) rotate(106.352660) scale(25.687008 76.677974)"><ellipse fill="#000000" fill-opacity="0.501961" cx="0" cy="0" rx="1" ry="1" /></g>
<ellipse fill="#001729" fill-opacity="0.501961" cx="138" cy="29" rx="25" ry="34" />
<g transform="translate(191.821521 82.628330) rotate(250.740306) scale(57.755139 30.632786)"><ellipse fill="#fffff4" fill-opacity="0.501961" cx="0" cy="0" rx="1" ry="1" /></g>
<ellipse fill="#000000" fill-opacity="0.501961" cx="57" cy="163" rx="11" ry="211" />
<g transform="translate(143.302567 153.040998) rotate(366.376777) scale(77.639747 33.672833)"><ellipse fill="#fef3d5" fill-opacity="0.501961" cx="0" cy="0" rx="1" ry="1" /></g>
<g transform="translate(85.619955 213.000000) rotate(290.800102) scale(21.710957 58.983137)"><ellipse fill="#4f3b1e" fill-opacity="0.501961" cx="0" cy="0" rx="1" ry="1" /></g>
<ellipse fill="#d1e0ec" fill-opacity="0.501961" cx="120" cy="95" rx="29" ry="29" />
<ellipse fill="#0e1b21" fill-opacity="0.501961" cx="86" cy="36" rx="41" ry="41" />
<g transform="translate(220.529439 44.018545) rotate(299.691402) scale(17.332434 22.493290)"><ellipse fill="#a2957f" fill-opacity="0.501961" cx="0" cy="0" rx="1" ry="1" /></g>
<g transform="translate(237.638625 188.270818) rotate(324.604283) scale(63.706945 26.888981)"><ellipse fill="#b88064" fill-opacity="0.501961" cx="0" cy="0" rx="1" ry="1" /></g>
<polygon fill="#271100" fill-opacity="0.501961" points="164,127 151,100 141,114" />
<ellipse fill="#cdc1aa" fill-opacity="0.501961" cx="10" cy="53" rx="21" ry="111" />
<rect fill="#001121" fill-opacity="0.501961" x="184" y="0" width="68" height="26" />
<polygon fill="#866e4d" fill-opacity="0.501961" points="44,7 47,128 22,95" />
<g transform="translate(184.338651 82.475594) rotate(72.892523) scale(4.361894 10.854649)"><ellipse fill="#564239" fill-opacity="0.501961" cx="0" cy="0" rx="1" ry="1" /></g>
<rect fill="#98846b" fill-opacity="0.501961" x="8" y="198" width="65" height="16" />
<ellipse fill="#f8ebca" fill-opacity="0.501961" cx="151" cy="183" rx="36" ry="36" />
<ellipse fill="#8fa4b6" fill-opacity="0.501961" cx="83" cy="141" rx="14" ry="34" />
<polygon fill="#fffdf3" fill-opacity="0.501961" points="148,104 169,24 222,28" />
<g transform="translate(218 49) rotate(105) scale(27 11)"><rect fill="#5c5244" fill-opacity="0.501961" x="-0.5" y="-0.5" width="1" height="1" /></g>
<rect fill="#000000" fill-opacity="0.501961" x="47" y="178" width="34" height="19" />
<g transform="translate(247.810699 23.782440) rotate(257.671839) scale(35.291130 8.436355)"><ellipse fill="#302916" fill-opacity="0.501961" cx="0" cy="0" rx="1" ry="1" /></g>
<rect fill="#212d34" fill-opacity="0.501961" x="75" y="0" width="82" height="59" />
<polygon fill="#020906" fill-opacity="0.501961" points="96,58 52,190 48,127" />
<ellipse fill="#e5baae" fill-opacity="0.501961" cx="251" cy="191" rx="14" ry="23" />
<g transform="translate(198.014698 131.744152) rotate(359.722644) scale(57.498127 26.271350)"><ellipse fill="#eedec0" fill-opacity="0.501961" cx="0" cy="0" rx="1" ry="1" /></g>
<g transform="translate(165.105439 94.937909) rotate(355.197184) scale(43.806033 8.844116)"><ellipse fill="#fbffff" fill-opacity="0.501961" cx="0" cy="0" rx="1" ry="1" /></g>
</g>
</svg>