<svg xmlns="http://www.w3.org/2000/svg" version="1.1" width="1024" height="856">
<rect x="0" y="0" width="1024" height="856" fill="#979288" />
<g transform="scale(4.000000) translate(0.5 0.5)">
<g transform="translate(101.971521 6.031343) rotate(294.719570) scale(137.215681 45.839336)"><ellipse fill="#000000" fill-opacity="0.501961" cx="0" cy="0" rx="1" ry="1" /></g>
<ellipse fill="#ffffff" fill-opacity="0.501961" cx="166" cy="130" rx="84" ry="84" />
<ellipse fill="#000000" fill-opacity="0.501961" cx="60" cy="119" rx="15" ry="213" />
<g transform="translate(197.122519 4.485551) rotate(93.650128) scale(24.018780 164.417831)"><ellipse fill="#000000" fill-opacity="0.501961" cx="0" cy="0" rx="1" ry="1" /></g>
<g transform="translate(134.263776 37.185913) rotate(166.597561) scale(29.808123 26.450409)"><ellipse fill="#000b1e" fill-opacity="0.501961" cx="0" cy="0" rx="1" ry="1" /></g>
<rect fill="#ffffea" fill-opacity="0.501961" x="161" y="27" width="52" height="152" />
<ellipse fill="#000000" fill-opacity="0.501961" cx="57" cy="158" rx="11" ry="43" />
<g transform="translate(213.242106 203.434086) rotate(405.645444) scale(21.466136 86.437498)"><ellipse fill="#a87155" fill-opacity="0.501961" cx="0" cy="0" rx="1" ry="1" /></g>
<g transform="translate(232.080925 103.351777) rotate(48.079856) scale(47.761025 44.364134)"><ellipse fill="#f7efdd" fill-opacity="0.501961" cx="0" cy="0" rx="1" ry="1" /></g>
<ellipse fill="#030a08" fill-opacity="0.501961" cx="255" cy="18" rx="30" ry="26" />
<ellipse fill="#fff6d7" fill-opacity="0.501961" cx="125" cy="159" rx="44" ry="44" />
<ellipse fill="#c0b095" fill-opacity="0.501961" cx="20" cy="73" rx="27" ry="98" />
<polygon fill="#412f15" fill-opacity="0.501961" points="141,217 34,163 34,210" />
<ellipse fill="#041014" fill-opacity="0.501961" cx="79" cy="47" rx="32" ry="37" />
<ellipse fill="#000000" fill-opacity="0.501961" cx="149" cy="110" rx="7" ry="7" />
<g transform="translate(149.165219 26.562632) rotate(212.388332) scale(18.129323 37.878534)"><ellipse fill="#102531" fill-opacity="0.501961" cx="0" cy="0" rx="1" ry="1" /></g>
<polygon fill="#b3c4d0" fill-opacity="0.501961" points="65,130 72,168 127,112" />
<ellipse fill="#001025" fill-opacity="0.501961" cx="202" cy="8" rx="40" ry="17" />
<ellipse fill="#ffffff" fill-opacity="0.501961" cx="181" cy="52" rx="23" ry="23" />
<g transform="translate(255.000000 191.100413) rotate(198.919220) scale(19.140926 29.300971)"><ellipse fill="#e8b5a7" fill-opacity="0.501961" cx="0" cy="0" rx="1" ry="1" /></g>
<ellipse fill="#edf6fc" fill-opacity="0.501961" cx="129" cy="97" rx="17" ry="23" />
<polygon fill="#000000" fill-opacity="0.501961" points="65.560367,174.439146,86.239735,196.920876,44.814025,197.281491,53.179688,44.998752" />
<g transform="translate(190 80) rotate(252) scale(5 29)"><rect fill="#4f3830" fill-opacity="0.501961" x="-0.5" y="-0.5" width="1" height="1" /></g>
<ellipse fill="#937d61" fill-opacity="0.501961" cx="40" cy="209" rx="68" ry="12" />
<polygon fill="#af9071" fill-opacity="0.501961" points="155,113 196,119 143,129" />
<ellipse fill="#28373e" fill-opacity="0.501961" cx="129" cy="16" rx="41" ry="41" />
<g transform="translate(93.296468 104.541158) rotate(22.148055) scale(9.675792 37.157780)"><ellipse fill="#8aa8bf" fill-opacity="0.501961" cx="0" cy="0" rx="1" ry="1" /></g>
<g transform="translate(163 86) rotate(375) scale(25 40)"><rect fill="#ffffff" fill-opacity="0.501961" x="-0.5" y="-0.5" width="1" height="1" /></g>
<g transform="translate(250 42) rotate(239) scale(53 10)"><rect fill="#191b14" fill-opacity="0.501961" x="-0.5" y="-0.5" width="1" height="1" /></g>
<ellipse fill="#867256" fill-opacity="0.501961" cx="37" cy="156" rx="9" ry="183" />
<g transform="translate(206.300937 197.346409) rotate(43.455848) scale(8.521105 49.059634)"><ellipse fill="#8d7357" fill-opacity="0.501961" cx="0" cy="0" rx="1" ry="1" /></g>
<polygon fill="#f6f4ea" fill-opacity="0.501961" points="202,107 174,22 229,86" />
<ellipse fill="#101109" fill-opacity="0.501961" cx="66" cy="82" rx="21" ry="32" />
<ellipse fill="#f6e5c5" fill-opacity="0.501961" cx="164" cy="161" rx="39" ry="39" />
<ellipse fill="#bcb8aa" fill-opacity="0.501961" cx="8" cy="35" rx="24" ry="93" />
<ellipse fill="#1b1108" fill-opacity="0.501961" cx="48" cy="0" rx="4" ry="84" />
<polygon fill="#2d2015" fill-opacity="0.501961" points="216,59 223,36 208,59" />
<ellipse fill="#222d32" fill-opacity="0.501961" cx="150" cy="52" rx="9" ry="9" />
<g transform="translate(178 35) rotate(113) scale(24 20)"><rect fill="#dedfdd" fill-opacity="0.501961" x="-0.5" y="-0.5" width="1" height="1" /></g>
<g transform="translate(144 213) rotate(51) scale(91 21)"><rect fill="#f1dfb8" fill-opacity="0.501961" x="-0.5" y="-0.5" width="1" height="1" /></g>
<g transform="translate(108 61) rotate(275) scale(12 26)"><rect fill="#172b38" fill-opacity="0.501961" x="-0.5" y="-0.5" width="1" height="1" /></g>
<ellipse fill="#cbd6e0" fill-opacity="0.501961" cx="133" cy="81" rx="22" ry="22" />
<rect fill="#e4e3de" fill-opacity="0.501961" x="103" y="75" width="41" height="90" />
<ellipse fill="#000000" fill-opacity="0.501961" cx="151" cy="111" rx="6" ry="5" />
<ellipse fill="#efdfc1" fill-opacity="0.501961" cx="195" cy="141" rx="40" ry="25" />
<polygon fill="#5d4a2f" fill-opacity="0.501961" points="263.389528,6.196191,247.073803,-16.000000,243.405172,41.914884,271.000000,71.299272" />
<ellipse fill="#d4cec4" fill-opacity="0.501961" cx="239" cy="111" rx="18" ry="46" />
<polygon fill="#4d5f64" fill-opacity="0.501961" points="94.814043,211.484232,71.011097,158.664804,64.599710,132.133064,66.338704,181.436338" />
<g transform="translate(229.063670 37.544611) rotate(125.359902) scale(5.863145 18.959063)"><ellipse fill="#afa598" fill-opacity="0.501961" cx="0" cy="0" rx="1" ry="1" /></g>
<polygon fill="#eef8ff" fill-opacity="0.501961" points="156,118 156,85 209,90" />
</g>
</svg>