<svg xmlns="http://www.w3.org/2000/svg" version="1.1" width="349" height="261">
<rect x="0" y="0" width="349" height="261" fill="#8a6b3f" />
<g transform="scale(1.363281) translate(0.5 0.5)">
<g transform="translate(121.668680 77.337616) rotate(169.246978) scale(69.864249 37.613456)"><ellipse fill="#f5ffff" fill-opacity="0.501961" cx="0" cy="0" rx="1" ry="1" /></g>
<g transform="translate(116.155069 187.920506) rotate(71.434592) scale(57.322923 255.000000)"><ellipse fill="#6e0007" fill-opacity="0.501961" cx="0" cy="0" rx="1" ry="1" /></g>
<g transform="translate(22.430791 62.724480) rotate(125.068446) scale(232.221099 52.982918)"><ellipse fill="#75f210" fill-opacity="0.501961" cx="0" cy="0" rx="1" ry="1" /></g>
<g transform="translate(213.819834 20.881887) rotate(162.150910) scale(45.910856 253.020016)"><ellipse fill="#8d0019" fill-opacity="0.501961" cx="0" cy="0" rx="1" ry="1" /></g>
<g transform="translate(134.074874 119.609930) rotate(88.167438) scale(20.941881 61.237326)"><ellipse fill="#8ab090" fill-opacity="0.501961" cx="0" cy="0" rx="1" ry="1" /></g>
<ellipse fill="#e0f0e7" fill-opacity="0.501961" cx="137" cy="68" rx="58" ry="26" />
<ellipse fill="#000000" fill-opacity="0.501961" cx="172" cy="191" rx="178" ry="8" />
<g transform="translate(196 46) rotate(315) scale(28 11)"><rect fill="#ffffff" fill-opacity="0.501961" x="-0.5" y="-0.5" width="1" height="1" /></g>
<g transform="translate(52.146941 68.046482) rotate(147.337022) scale(14.650476 27.773003)"><ellipse fill="#bcb1c9" fill-opacity="0.501961" cx="0" cy="0" rx="1" ry="1" /></g>
<polygon fill="#9c0015" fill-opacity="0.501961" points="83,166 244,194 271,111" />
<g transform="translate(133.878009 17.217180) rotate(47.900995) scale(31.872377 23.614169)"><ellipse fill="#5aba21" fill-opacity="0.501961" cx="0" cy="0" rx="1" ry="1" /></g>
<polygon fill="#6aab00" fill-opacity="0.501961" points="-16.000000,103.833061,14.507635,64.034229,82.720229,138.408037,28.691077,159.835833" />
<g transform="translate(210 84) rotate(296) scale(33 9)"><rect fill="#cdfad2" fill-opacity="0.501961" x="-0.5" y="-0.5" width="1" height="1" /></g>
<ellipse fill="#ce294e" fill-opacity="0.501961" cx="75" cy="168" rx="48" ry="18" />
<ellipse fill="#6b0005" fill-opacity="0.501961" cx="228" cy="20" rx="50" ry="20" />
<polygon fill="#1a0708" fill-opacity="0.501961" points="196,93 175,153 233,109" />
<polygon fill="#1f088a" fill-opacity="0.501961" points="124.748735,26.813170,119.640721,36.127367,142.899687,47.619095,146.121619,28.864667" />
<polygon fill="#2c250d" fill-opacity="0.501961" points="182,155 104,157 164,121" />
<polygon fill="#4b4635" fill-opacity="0.501961" points="205.348168,40.298859,231.636247,51.041902,167.346311,118.073792,182.312932,73.106552" />
<g transform="translate(168 100) rotate(3) scale(45 51)"><rect fill="#9ba47c" fill-opacity="0.501961" x="-0.5" y="-0.5" width="1" height="1" /></g>
<g transform="translate(126.366129 71.607049) rotate(153.241531) scale(16.534263 35.926098)"><ellipse fill="#eaf0e9" fill-opacity="0.501961" cx="0" cy="0" rx="1" ry="1" /></g>
<g transform="translate(249.259408 108.796796) rotate(262.919468) scale(87.876592 24.177378)"><ellipse fill="#aa061e" fill-opacity="0.501961" cx="0" cy="0" rx="1" ry="1" /></g>
<g transform="translate(64 112) rotate(148) scale(12 56)"><rect fill="#485566" fill-opacity="0.501961" x="-0.5" y="-0.5" width="1" height="1" /></g>
<polygon fill="#7dbc15" fill-opacity="0.501961" points="-3,-16 167,-16 74,67" />
<polygon fill="#79982e" fill-opacity="0.501961" points="80.556226,86.336909,99.165014,92.504079,110.194310,58.583236,116.635878,73.577420" />
<g transform="translate(180.549304 99.215751) rotate(44.756120) scale(5.686292 10.580366)"><ellipse fill="#1b3900" fill-opacity="0.501961" cx="0" cy="0" rx="1" ry="1" /></g>
<ellipse fill="#000000" fill-opacity="0.501961" cx="109" cy="191" rx="90" ry="7" />
<polygon fill="#c9d1bb" fill-opacity="0.501961" points="60,109 83,58 96,126" />
<g transform="translate(192.520879 47.971514) rotate(39.352381) scale(4.313388 12.781416)"><ellipse fill="#ffffff" fill-opacity="0.501961" cx="0" cy="0" rx="1" ry="1" /></g>
<g transform="translate(3 182) rotate(246) scale(23 43)"><rect fill="#380000" fill-opacity="0.501961" x="-0.5" y="-0.5" width="1" height="1" /></g>
<polygon fill="#4e0005" fill-opacity="0.501961" points="85.146258,156.156599,188.888566,164.730794,145.907918,151.363756,76.192892,133.751135" />
<polygon fill="#ecf3fb" fill-opacity="0.501961" points="50.657956,45.959059,32.474158,49.891828,31.763846,51.900140,62.982785,60.863342" />
<g transform="translate(203.430006 62.815088) rotate(4.225193) scale(8.410701 18.147821)"><ellipse fill="#420000" fill-opacity="0.501961" cx="0" cy="0" rx="1" ry="1" /></g>
<g transform="translate(105.785283 124.206243) rotate(305.794476) scale(5.115610 12.789506)"><ellipse fill="#2d5200" fill-opacity="0.501961" cx="0" cy="0" rx="1" ry="1" /></g>
<g transform="translate(21 143) rotate(340) scale(87 33)"><rect fill="#92c71e" fill-opacity="0.501961" x="-0.5" y="-0.5" width="1" height="1" /></g>
<polygon fill="#cd182e" fill-opacity="0.501961" points="261,141 156,171 271,171" />
<ellipse fill="#4d000b" fill-opacity="0.501961" cx="151" cy="178" rx="32" ry="8" />
<polygon fill="#8c8582" fill-opacity="0.501961" points="181,49 205,92 169,56" />
<ellipse fill="#feffff" fill-opacity="0.501961" cx="134" cy="52" rx="29" ry="7" />
<polygon fill="#8ec835" fill-opacity="0.501961" points="43.944909,55.215890,26.637732,66.747748,13.714698,120.534712,50.452789,82.077459" />
<polygon fill="#86110d" fill-opacity="0.501961" points="199,17 180,56 155,5" />
<polygon fill="#496100" fill-opacity="0.501961" points="11,121 55,113 45,91" />
<polygon fill="#7f7d5c" fill-opacity="0.501961" points="114,150 156,87 150,141" />
<polygon fill="#b0e36a" fill-opacity="0.501961" points="66.597848,59.391379,51.187203,56.586263,61.351940,44.425207,102.290364,12.956784" />
<polygon fill="#540503" fill-opacity="0.501961" points="244.887986,37.256692,225.692018,64.449168,216.509673,44.236888,185.892169,16.096038" />
<polygon fill="#669400" fill-opacity="0.501961" points="119.944994,12.128461,62.611747,64.773584,76.859195,75.045221,82.804072,60.198905" />
<rect fill="#a1a491" fill-opacity="0.501961" x="110" y="60" width="61" height="6" />
<polygon fill="#ada176" fill-opacity="0.501961" points="222,68 208,75 218,44" />
<polygon fill="#afbbab" fill-opacity="0.501961" points="190.849245,109.896504,146.274407,111.609689,143.251948,116.078838,136.498758,127.976101" />
<polygon fill="#70a606" fill-opacity="0.501961" points="172.065262,44.465504,140.066843,35.263044,146.845587,-16.000000,170.503957,38.774913" />
<g transform="translate(9.619336 64.656144) rotate(45.093978) scale(3.225159 41.746427)"><ellipse fill="#aff452" fill-opacity="0.501961" cx="0" cy="0" rx="1" ry="1" /></g>
<polygon fill="#9f7e5c" fill-opacity="0.501961" points="183,138 162,134 197,112" />
<g transform="translate(212 108) rotate(264) scale(14 31)"><rect fill="#080604" fill-opacity="0.501961" x="-0.5" y="-0.5" width="1" height="1" /></g>
<g transform="translate(199.036671 140.692995) rotate(324.964527) scale(41.167429 12.916887)"><ellipse fill="#780004" fill-opacity="0.501961" cx="0" cy="0" rx="1" ry="1" /></g>
<g transform="translate(42.513650 17.922339) rotate(224.427540) scale(8.219845 44.042183)"><ellipse fill="#64a200" fill-opacity="0.501961" cx="0" cy="0" rx="1" ry="1" /></g>
<polygon fill="#c30f1b" fill-opacity="0.501961" points="78,143 134,167 42,154" />
<polygon fill="#dee2c8" fill-opacity="0.501961" points="121.377266,106.724064,68.046822,84.201929,109.663017,30.027051,74.612515,101.293616" />
<polygon fill="#90d62e" fill-opacity="0.501961" points="102.803758,36.535877,142.072313,-16.000000,115.305579,40.039881,96.484537,41.087835" />
<g transform="translate(204.265594 41.344021) rotate(278.802739) scale(1.615968 9.375409)"><ellipse fill="#f6ffe9" fill-opacity="0.501961" cx="0" cy="0" rx="1" ry="1" /></g>
<polygon fill="#c8c6ba" fill-opacity="0.501961" points="123.403295,95.537547,187.193174,92.882921,185.449153,47.979299,161.952675,88.756858" />
<polygon fill="#f5f9f2" fill-opacity="0.501961" points="109.513584,63.710418,146.241418,90.232631,154.597867,74.734079,165.497124,68.991694" />
<polygon fill="#928d85" fill-opacity="0.501961" points="69.837490,116.905487,101.795182,144.877170,52.874174,57.240946,38.050146,53.569824" />
<polygon fill="#acd363" fill-opacity="0.501961" points="152.884469,-12.951950,98.455465,-6.357402,77.905250,11.048498,72.195769,16.981624" />
<polygon fill="#335100" fill-opacity="0.501961" points="157.340409,137.370665,174.698721,117.392874,155.146509,124.194034,149.360514,133.297730" />
<polygon fill="#bd2f50" fill-opacity="0.501961" points="184.079997,16.689066,201.665703,-13.058910,148.127916,-5.799909,164.328186,11.528616" />
<polygon fill="#e0e0df" fill-opacity="0.501961" points="144.489143,37.339727,154.355895,69.868866,136.063375,87.009780,170.454511,43.569223" />
<polygon fill="#c7be9f" fill-opacity="0.501961" points="204,85 202,103 216,83" />
<g transform="translate(1.383343 155.349099) rotate(158.433397) scale(22.285486 13.354265)"><ellipse fill="#a4cc50" fill-opacity="0.501961" cx="0" cy="0" rx="1" ry="1" /></g>
<polygon fill="#6a672d" fill-opacity="0.501961" points="127.239886,133.221570,152.281303,93.636878,158.762538,103.854844,149.657871,109.002894" />
<polygon fill="#34267a" fill-opacity="0.501961" points="148,46 129,40 141,26" />
<polygon fill="#c14652" fill-opacity="0.501961" points="35.850034,157.479631,34.233983,167.692054,109.556084,165.838885,76.997695,155.144263" />
<polygon fill="#200707" fill-opacity="0.501961" points="142.445928,157.938483,196.545306,131.436848,194.123778,135.723171,186.671922,147.623692" />
<g transform="translate(128.934723 118.154857) rotate(332.704054) scale(2.328893 15.883411)"><ellipse fill="#6a5537" fill-opacity="0.501961" cx="0" cy="0" rx="1" ry="1" /></g>
<polygon fill="#263900" fill-opacity="0.501961" points="181.591652,94.633417,166.191490,110.854457,179.349394,107.923509,187.226777,93.944728" />
<g transform="translate(192 86) rotate(60) scale(17 5)"><rect fill="#100d54" fill-opacity="0.501961" x="-0.5" y="-0.5" width="1" height="1" /></g>
<polygon fill="#bbbeab" fill-opacity="0.501961" points="66.731929,67.076300,99.770070,136.169364,60.986313,93.605970,51.393759,42.942654" />
<polygon fill="#261f0d" fill-opacity="0.501961" points="67.155137,116.208448,60.731851,124.610065,122.239031,159.402947,81.082343,140.736828" />
<polygon fill="#70a100" fill-opacity="0.501961" points="41,150 87,136 16,118" />
<polygon fill="#83000c" fill-opacity="0.501961" points="234.505385,109.043182,203.746013,101.529354,220.792611,84.119298,267.919273,107.144025" />
<polygon fill="#8d2b32" fill-opacity="0.501961" points="257.846885,164.564744,271.000000,164.725806,249.521787,189.793711,186.479741,174.185960" />
<polygon fill="#8ba24f" fill-opacity="0.501961" points="98.553964,89.125236,111.756290,66.028791,103.467323,74.201635,81.880732,87.076913" />
<ellipse fill="#000002" fill-opacity="0.501961" cx="137" cy="190" rx="105" ry="4" />
<polygon fill="#659b00" fill-opacity="0.501961" points="32.268722,54.025617,57.852340,67.591814,18.542687,54.731462,-16.000000,170.249674" />
<polygon fill="#650b08" fill-opacity="0.501961" points="174.985010,44.039363,168.409693,43.685575,213.007800,35.344681,226.914846,5.796467" />
<polygon fill="#f8f6e9" fill-opacity="0.501961" points="87,54 114,65 79,63" />
<polygon fill="#881b2c" fill-opacity="0.501961" points="64.589493,186.900991,98.163055,184.369522,90.018071,166.835940,52.782889,161.039277" />
<polygon fill="#cbc9bd" fill-opacity="0.501961" points="153.559649,93.245022,134.443103,118.536358,111.734856,82.189102,75.109632,100.514099" />
<polygon fill="#72a908" fill-opacity="0.501961" points="97,6 29,47 63,43" />
<ellipse fill="#859049" fill-opacity="0.501961" cx="162" cy="79" rx="6" ry="6" />
<polygon fill="#d2d4c2" fill-opacity="0.501961" points="167.953810,61.498932,177.170578,62.010979,177.268821,95.716824,164.613537,110.357682" />
<polygon fill="#b7a89f" fill-opacity="0.501961" points="133.926086,138.038840,106.403580,83.114279,128.635831,88.146528,98.045266,109.019496" />
<polygon fill="#a4a483" fill-opacity="0.501961" points="194.951177,97.820315,169.509989,134.781829,187.578893,99.318454,183.604494,80.339346" />
<polygon fill="#a2d74b" fill-opacity="0.501961" points="104.014802,19.827282,65.028000,49.553018,89.414950,21.811733,133.861151,2.439044" />
<polygon fill="#867f8a" fill-opacity="0.501961" points="176.006943,59.937385,170.468584,57.958341,202.503595,93.453759,187.983524,65.465438" />
<polygon fill="#e3f8ed" fill-opacity="0.501961" points="124,37 135,53 101,42" />
<polygon fill="#4d0306" fill-opacity="0.501961" points="192.738449,57.071488,213.375311,50.254268,202.601413,84.872209,192.419249,66.802840" />
<polygon fill="#591500" fill-opacity="0.501961" points="8,207 35,155 -16,178" />
<polygon fill="#4f0e16" fill-opacity="0.501961" points="252,207 159,183 259,182" />
<polygon fill="#2f4672" fill-opacity="0.501961" points="52,90 58,108 62,97" />
<polygon fill="#b9515b" fill-opacity="0.501961" points="121,175 82,159 105,182" />
</g>
</svg>