<svg xmlns="http://www.w3.org/2000/svg" version="1.1" width="349" height="261">
<rect x="0" y="0" width="349" height="261" fill="#8a6b3f" />
<g transform="scale(1.363281) translate(0.5 0.5)">
<g transform="translate(123.796429 79.840788) rotate(166.963487) scale(67.107517 39.300006)"><ellipse fill="#f6ffff" fill-opacity="0.501961" cx="0" cy="0" rx="1" ry="1" /></g>
<g transform="translate(153.472147 172.458123) rotate(523.298349) scale(255.000000 53.478146)"><ellipse fill="#6e0007" fill-opacity="0.501961" cx="0" cy="0" rx="1" ry="1" /></g>
<polygon fill="#78f615" fill-opacity="0.501961" points="150,-16 0,172 -16,-13" />
<g transform="translate(236.965300 69.128616) rotate(249.325926) scale(235.640073 52.231468)"><ellipse fill="#8e0019" fill-opacity="0.501961" cx="0" cy="0" rx="1" ry="1" /></g>
<ellipse fill="#86ab88" fill-opacity="0.501961" cx="133" cy="119" rx="62" ry="21" />
<rect fill="#cfddce" fill-opacity="0.501961" x="43" y="46" width="151" height="45" />
<ellipse fill="#000000" fill-opacity="0.501961" cx="136" cy="191" rx="151" ry="7" />
<ellipse fill="#a60323" fill-opacity="0.501961" cx="227" cy="163" rx="210" ry="19" />
<polygon fill="#67b600" fill-opacity="0.501961" points="9,165 45,74 74,140" />
<polygon fill="#f4ffff" fill-opacity="0.501961" points="206.936936,35.382886,195.030763,40.197947,163.704362,76.851140,211.146851,40.177289" />
<polygon fill="#b3d4af" fill-opacity="0.501961" points="215.549053,88.886912,221.809508,65.990194,214.081668,56.491218,197.630822,107.348756" />
<polygon fill="#6dae00" fill-opacity="0.501961" points="-7.661467,-16.000000,113.072863,25.002253,69.986242,75.986453,62.513902,51.694912" />
<g transform="translate(127.595737 69.466753) rotate(151.950224) scale(18.697674 35.037698)"><ellipse fill="#eff9f3" fill-opacity="0.501961" cx="0" cy="0" rx="1" ry="1" /></g>
<ellipse fill="#6a0006" fill-opacity="0.501961" cx="225" cy="18" rx="40" ry="23" />
<polygon fill="#300000" fill-opacity="0.501961" points="103,156 208,126 182,162" />
<ellipse fill="#000003" fill-opacity="0.501961" cx="209" cy="109" rx="20" ry="11" />
<g transform="translate(138.953270 11.226694) rotate(318.254735) scale(15.631964 36.756504)"><ellipse fill="#65c906" fill-opacity="0.501961" cx="0" cy="0" rx="1" ry="1" /></g>
<polygon fill="#092277" fill-opacity="0.501961" points="142.181910,46.717900,146.507070,43.338599,139.398896,22.239630,117.825428,35.099594" />
<rect fill="#c13e53" fill-opacity="0.501961" x="30" y="157" width="88" height="26" />
<g transform="translate(52 81) rotate(158) scale(15 75)"><rect fill="#848e8e" fill-opacity="0.501961" x="-0.5" y="-0.5" width="1" height="1" /></g>
<g transform="translate(243.197059 93.075644) rotate(178.671485) scale(20.158650 80.086611)"><ellipse fill="#ab031c" fill-opacity="0.501961" cx="0" cy="0" rx="1" ry="1" /></g>
<polygon fill="#3e3223" fill-opacity="0.501961" points="200.105538,86.676606,232.050571,36.323432,198.833948,46.824039,166.154480,119.750466" />
<polygon fill="#7e100e" fill-opacity="0.501961" points="197.923540,33.330150,178.064121,58.748230,152.335606,-2.542033,258.524281,62.633354" />
<polygon fill="#b0c3ac" fill-opacity="0.501961" points="148.134370,110.019642,137.320740,127.494244,141.832087,129.198647,195.391434,108.147394" />
<ellipse fill="#000000" fill-opacity="0.501961" cx="120" cy="191" rx="80" ry="8" />
<polygon fill="#7a982b" fill-opacity="0.501961" points="97,90 116,64 82,87" />
<rect fill="#ffffff" fill-opacity="0.501961" x="35" y="47" width="19" height="8" />
<polygon fill="#5e6538" fill-opacity="0.501961" points="124.086525,152.008366,103.050406,131.691459,94.263872,115.018884,191.080266,134.737267" />
<polygon fill="#574b03" fill-opacity="0.501961" points="156,89 154,106 135,118" />
<polygon fill="#381c12" fill-opacity="0.501961" points="84,150 56,112 133,157" />
</g>
</svg>