<svg xmlns="http://www.w3.org/2000/svg" version="1.1" width="349" height="261">
<rect x="0" y="0" width="349" height="261" fill="#8a6b3f" />
<g transform="scale(1.363281) translate(0.5 0.5)">
<g transform="translate(123.367405 78.223817) rotate(167.652349) scale(69.193307 37.043520)"><ellipse fill="#f8ffff" fill-opacity="0.501961" cx="0" cy="0" rx="1" ry="1" /></g>
<polygon fill="#6d0003" fill-opacity="0.501961" points="271,75 -16,188 255,207" />
<polygon fill="#77f513" fill-opacity="0.501961" points="-16,-16 149,-16 -16,193" />
<g transform="translate(214.500692 27.851913) rotate(342.380001) scale(44.166794 223.111995)"><ellipse fill="#8e001a" fill-opacity="0.501961" cx="0" cy="0" rx="1" ry="1" /></g>
<polygon fill="#d4e5d8" fill-opacity="0.501961" points="79,55 205,37 149,135" />
<g transform="translate(169.017628 108.137865) rotate(143.108042) scale(63.131969 20.097008)"><ellipse fill="#748e6f" fill-opacity="0.501961" cx="0" cy="0" rx="1" ry="1" /></g>
<ellipse fill="#000000" fill-opacity="0.501961" cx="136" cy="191" rx="138" ry="8" />
<polygon fill="#b4b4c6" fill-opacity="0.501961" points="30.264861,46.621048,58.299240,46.670299,106.988207,140.327142,68.125466,116.474256" />
<g transform="translate(78.896403 164.941852) rotate(183.946507) scale(47.432985 17.544214)"><ellipse fill="#cb173f" fill-opacity="0.501961" cx="0" cy="0" rx="1" ry="1" /></g>
<g transform="translate(42 124) rotate(340) scale(57 57)"><rect fill="#62a504" fill-opacity="0.501961" x="-0.5" y="-0.5" width="1" height="1" /></g>
<g transform="translate(216.480521 156.000502) rotate(167.679718) scale(83.741710 25.779703)"><ellipse fill="#9e0014" fill-opacity="0.501961" cx="0" cy="0" rx="1" ry="1" /></g>
<polygon fill="#f9ffff" fill-opacity="0.501961" points="173,55 107,36 79,65" />
<g transform="translate(236.656812 21.655047) rotate(268.786511) scale(19.732962 53.393638)"><ellipse fill="#690004" fill-opacity="0.501961" cx="0" cy="0" rx="1" ry="1" /></g>
<polygon fill="#160000" fill-opacity="0.501961" points="233,106 208,95 168,161" />
<g transform="translate(133.859943 4.196196) rotate(53.044945) scale(41.584498 17.652673)"><ellipse fill="#66cc0a" fill-opacity="0.501961" cx="0" cy="0" rx="1" ry="1" /></g>
<rect fill="#460306" fill-opacity="0.501961" x="75" y="139" width="126" height="19" />
<polygon fill="#3d0000" fill-opacity="0.501961" points="-16,177 7,207 36,155" />
<polygon fill="#84130e" fill-opacity="0.501961" points="176.867202,63.908280,173.275184,53.856455,156.416023,4.643767,204.581298,18.967018" />
<polygon fill="#000f84" fill-opacity="0.501961" points="146.070003,46.799890,126.690604,41.973492,121.679066,26.647260,141.648555,28.956874" />
<polygon fill="#ffffff" fill-opacity="0.501961" points="193,39 212,37 177,62" />
<ellipse fill="#200000" fill-opacity="0.501961" cx="202" cy="63" rx="9" ry="17" />
<g transform="translate(153 121) rotate(76) scale(37 81)"><rect fill="#818964" fill-opacity="0.501961" x="-0.5" y="-0.5" width="1" height="1" /></g>
<polygon fill="#c2b999" fill-opacity="0.501961" points="200.774058,91.448017,203.513255,103.197330,221.113192,76.762576,219.987960,47.438337" />
<g transform="translate(245.732397 85.757262) rotate(270.554150) scale(97.166528 20.019131)"><ellipse fill="#ab0922" fill-opacity="0.501961" cx="0" cy="0" rx="1" ry="1" /></g>
<polygon fill="#70af05" fill-opacity="0.501961" points="67.035670,-16.000000,68.725529,73.814417,112.768904,33.580740,8.963726,39.394333" />
<polygon fill="#4b4d83" fill-opacity="0.501961" points="56.172226,85.750221,74.660439,124.209428,68.930969,133.584252,48.063435,97.642606" />
<ellipse fill="#000000" fill-opacity="0.501961" cx="115" cy="191" rx="91" ry="7" />
<g transform="translate(26 142) rotate(246) scale(28 75)"><rect fill="#95cf1c" fill-opacity="0.501961" x="-0.5" y="-0.5" width="1" height="1" /></g>
<g transform="translate(131.861726 79.921363) rotate(190.552893) scale(18.172223 14.485094)"><ellipse fill="#fbfef9" fill-opacity="0.501961" cx="0" cy="0" rx="1" ry="1" /></g>
<polygon fill="#293600" fill-opacity="0.501961" points="160.562412,156.082500,170.277586,117.329066,168.833589,120.234141,146.280512,128.968568" />
<polygon fill="#0f2600" fill-opacity="0.501961" points="185.475176,105.822072,187.651039,93.079422,180.688344,91.540085,169.499350,109.499615" />
<polygon fill="#2c000b" fill-opacity="0.501961" points="220.832062,90.634423,188.434343,119.132413,201.884830,63.246740,201.548774,134.320238" />
<polygon fill="#a4a275" fill-opacity="0.501961" points="146.365158,100.349188,153.262533,78.708055,165.645415,71.298702,181.446173,140.958603" />
<g transform="translate(41 51) rotate(174) scale(21 6)"><rect fill="#ffffff" fill-opacity="0.501961" x="-0.5" y="-0.5" width="1" height="1" /></g>
<g transform="translate(2.885332 100.809173) rotate(30.032729) scale(10.233662 57.066674)"><ellipse fill="#5fa200" fill-opacity="0.501961" cx="0" cy="0" rx="1" ry="1" /></g>
<polygon fill="#cc1a2f" fill-opacity="0.501961" points="271,136 171,170 271,172" />
<polygon fill="#b9f16b" fill-opacity="0.501961" points="85.074097,25.212323,55.619201,52.210480,61.216748,61.665426,104.037191,13.554449" />
<polygon fill="#86a644" fill-opacity="0.501961" points="86.735304,85.369633,81.692588,85.405154,92.658247,94.806869,117.164422,63.318683" />
<polygon fill="#4f0102" fill-opacity="0.501961" points="227.852130,68.228759,240.830566,40.048288,241.035662,42.908165,200.259348,14.261171" />
<polygon fill="#e3e4c7" fill-opacity="0.501961" points="95.274482,128.388782,85.021082,88.037577,101.440452,57.765943,66.360074,78.221720" />
<polygon fill="#500010" fill-opacity="0.501961" points="122.148836,182.974149,271.000000,193.864519,161.293658,171.892051,126.255007,170.830768" />
<ellipse fill="#b23245" fill-opacity="0.501961" cx="75" cy="169" rx="49" ry="17" />
<rect fill="#b3baa9" fill-opacity="0.501961" x="146" y="109" width="40" height="12" />
<polygon fill="#91de36" fill-opacity="0.501961" points="108.804578,29.278517,103.785997,44.368685,119.847653,33.602339,150.611354,-16.000000" />
<polygon fill="#486500" fill-opacity="0.501961" points="54.706830,114.124656,48.545845,88.388035,33.903639,99.965229,22.724978,116.316035" />
<polygon fill="#c5c2ac" fill-opacity="0.501961" points="183.105975,86.249272,161.207840,115.881700,171.231892,40.593245,194.582766,107.209388" />
<polygon fill="#a8030b" fill-opacity="0.501961" points="81.708768,157.039966,163.798065,175.233150,74.509713,141.004646,43.373289,155.216822" />
<g transform="translate(106.135788 123.928435) rotate(124.586475) scale(4.710013 14.003630)"><ellipse fill="#296a0a" fill-opacity="0.501961" cx="0" cy="0" rx="1" ry="1" /></g>
<polygon fill="#949690" fill-opacity="0.501961" points="208.390389,98.013380,176.852813,65.622300,144.104346,64.224091,179.019618,53.703956" />
<g transform="translate(210.153860 139.508673) rotate(45.749189) scale(20.393417 24.223832)"><ellipse fill="#8a0008" fill-opacity="0.501961" cx="0" cy="0" rx="1" ry="1" /></g>
</g>
</svg>