<svg xmlns="http://www.w3.org/2000/svg" version="1.1" width="916" height="1024">
<rect x="0" y="0" width="916" height="1024" fill="#607554" />
<g transform="scale(4.000000) translate(0.5 0.5)">
<ellipse fill="#ffffff" fill-opacity="0.501961" cx="111" cy="251" rx="89" ry="44" />
<ellipse fill="#c5ffff" fill-opacity="0.501961" cx="106" cy="57" rx="30" ry="29" />
<ellipse fill="#00000d" fill-opacity="0.501961" cx="105" cy="155" rx="39" ry="39" />
<g transform="translate(168.122157 183.249047) rotate(216.113623) scale(93.421402 32.755014)"><ellipse fill="#00001b" fill-opacity="0.501961" cx="0" cy="0" rx="1" ry="1" /></g>
<g transform="translate(33.774129 191.782432) rotate(396.067101) scale(33.245126 52.489703)"><ellipse fill="#00000f" fill-opacity="0.501961" cx="0" cy="0" rx="1" ry="1" /></g>
<ellipse fill="#135f00" fill-opacity="0.501961" cx="19" cy="26" rx="64" ry="64" />
<ellipse fill="#beffff" fill-opacity="0.501961" cx="216" cy="40" rx="25" ry="25" />
<g transform="translate(83.275823 227.816267) rotate(133.555657) scale(38.430484 20.367788)"><ellipse fill="#fffff1" fill-opacity="0.501961" cx="0" cy="0" rx="1" ry="1" /></g>
<ellipse fill="#64aa00" fill-opacity="0.501961" cx="39" cy="108" rx="48" ry="48" />
<g transform="translate(169.885543 253.022320) rotate(208.381211) scale(96.600121 25.347220)"><ellipse fill="#ffffdc" fill-opacity="0.501961" cx="0" cy="0" rx="1" ry="1" /></g>
<ellipse fill="#002700" fill-opacity="0.501961" cx="148" cy="22" rx="24" ry="24" />
<g transform="translate(14.151916 14.697169) rotate(87.132217) scale(71.470545 20.482896)"><ellipse fill="#001b00" fill-opacity="0.501961" cx="0" cy="0" rx="1" ry="1" /></g>
<g transform="translate(142.724511 88.014454) rotate(308.814872) scale(42.271455 34.061232)"><ellipse fill="#8b5a38" fill-opacity="0.501961" cx="0" cy="0" rx="1" ry="1" /></g>
<rect fill="#d4fcf4" fill-opacity="0.501961" x="87" y="18" width="18" height="100" />
<ellipse fill="#c9ff35" fill-opacity="0.501961" cx="63" cy="51" rx="15" ry="15" />
<ellipse fill="#767382" fill-opacity="0.501961" cx="119" cy="184" rx="27" ry="27" />
<ellipse fill="#ffffe5" fill-opacity="0.501961" cx="59" cy="255" rx="53" ry="20" />
<ellipse fill="#98c9ca" fill-opacity="0.501961" cx="206" cy="140" rx="17" ry="17" />
<g transform="translate(45.248007 176.884410) rotate(235.127581) scale(18.505382 94.900458)"><ellipse fill="#010004" fill-opacity="0.501961" cx="0" cy="0" rx="1" ry="1" /></g>
<g transform="translate(181.758354 182.406950) rotate(210.277000) scale(70.435541 21.694089)"><ellipse fill="#100d0c" fill-opacity="0.501961" cx="0" cy="0" rx="1" ry="1" /></g>
<rect fill="#000000" fill-opacity="0.501961" x="111" y="231" width="6" height="25" />
<g transform="translate(206.929564 28.532925) rotate(271.620139) scale(35.348401 6.855107)"><ellipse fill="#baf0ff" fill-opacity="0.501961" cx="0" cy="0" rx="1" ry="1" /></g>
<rect fill="#90c705" fill-opacity="0.501961" x="40" y="10" width="20" height="45" />
<g transform="translate(47.218869 211.260358) rotate(234.267797) scale(11.364300 99.572684)"><ellipse fill="#33457c" fill-opacity="0.501961" cx="0" cy="0" rx="1" ry="1" /></g>
<ellipse fill="#1e5d6f" fill-opacity="0.501961" cx="116" cy="14" rx="23" ry="23" />
<ellipse fill="#6eafab" fill-opacity="0.501961" cx="180" cy="35" rx="12" ry="28" />
<g transform="translate(151 77) rotate(270) scale(60 25)"><rect fill="#c04427" fill-opacity="0.501961" x="-0.5" y="-0.5" width="1" height="1" /></g>
<ellipse fill="#1a6400" fill-opacity="0.501961" cx="228" cy="100" rx="13" ry="40" />
<g transform="translate(129 109) rotate(122) scale(12 38)"><rect fill="#004100" fill-opacity="0.501961" x="-0.5" y="-0.5" width="1" height="1" /></g>
<ellipse fill="#689f07" fill-opacity="0.501961" cx="12" cy="142" rx="32" ry="32" />
<ellipse fill="#a5e5d2" fill-opacity="0.501961" cx="209" cy="102" rx="9" ry="12" />
<ellipse fill="#74b223" fill-opacity="0.501961" cx="67" cy="86" rx="27" ry="22" />
<g transform="translate(202.011145 80.848946) rotate(36.249437) scale(14.574569 23.108392)"><ellipse fill="#115035" fill-opacity="0.501961" cx="0" cy="0" rx="1" ry="1" /></g>
<polygon fill="#fffad4" fill-opacity="0.501961" points="126,200 113,263 239,262" />
<g transform="translate(169.675095 207.334939) rotate(292.608254) scale(15.163108 33.965373)"><ellipse fill="#243a72" fill-opacity="0.501961" cx="0" cy="0" rx="1" ry="1" /></g>
<g transform="translate(123.021255 76.077705) rotate(68.585041) scale(25.509045 13.598786)"><ellipse fill="#44957c" fill-opacity="0.501961" cx="0" cy="0" rx="1" ry="1" /></g>
<ellipse fill="#95ceff" fill-opacity="0.501961" cx="118" cy="50" rx="21" ry="12" />
<g transform="translate(72.783780 246.939941) rotate(379.545243) scale(32.365300 29.494676)"><ellipse fill="#fffed4" fill-opacity="0.501961" cx="0" cy="0" rx="1" ry="1" /></g>
<polygon fill="#78acdb" fill-opacity="0.501961" points="132.237404,3.320766,132.514683,17.794641,109.517337,12.415305,123.550489,-10.325428" />
<g transform="translate(206 165) rotate(126) scale(7 34)"><rect fill="#e6c9d7" fill-opacity="0.501961" x="-0.5" y="-0.5" width="1" height="1" /></g>
<rect fill="#daddae" fill-opacity="0.501961" x="24" y="92" width="12" height="20" />
<polygon fill="#d5f8a9" fill-opacity="0.501961" points="79,126 89,96 113,100" />
<g transform="translate(184 146) rotate(257) scale(36 18)"><rect fill="#5d2620" fill-opacity="0.501961" x="-0.5" y="-0.5" width="1" height="1" /></g>
<g transform="translate(86.472977 0.000000) rotate(17.595995) scale(28.664095 14.385616)"><ellipse fill="#00332e" fill-opacity="0.501961" cx="0" cy="0" rx="1" ry="1" /></g>
<polygon fill="#d6b3b3" fill-opacity="0.501961" points="154.935190,39.185291,163.902560,58.676476,191.869438,116.996691,181.600314,84.036203" />
<g transform="translate(92 62) rotate(156) scale(21 26)"><rect fill="#f2ffff" fill-opacity="0.501961" x="-0.5" y="-0.5" width="1" height="1" /></g>
<polygon fill="#397c00" fill-opacity="0.501961" points="228,154 199,148 244,195" />
<rect fill="#316b59" fill-opacity="0.501961" x="218" y="2" width="11" height="40" />
<ellipse fill="#efddad" fill-opacity="0.501961" cx="101" cy="204" rx="10" ry="15" />
<g transform="translate(211.431012 136.142858) rotate(238.290084) scale(23.221947 9.964607)"><ellipse fill="#85baaf" fill-opacity="0.501961" cx="0" cy="0" rx="1" ry="1" /></g>
<g transform="translate(204 42) rotate(15) scale(18 35)"><rect fill="#b3e2ff" fill-opacity="0.501961" x="-0.5" y="-0.5" width="1" height="1" /></g>
<g transform="translate(19.993074 74.627035) rotate(58.712750) scale(22.338980 39.149514)"><ellipse fill="#346a0a" fill-opacity="0.501961" cx="0" cy="0" rx="1" ry="1" /></g>
<ellipse fill="#454c53" fill-opacity="0.501961" cx="123" cy="176" rx="30" ry="23" />
<polygon fill="#22346f" fill-opacity="0.501961" points="226,223 127,197 238,261" />
<polygon fill="#71a053" fill-opacity="0.501961" points="138.918051,86.437877,32.908037,80.646566,90.307563,112.839600,90.218117,97.472776" />
<ellipse fill="#281500" fill-opacity="0.501961" cx="114" cy="232" rx="2" ry="45" />
<g transform="translate(152 12) rotate(275) scale(69 30)"><rect fill="#0e3e09" fill-opacity="0.501961" x="-0.5" y="-0.5" width="1" height="1" /></g>
<rect fill="#6aa0b9" fill-opacity="0.501961" x="85" y="0" width="12" height="27" />
<ellipse fill="#2b6c00" fill-opacity="0.501961" cx="73" cy="35" rx="13" ry="13" />
<rect fill="#2b5e34" fill-opacity="0.501961" x="153" y="30" width="37" height="9" />
<rect fill="#2a5c00" fill-opacity="0.501961" x="113" y="67" width="18" height="9" />
<polygon fill="#5e3c3a" fill-opacity="0.501961" points="107,122 70,133 103,110" />
<g transform="translate(45.509416 126.674346) rotate(360.964120) scale(7.290540 25.694693)"><ellipse fill="#316b00" fill-opacity="0.501961" cx="0" cy="0" rx="1" ry="1" /></g>
<polygon fill="#f7f0cf" fill-opacity="0.501961" points="-16,253 120,271 105,231" />
<ellipse fill="#976d67" fill-opacity="0.501961" cx="170" cy="105" rx="11" ry="32" />
<polygon fill="#573c51" fill-opacity="0.501961" points="17,177 38,148 79,134" />
<rect fill="#a9cf77" fill-opacity="0.501961" x="58" y="53" width="25" height="16" />
<polygon fill="#509220" fill-opacity="0.501961" points="185.028420,32.706528,217.928696,9.322047,147.886464,4.520279,195.940301,-9.671223" />
<polygon fill="#2f6502" fill-opacity="0.501961" points="24,177 19,80 6,138" />
<polygon fill="#351c14" fill-opacity="0.501961" points="182,171 192,136 183,101" />
<polygon fill="#09320e" fill-opacity="0.501961" points="122,31 88,7 108,4" />
<ellipse fill="#09411f" fill-opacity="0.501961" cx="194" cy="98" rx="6" ry="21" />
<g transform="translate(149.140982 72.478882) rotate(286.597587) scale(15.085231 7.599824)"><ellipse fill="#a41a00" fill-opacity="0.501961" cx="0" cy="0" rx="1" ry="1" /></g>
<polygon fill="#689dca" fill-opacity="0.501961" points="230,66 168,53 176,36" />
<g transform="translate(111 115) rotate(110) scale(1 62)"><rect fill="#e6cdba" fill-opacity="0.501961" x="-0.5" y="-0.5" width="1" height="1" /></g>
<polygon fill="#ffffff" fill-opacity="0.501961" points="196,153 202,158 194,144" />
<polygon fill="#17130b" fill-opacity="0.501961" points="201,195 140,107 150,162" />
<ellipse fill="#87b811" fill-opacity="0.501961" cx="0" cy="122" rx="9" ry="57" />
<polygon fill="#f7cdc0" fill-opacity="0.501961" points="176.515380,69.337868,169.056670,71.744745,166.256775,61.546451,157.520564,48.183509" />
<polygon fill="#88b6b2" fill-opacity="0.501961" points="215.805225,85.223920,197.446817,95.371686,201.332138,102.388818,220.667322,101.152331" />
<g transform="translate(8.907566 18.109646) rotate(304.159516) scale(45.483773 21.937635)"><ellipse fill="#012b03" fill-opacity="0.501961" cx="0" cy="0" rx="1" ry="1" /></g>
<rect fill="#574237" fill-opacity="0.501961" x="144" y="54" width="21" height="15" />
<polygon fill="#f3edcc" fill-opacity="0.501961" points="64.366892,209.387412,76.932346,271.000000,124.807791,196.094968,125.513086,226.067630" />
<ellipse fill="#0f100e" fill-opacity="0.501961" cx="211" cy="194" rx="17" ry="17" />
<g transform="translate(84 84) rotate(311) scale(10 28)"><rect fill="#34651d" fill-opacity="0.501961" x="-0.5" y="-0.5" width="1" height="1" /></g>
<polygon fill="#3d4449" fill-opacity="0.501961" points="109,142 186,187 92,176" />
<polygon fill="#040300" fill-opacity="0.501961" points="91,129 66,167 8,181" />
<g transform="translate(165.774239 148.497423) rotate(301.301170) scale(1.000000 60.301269)"><ellipse fill="#6b5e46" fill-opacity="0.501961" cx="0" cy="0" rx="1" ry="1" /></g>
<g transform="translate(113 85) rotate(184) scale(40 11)"><rect fill="#83a9ac" fill-opacity="0.501961" x="-0.5" y="-0.5" width="1" height="1" /></g>
<g transform="translate(63 131) rotate(239) scale(8 21)"><rect fill="#aec067" fill-opacity="0.501961" x="-0.5" y="-0.5" width="1" height="1" /></g>
<g transform="translate(228.000000 116.957716) rotate(295.192206) scale(18.875860 9.080474)"><ellipse fill="#224f00" fill-opacity="0.501961" cx="0" cy="0" rx="1" ry="1" /></g>
<ellipse fill="#133e00" fill-opacity="0.501961" cx="67" cy="5" rx="20" ry="7" />
<ellipse fill="#6baa02" fill-opacity="0.501961" cx="67" cy="106" rx="23" ry="13" />
<polygon fill="#99bb75" fill-opacity="0.501961" points="169,-16 178,31 189,14" />
<polygon fill="#8ac1b8" fill-opacity="0.501961" points="202,7 244,-8 178,-13" />
<rect fill="#000000" fill-opacity="0.501961" x="112" y="233" width="3" height="23" />
<g transform="translate(146.882721 109.584090) rotate(130.929153) scale(5.560550 36.659255)"><ellipse fill="#78765e" fill-opacity="0.501961" cx="0" cy="0" rx="1" ry="1" /></g>
<polygon fill="#a28290" fill-opacity="0.501961" points="168,132 169,146 193,159" />
<polygon fill="#386824" fill-opacity="0.501961" points="203,141 204,160 222,162" />
<g transform="translate(89.441831 186.588067) rotate(327.632917) scale(19.784274 10.358942)"><ellipse fill="#30426f" fill-opacity="0.501961" cx="0" cy="0" rx="1" ry="1" /></g>
</g>
</svg>