<svg xmlns="http://www.w3.org/2000/svg" version="1.1" width="916" height="1024">
<rect x="0" y="0" width="916" height="1024" fill="#607554" />
<g transform="scale(4.000000) translate(0.5 0.5)">
<ellipse fill="#ffffff" fill-opacity="0.501961" cx="109" cy="255" rx="90" ry="48" />
<ellipse fill="#0b0c07" fill-opacity="0.501961" cx="69" cy="162" rx="130" ry="39" />
<g transform="translate(108.878366 59.686571) rotate(36.646692) scale(31.605954 29.094559)"><ellipse fill="#bfffff" fill-opacity="0.501961" cx="0" cy="0" rx="1" ry="1" /></g>
<g transform="translate(194.293094 206.230617) rotate(115.325786) scale(27.560108 59.871012)"><ellipse fill="#000029" fill-opacity="0.501961" cx="0" cy="0" rx="1" ry="1" /></g>
<g transform="translate(16.351779 17.416281) rotate(122.000486) scale(100.740145 59.498077)"><ellipse fill="#0a5500" fill-opacity="0.501961" cx="0" cy="0" rx="1" ry="1" /></g>
<ellipse fill="#bcffff" fill-opacity="0.501961" cx="212" cy="39" rx="24" ry="24" />
<g transform="translate(100.154054 234.125191) rotate(170.652637) scale(52.452298 36.461325)"><ellipse fill="#ffffdf" fill-opacity="0.501961" cx="0" cy="0" rx="1" ry="1" /></g>
<ellipse fill="#76bf00" fill-opacity="0.501961" cx="24" cy="116" rx="57" ry="42" />
<polygon fill="#ffffdc" fill-opacity="0.501961" points="241,261 150,271 88,188" />
<ellipse fill="#000124" fill-opacity="0.501961" cx="18" cy="203" rx="35" ry="35" />
<g transform="translate(152.775925 0.000000) rotate(102.380872) scale(49.335139 19.851238)"><ellipse fill="#002400" fill-opacity="0.501961" cx="0" cy="0" rx="1" ry="1" /></g>
<ellipse fill="#834f2d" fill-opacity="0.501961" cx="143" cy="93" rx="37" ry="37" />
<rect fill="#dbfffd" fill-opacity="0.501961" x="89" y="20" width="17" height="96" />
<ellipse fill="#1b0200" fill-opacity="0.501961" cx="113" cy="235" rx="3" ry="50" />
<g transform="translate(63.164605 63.869838) rotate(160.284046) scale(14.677359 62.775721)"><ellipse fill="#8dd410" fill-opacity="0.501961" cx="0" cy="0" rx="1" ry="1" /></g>
<g transform="translate(42.601668 247.315387) rotate(67.225293) scale(12.537193 89.730730)"><ellipse fill="#ffffe3" fill-opacity="0.501961" cx="0" cy="0" rx="1" ry="1" /></g>
<ellipse fill="#94c8bb" fill-opacity="0.501961" cx="209" cy="144" rx="16" ry="26" />
<g transform="translate(188.544059 182.960961) rotate(393.022333) scale(115.670815 18.595024)"><ellipse fill="#070002" fill-opacity="0.501961" cx="0" cy="0" rx="1" ry="1" /></g>
<ellipse fill="#002200" fill-opacity="0.501961" cx="16" cy="24" rx="18" ry="68" />
<ellipse fill="#545b7d" fill-opacity="0.501961" cx="121" cy="183" rx="50" ry="20" />
<g transform="translate(56.034602 172.809712) rotate(321.729836) scale(84.024911 16.954765)"><ellipse fill="#000007" fill-opacity="0.501961" cx="0" cy="0" rx="1" ry="1" /></g>
<ellipse fill="#b9ed3d" fill-opacity="0.501961" cx="0" cy="163" rx="15" ry="15" />
<rect fill="#91cdff" fill-opacity="0.501961" x="171" y="39" width="46" height="18" />
<polygon fill="#c1f1ff" fill-opacity="0.501961" points="212,-16 193,47 215,58" />
<g transform="translate(148.214572 77.644240) rotate(267.911470) scale(31.906679 10.084132)"><ellipse fill="#cc3c1b" fill-opacity="0.501961" cx="0" cy="0" rx="1" ry="1" /></g>
<polygon fill="#186200" fill-opacity="0.501961" points="229,61 213,117 231,148" />
<ellipse fill="#1a5b6b" fill-opacity="0.501961" cx="115" cy="0" rx="33" ry="33" />
<polygon fill="#9adbd4" fill-opacity="0.501961" points="220.982118,99.839637,212.543664,109.622299,197.708570,107.005558,208.626736,84.877800" />
<polygon fill="#164327" fill-opacity="0.501961" points="183,143 215,65 189,63" />
<ellipse fill="#293a5c" fill-opacity="0.501961" cx="49" cy="197" rx="34" ry="17" />
</g>
</svg>