<svg xmlns="http://www.w3.org/2000/svg" version="1.1" width="916" height="1024">
<rect x="0" y="0" width="916" height="1024" fill="#607554" />
<g transform="scale(4.000000) translate(0.5 0.5)">
<g transform="translate(114.209104 255.000000) rotate(363.747127) scale(89.988798 46.992644)"><ellipse fill="#ffffff" fill-opacity="0.501961" cx="0" cy="0" rx="1" ry="1" /></g>
<g transform="translate(104.838920 57.453300) rotate(406.432949) scale(28.254493 30.330369)"><ellipse fill="#c3ffff" fill-opacity="0.501961" cx="0" cy="0" rx="1" ry="1" /></g>
<g transform="translate(165.401317 183.840459) rotate(31.388225) scale(106.580965 32.960347)"><ellipse fill="#000012" fill-opacity="0.501961" cx="0" cy="0" rx="1" ry="1" /></g>
<ellipse fill="#00010a" fill-opacity="0.501961" cx="47" cy="176" rx="48" ry="37" />
<ellipse fill="#bcffff" fill-opacity="0.501961" cx="215" cy="40" rx="25" ry="25" />
<ellipse fill="#439000" fill-opacity="0.501961" cx="0" cy="78" rx="85" ry="85" />
<ellipse fill="#000400" fill-opacity="0.501961" cx="14" cy="26" rx="30" ry="30" />
<g transform="translate(120.990127 242.710508) rotate(107.393555) scale(40.466380 70.315505)"><ellipse fill="#ffffe0" fill-opacity="0.501961" cx="0" cy="0" rx="1" ry="1" /></g>
<g transform="translate(16.982848 209.150837) rotate(319.931958) scale(137.558584 21.832717)"><ellipse fill="#000017" fill-opacity="0.501961" cx="0" cy="0" rx="1" ry="1" /></g>
<g transform="translate(147.400710 19.592057) rotate(369.269411) scale(20.154215 26.690631)"><ellipse fill="#002100" fill-opacity="0.501961" cx="0" cy="0" rx="1" ry="1" /></g>
<g transform="translate(146.236463 79.009489) rotate(105.438724) scale(18.285329 38.956581)"><ellipse fill="#9b5336" fill-opacity="0.501961" cx="0" cy="0" rx="1" ry="1" /></g>
<ellipse fill="#dbfffe" fill-opacity="0.501961" cx="96" cy="67" rx="10" ry="50" />
<g transform="translate(47.229424 245.907093) rotate(76.504955) scale(11.215199 51.340975)"><ellipse fill="#ffffea" fill-opacity="0.501961" cx="0" cy="0" rx="1" ry="1" /></g>
<polygon fill="#000000" fill-opacity="0.501961" points="115,227 110,239 115,251" />
<ellipse fill="#7cb128" fill-opacity="0.501961" cx="58" cy="97" rx="37" ry="37" />
<g transform="translate(199 250) rotate(297) scale(15 66)"><rect fill="#ffffe5" fill-opacity="0.501961" x="-0.5" y="-0.5" width="1" height="1" /></g>
<ellipse fill="#95c7be" fill-opacity="0.501961" cx="208" cy="143" rx="16" ry="26" />
<ellipse fill="#114600" fill-opacity="0.501961" cx="22" cy="63" rx="29" ry="29" />
<ellipse fill="#003f02" fill-opacity="0.501961" cx="63" cy="1" rx="53" ry="13" />
<g transform="translate(58.336520 203.322856) rotate(141.335564) scale(54.075482 11.953731)"><ellipse fill="#354a84" fill-opacity="0.501961" cx="0" cy="0" rx="1" ry="1" /></g>
<g transform="translate(138.469535 132.298216) rotate(154.786957) scale(15.434936 38.731502)"><ellipse fill="#181501" fill-opacity="0.501961" cx="0" cy="0" rx="1" ry="1" /></g>
<rect fill="#c2f263" fill-opacity="0.501961" x="54" y="43" width="28" height="23" />
<g transform="translate(135.903580 192.049324) rotate(126.699816) scale(11.195419 47.234853)"><ellipse fill="#4c5687" fill-opacity="0.501961" cx="0" cy="0" rx="1" ry="1" /></g>
<ellipse fill="#7caf11" fill-opacity="0.501961" cx="0" cy="139" rx="40" ry="37" />
<polygon fill="#b0e7ff" fill-opacity="0.501961" points="221,57 192,58 207,-16" />
<g transform="translate(170.821022 173.026925) rotate(37.170031) scale(93.070039 14.754418)"><ellipse fill="#070204" fill-opacity="0.501961" cx="0" cy="0" rx="1" ry="1" /></g>
<rect fill="#be3d1b" fill-opacity="0.501961" x="141" y="45" width="22" height="66" />
<rect fill="#71b5eb" fill-opacity="0.501961" x="172" y="40" width="26" height="18" />
<rect fill="#155f00" fill-opacity="0.501961" x="216" y="70" width="13" height="65" />
<rect fill="#519101" fill-opacity="0.501961" x="34" y="10" width="50" height="36" />
<g transform="translate(113.608284 10.944005) rotate(221.367252) scale(29.053345 22.332461)"><ellipse fill="#28657c" fill-opacity="0.501961" cx="0" cy="0" rx="1" ry="1" /></g>
<rect fill="#aae7da" fill-opacity="0.501961" x="204" y="90" width="15" height="20" />
<polygon fill="#e8fccd" fill-opacity="0.501961" points="82,125 92,95 113,99" />
<g transform="translate(124.265631 74.324572) rotate(240.965965) scale(18.200810 14.105286)"><ellipse fill="#379875" fill-opacity="0.501961" cx="0" cy="0" rx="1" ry="1" /></g>
<g transform="translate(198.564396 76.391390) rotate(144.388787) scale(20.666517 12.572701)"><ellipse fill="#124e33" fill-opacity="0.501961" cx="0" cy="0" rx="1" ry="1" /></g>
<g transform="translate(32 107) rotate(257) scale(19 16)"><rect fill="#c4c1a4" fill-opacity="0.501961" x="-0.5" y="-0.5" width="1" height="1" /></g>
<g transform="translate(215.829104 160.660067) rotate(128.119067) scale(7.154055 17.813225)"><ellipse fill="#316f00" fill-opacity="0.501961" cx="0" cy="0" rx="1" ry="1" /></g>
<rect fill="#abdeff" fill-opacity="0.501961" x="79" y="43" width="55" height="20" />
<polygon fill="#e7b7bb" fill-opacity="0.501961" points="184.443830,92.341218,191.533125,116.419336,159.265191,50.155360,164.873754,51.770424" />
<g transform="translate(146.302913 242.409642) rotate(119.945053) scale(19.912131 30.647599)"><ellipse fill="#ffffdf" fill-opacity="0.501961" cx="0" cy="0" rx="1" ry="1" /></g>
<g transform="translate(74.288758 29.368275) rotate(64.019725) scale(20.138184 9.952702)"><ellipse fill="#1c5315" fill-opacity="0.501961" cx="0" cy="0" rx="1" ry="1" /></g>
<ellipse fill="#fffbd6" fill-opacity="0.501961" cx="79" cy="244" rx="32" ry="32" />
<ellipse fill="#75b0e3" fill-opacity="0.501961" cx="124" cy="3" rx="11" ry="11" />
<g transform="translate(200.010089 226.623675) rotate(131.091696) scale(8.360200 36.582617)"><ellipse fill="#1c3581" fill-opacity="0.501961" cx="0" cy="0" rx="1" ry="1" /></g>
<g transform="translate(178.967231 21.698224) rotate(271.499494) scale(10.416652 8.319749)"><ellipse fill="#9bceb6" fill-opacity="0.501961" cx="0" cy="0" rx="1" ry="1" /></g>
<rect fill="#8cbe17" fill-opacity="0.501961" x="41" y="8" width="17" height="45" />
<polygon fill="#430d0c" fill-opacity="0.501961" points="176,139 195,162 188,111" />
<g transform="translate(87 211) rotate(227) scale(10 54)"><rect fill="#f3e0b8" fill-opacity="0.501961" x="-0.5" y="-0.5" width="1" height="1" /></g>
<g transform="translate(117 116) rotate(296) scale(3 56)"><rect fill="#f0d1ae" fill-opacity="0.501961" x="-0.5" y="-0.5" width="1" height="1" /></g>
<ellipse fill="#8ecabb" fill-opacity="0.501961" cx="90" cy="28" rx="8" ry="16" />
</g>
</svg>