<svg xmlns="http://www.w3.org/2000/svg" version="1.1" width="1024" height="680">
<rect x="0" y="0" width="1024" height="680" fill="#5a4e3f" />
<g transform="scale(4.000000) translate(0.5 0.5)">
<ellipse fill="#f5fbf9" fill-opacity="0.501961" cx="234" cy="87" rx="29" ry="29" />
<ellipse fill="#d3b8a0" fill-opacity="0.501961" cx="101" cy="5" rx="58" ry="91" />
<g transform="translate(37.191328 151.776217) rotate(70.569005) scale(124.759351 38.713934)"><ellipse fill="#000000" fill-opacity="0.501961" cx="0" cy="0" rx="1" ry="1" /></g>
<polygon fill="#000009" fill-opacity="0.501961" points="255,185 256,130 48,165" />
<g transform="translate(216.671497 20.900742) rotate(365.407195) scale(55.481812 36.409149)"><ellipse fill="#140400" fill-opacity="0.501961" cx="0" cy="0" rx="1" ry="1" /></g>
<ellipse fill="#ffffff" fill-opacity="0.501961" cx="140" cy="4" rx="17" ry="22" />
<g transform="translate(136.325767 79.757103) rotate(215.015538) scale(27.657561 58.639512)"><ellipse fill="#683d18" fill-opacity="0.501961" cx="0" cy="0" rx="1" ry="1" /></g>
<ellipse fill="#7e8c95" fill-opacity="0.501961" cx="45" cy="26" rx="37" ry="21" />
<polygon fill="#997e5f" fill-opacity="0.501961" points="245,125 113,127 191,64" />
<ellipse fill="#000000" fill-opacity="0.501961" cx="0" cy="148" rx="54" ry="54" />
<ellipse fill="#2d2719" fill-opacity="0.501961" cx="80" cy="130" rx="33" ry="33" />
<g transform="translate(91.728233 4.299586) rotate(300.458052) scale(6.640077 112.691280)"><ellipse fill="#51321b" fill-opacity="0.501961" cx="0" cy="0" rx="1" ry="1" /></g>
<g transform="translate(119 43) rotate(140) scale(27 16)"><rect fill="#fff2dc" fill-opacity="0.501961" x="-0.5" y="-0.5" width="1" height="1" /></g>
<g transform="translate(225.420737 89.388100) rotate(21.101526) scale(27.022787 10.955093)"><ellipse fill="#f0ccaa" fill-opacity="0.501961" cx="0" cy="0" rx="1" ry="1" /></g>
<rect fill="#d2905d" fill-opacity="0.501961" x="57" y="68" width="52" height="27" />
<g transform="translate(143 61) rotate(320) scale(39 9)"><rect fill="#f4b16b" fill-opacity="0.501961" x="-0.5" y="-0.5" width="1" height="1" /></g>
<g transform="translate(255.000000 113.545811) rotate(158.211498) scale(51.910317 13.880543)"><ellipse fill="#55727b" fill-opacity="0.501961" cx="0" cy="0" rx="1" ry="1" /></g>
<polygon fill="#2f250e" fill-opacity="0.501961" points="221.291319,76.439114,168.357394,67.425633,159.094763,44.299524,221.053009,-14.702969" />
<polygon fill="#ffffdb" fill-opacity="0.501961" points="119.462902,5.964395,129.309514,-4.808292,158.348091,12.537964,150.189026,33.318390" />
<ellipse fill="#70797a" fill-opacity="0.501961" cx="57" cy="7" rx="40" ry="40" />
<rect fill="#cbffff" fill-opacity="0.501961" x="227" y="61" width="20" height="14" />
<polygon fill="#c78742" fill-opacity="0.501961" points="52,42 28,58 41,75" />
<g transform="translate(180 87) rotate(361) scale(16 32)"><rect fill="#aba69b" fill-opacity="0.501961" x="-0.5" y="-0.5" width="1" height="1" /></g>
<ellipse fill="#2f1c0e" fill-opacity="0.501961" cx="117" cy="85" rx="6" ry="29" />
<ellipse fill="#81623e" fill-opacity="0.501961" cx="150" cy="109" rx="33" ry="33" />
<polygon fill="#583316" fill-opacity="0.501961" points="113.864218,73.642014,152.040164,53.682460,142.763314,35.405553,97.663929,78.279868" />
<g transform="translate(200 55) rotate(111) scale(13 32)"><rect fill="#856946" fill-opacity="0.501961" x="-0.5" y="-0.5" width="1" height="1" /></g>
<polygon fill="#130100" fill-opacity="0.501961" points="3,64 63,77 -11,96" />
<ellipse fill="#000000" fill-opacity="0.501961" cx="255" cy="76" rx="13" ry="3" />
<g transform="translate(56 98) rotate(236) scale(18 37)"><rect fill="#744c36" fill-opacity="0.501961" x="-0.5" y="-0.5" width="1" height="1" /></g>
<g transform="translate(102.742688 153.981566) rotate(326.184793) scale(29.213905 8.163007)"><ellipse fill="#0c1a1a" fill-opacity="0.501961" cx="0" cy="0" rx="1" ry="1" /></g>
<rect fill="#281f13" fill-opacity="0.501961" x="112" y="96" width="66" height="7" />
<ellipse fill="#3c210f" fill-opacity="0.501961" cx="194" cy="120" rx="6" ry="43" />
<g transform="translate(0 37) rotate(116) scale(22 20)"><rect fill="#000000" fill-opacity="0.501961" x="-0.5" y="-0.5" width="1" height="1" /></g>
<ellipse fill="#dac8b7" fill-opacity="0.501961" cx="112" cy="39" rx="12" ry="11" />
<polygon fill="#81350b" fill-opacity="0.501961" points="138,17 110,22 141,38" />
<g transform="translate(94.489999 81.310383) rotate(155.164485) scale(15.824181 22.768975)"><ellipse fill="#c4946e" fill-opacity="0.501961" cx="0" cy="0" rx="1" ry="1" /></g>
<polygon fill="#091a16" fill-opacity="0.501961" points="38.793674,38.098788,-1.811758,46.700622,30.111958,63.126549,32.304896,40.837562" />
<polygon fill="#6a818a" fill-opacity="0.501961" points="218,128 248,117 199,86" />
<polygon fill="#955f2c" fill-opacity="0.501961" points="157.819587,19.995010,162.121855,3.921015,180.079678,19.999055,127.600794,69.447809" />
<rect fill="#1a1309" fill-opacity="0.501961" x="1" y="61" width="59" height="6" />
<ellipse fill="#422d0d" fill-opacity="0.501961" cx="251" cy="33" rx="29" ry="29" />
<polygon fill="#1f1918" fill-opacity="0.501961" points="89.654119,-12.816771,131.019771,38.262038,105.424024,17.592639,96.363426,3.011610" />
<g transform="translate(231.940959 145.321529) rotate(170.378824) scale(64.193057 8.193965)"><ellipse fill="#000f13" fill-opacity="0.501961" cx="0" cy="0" rx="1" ry="1" /></g>
<ellipse fill="#000400" fill-opacity="0.501961" cx="23" cy="165" rx="52" ry="18" />
<ellipse fill="#99948b" fill-opacity="0.501961" cx="89" cy="48" rx="25" ry="25" />
<ellipse fill="#e1bd97" fill-opacity="0.501961" cx="232" cy="87" rx="34" ry="10" />
<g transform="translate(37.422135 57.639549) rotate(62.311311) scale(2.794504 6.800587)"><ellipse fill="#ffe48c" fill-opacity="0.501961" cx="0" cy="0" rx="1" ry="1" /></g>
<ellipse fill="#634d34" fill-opacity="0.501961" cx="85" cy="135" rx="28" ry="13" />
<rect fill="#a19a95" fill-opacity="0.501961" x="32" y="20" width="29" height="18" />
<polygon fill="#000000" fill-opacity="0.501961" points="123,12 107,-12 108,-1" />
<polygon fill="#140900" fill-opacity="0.501961" points="39,-16 39,4 62,1" />
<g transform="translate(232 64) rotate(37) scale(19 6)"><rect fill="#b2deff" fill-opacity="0.501961" x="-0.5" y="-0.5" width="1" height="1" /></g>
<polygon fill="#2a0c00" fill-opacity="0.501961" points="268,102 271,139 250,95" />
<rect fill="#000200" fill-opacity="0.501961" x="156" y="60" width="31" height="10" />
<ellipse fill="#ae7b50" fill-opacity="0.501961" cx="127" cy="81" rx="4" ry="26" />
<polygon fill="#a0825f" fill-opacity="0.501961" points="187.252970,58.996515,231.688845,71.409654,204.070102,52.054525,190.109656,75.669243" />
<polygon fill="#41210f" fill-opacity="0.501961" points="47.604456,51.644518,51.992175,62.552275,61.146068,59.332018,43.926756,46.618072" />
<g transform="translate(13 124) rotate(92) scale(58 35)"><rect fill="#010500" fill-opacity="0.501961" x="-0.5" y="-0.5" width="1" height="1" /></g>
<polygon fill="#22251a" fill-opacity="0.501961" points="74.981508,121.194800,129.370669,97.845382,26.163639,117.924668,43.044576,156.741799" />
<ellipse fill="#251300" fill-opacity="0.501961" cx="176" cy="4" rx="14" ry="14" />
<polygon fill="#afa79c" fill-opacity="0.501961" points="207,72 224,103 195,73" />
<polygon fill="#1f1b10" fill-opacity="0.501961" points="191,20 197,59 271,-6" />
<polygon fill="#503520" fill-opacity="0.501961" points="135.645232,39.583724,132.227555,62.038610,97.571378,77.437368,117.900674,56.273124" />
<g transform="translate(242 45) rotate(193) scale(17 23)"><rect fill="#774a22" fill-opacity="0.501961" x="-0.5" y="-0.5" width="1" height="1" /></g>
<polygon fill="#814a10" fill-opacity="0.501961" points="-6.417575,89.087650,8.944333,100.370948,-0.537256,98.753431,38.360585,89.295906" />
<polygon fill="#bf8758" fill-opacity="0.501961" points="40,101 63,87 52,86" />
<g transform="translate(146.596180 16.493316) rotate(338.745975) scale(6.205552 13.867354)"><ellipse fill="#ffffde" fill-opacity="0.501961" cx="0" cy="0" rx="1" ry="1" /></g>
<ellipse fill="#737b7e" fill-opacity="0.501961" cx="73" cy="17" rx="28" ry="28" />
<g transform="translate(80 76) rotate(261) scale(3 9)"><rect fill="#040000" fill-opacity="0.501961" x="-0.5" y="-0.5" width="1" height="1" /></g>
<rect fill="#b38c54" fill-opacity="0.501961" x="176" y="93" width="13" height="28" />
<g transform="translate(159 83) rotate(254) scale(30 2)"><rect fill="#9ca3a7" fill-opacity="0.501961" x="-0.5" y="-0.5" width="1" height="1" /></g>
<polygon fill="#f6e5cc" fill-opacity="0.501961" points="23.234801,6.090177,30.650327,0.167163,27.720745,-1.481558,21.659101,-16.000000" />
<g transform="translate(47 70) rotate(367) scale(19 4)"><rect fill="#e9ae6e" fill-opacity="0.501961" x="-0.5" y="-0.5" width="1" height="1" /></g>
<g transform="translate(89 81) rotate(328) scale(18 11)"><rect fill="#f8ba7f" fill-opacity="0.501961" x="-0.5" y="-0.5" width="1" height="1" /></g>
<g transform="translate(17.077520 36.608219) rotate(288.095127) scale(6.220812 3.799537)"><ellipse fill="#b59a80" fill-opacity="0.501961" cx="0" cy="0" rx="1" ry="1" /></g>
<polygon fill="#10150e" fill-opacity="0.501961" points="228.693218,56.785177,264.323960,66.642598,218.072471,0.308684,271.000000,59.773756" />
<g transform="translate(10 11) rotate(37) scale(35 30)"><rect fill="#5c6057" fill-opacity="0.501961" x="-0.5" y="-0.5" width="1" height="1" /></g>
<ellipse fill="#8a4a21" fill-opacity="0.501961" cx="190" cy="73" rx="3" ry="43" />
<g transform="translate(139.427109 28.560611) rotate(215.305980) scale(29.382884 4.650159)"><ellipse fill="#b27747" fill-opacity="0.501961" cx="0" cy="0" rx="1" ry="1" /></g>
<g transform="translate(183 152) rotate(204) scale(26 35)"><rect fill="#1d2a28" fill-opacity="0.501961" x="-0.5" y="-0.5" width="1" height="1" /></g>
<polygon fill="#281f17" fill-opacity="0.501961" points="79.122972,92.132069,85.813695,92.697921,111.153765,127.349863,73.532531,101.986096" />
<ellipse fill="#b37955" fill-opacity="0.501961" cx="106" cy="87" rx="9" ry="12" />
<polygon fill="#ffcd87" fill-opacity="0.501961" points="161,53 154,48 148,58" />
<polygon fill="#b9c2c8" fill-opacity="0.501961" points="147,93 139,80 140,89" />
<rect fill="#71a8d4" fill-opacity="0.501961" x="245" y="64" width="11" height="11" />
<g transform="translate(238.316900 96.695724) rotate(56.988828) scale(12.435372 17.692105)"><ellipse fill="#c3b7a9" fill-opacity="0.501961" cx="0" cy="0" rx="1" ry="1" /></g>
<g transform="translate(210 102) rotate(365) scale(12 15)"><rect fill="#535448" fill-opacity="0.501961" x="-0.5" y="-0.5" width="1" height="1" /></g>
<g transform="translate(233 66) rotate(284) scale(16 15)"><rect fill="#bbdfff" fill-opacity="0.501961" x="-0.5" y="-0.5" width="1" height="1" /></g>
<polygon fill="#d0ab84" fill-opacity="0.501961" points="82.118821,86.928002,60.643711,79.683479,89.045589,73.083612,67.449007,42.557623" />
<g transform="translate(172.040795 44.543024) rotate(84.128566) scale(23.892690 3.922253)"><ellipse fill="#15130d" fill-opacity="0.501961" cx="0" cy="0" rx="1" ry="1" /></g>
<g transform="translate(135 23) rotate(39) scale(1 22)"><rect fill="#7a2e0d" fill-opacity="0.501961" x="-0.5" y="-0.5" width="1" height="1" /></g>
<g transform="translate(146 99) rotate(189) scale(25 7)"><rect fill="#17140a" fill-opacity="0.501961" x="-0.5" y="-0.5" width="1" height="1" /></g>
<rect fill="#8a683e" fill-opacity="0.501961" x="136" y="101" width="37" height="42" />
<polygon fill="#8f6356" fill-opacity="0.501961" points="160.987104,163.353643,189.267695,183.905855,165.018114,180.651966,155.068354,169.285339" />
<g transform="translate(193 68) rotate(358) scale(4 31)"><rect fill="#ba6e32" fill-opacity="0.501961" x="-0.5" y="-0.5" width="1" height="1" /></g>
<g transform="translate(126.530757 169.000000) rotate(179.570836) scale(30.051891 20.893850)"><ellipse fill="#1a2f32" fill-opacity="0.501961" cx="0" cy="0" rx="1" ry="1" /></g>
<polygon fill="#9f6728" fill-opacity="0.501961" points="266.352253,18.714245,240.627420,21.606532,244.171984,24.324488,266.978816,24.453275" />
<rect fill="#221711" fill-opacity="0.501961" x="62" y="84" width="11" height="6" />
<polygon fill="#ffeac9" fill-opacity="0.501961" points="124,47 137,36 111,38" />
</g>
</svg>