<svg xmlns="http://www.w3.org/2000/svg" version="1.1" width="500" height="332">
<rect x="0" y="0" width="500" height="332" fill="#5a4e3f" />
<g transform="scale(1.953125) translate(0.5 0.5)">
<g transform="translate(92.486656 13.281872) rotate(355.435168) scale(67.790275 78.713902)"><ellipse fill="#cbb29a" fill-opacity="0.501961" cx="0" cy="0" rx="1" ry="1" /></g>
<g transform="translate(232.017900 85.379499) rotate(156.211386) scale(29.991188 25.202323)"><ellipse fill="#fcfffb" fill-opacity="0.501961" cx="0" cy="0" rx="1" ry="1" /></g>
<g transform="translate(44.997130 140.178423) rotate(131.680138) scale(57.323815 243.132339)"><ellipse fill="#000000" fill-opacity="0.501961" cx="0" cy="0" rx="1" ry="1" /></g>
<g transform="translate(218.914403 18.843114) rotate(450.574739) scale(38.542420 57.969604)"><ellipse fill="#140500" fill-opacity="0.501961" cx="0" cy="0" rx="1" ry="1" /></g>
<polygon fill="#000008" fill-opacity="0.501961" points="271,127 117,156 254,185" />
<g transform="translate(134.563243 0.000000) rotate(146.617017) scale(14.733733 33.593133)"><ellipse fill="#ffffff" fill-opacity="0.501961" cx="0" cy="0" rx="1" ry="1" /></g>
<g transform="translate(151.693638 92.119568) rotate(114.758254) scale(56.053048 49.832082)"><ellipse fill="#815730" fill-opacity="0.501961" cx="0" cy="0" rx="1" ry="1" /></g>
<g transform="translate(13.808380 137.742161) rotate(344.734139) scale(32.404070 143.615840)"><ellipse fill="#000000" fill-opacity="0.501961" cx="0" cy="0" rx="1" ry="1" /></g>
<g transform="translate(63.876158 97.196624) rotate(-29.496830) scale(14.518247 65.554672)"><ellipse fill="#765231" fill-opacity="0.501961" cx="0" cy="0" rx="1" ry="1" /></g>
<polygon fill="#ffeedb" fill-opacity="0.501961" points="134.785823,40.012673,106.803580,24.823879,106.328706,54.928403,110.369568,61.167806" />
<g transform="translate(131.037578 27.650573) rotate(122.665266) scale(7.343850 83.823163)"><ellipse fill="#523219" fill-opacity="0.501961" cx="0" cy="0" rx="1" ry="1" /></g>
<polygon fill="#8d7d66" fill-opacity="0.501961" points="188,62 122,127 248,125" />
<ellipse fill="#687a83" fill-opacity="0.501961" cx="55" cy="20" rx="50" ry="27" />
<g transform="translate(90 83) rotate(307) scale(23 47)"><rect fill="#e7a571" fill-opacity="0.501961" x="-0.5" y="-0.5" width="1" height="1" /></g>
<polygon fill="#361803" fill-opacity="0.501961" points="110,64 138,39 119,98" />
<polygon fill="#2a1f0e" fill-opacity="0.501961" points="159.002729,37.813249,170.719857,105.749679,155.655064,66.015883,236.262864,78.289827" />
<g transform="translate(233 75) rotate(16) scale(22 33)"><rect fill="#d7e2e7" fill-opacity="0.501961" x="-0.5" y="-0.5" width="1" height="1" /></g>
<polygon fill="#6b8a99" fill-opacity="0.501961" points="221,136 206,97 271,108" />
<g transform="translate(141.097276 10.729225) rotate(109.601780) scale(12.178121 18.010861)"><ellipse fill="#fffbd1" fill-opacity="0.501961" cx="0" cy="0" rx="1" ry="1" /></g>
<polygon fill="#ffbc71" fill-opacity="0.501961" points="154.723610,48.751434,123.352745,77.274991,162.050264,53.194758,157.223459,47.609454" />
<polygon fill="#22241d" fill-opacity="0.501961" points="95.558761,104.030109,20.454332,114.630032,105.221716,126.178926,127.867648,93.485169" />
<polygon fill="#ecc197" fill-opacity="0.501961" points="271.000000,81.722452,247.106318,103.448259,203.501292,92.956381,198.702536,74.609740" />
<polygon fill="#252726" fill-opacity="0.501961" points="271.000000,82.488143,250.219951,104.671243,270.065628,72.571642,228.870817,76.459387" />
<polygon fill="#2d1805" fill-opacity="0.501961" points="9.733250,115.802265,51.959532,48.111890,62.162527,69.034771,-12.175082,58.033233" />
<rect fill="#a4aaac" fill-opacity="0.501961" x="172" y="70" width="16" height="28" />
<g transform="translate(194.920942 113.740484) rotate(83.587476) scale(39.397319 4.601636)"><ellipse fill="#401e0b" fill-opacity="0.501961" cx="0" cy="0" rx="1" ry="1" /></g>
<polygon fill="#504837" fill-opacity="0.501961" points="99,105 51,142 155,164" />
<g transform="translate(212.434632 148.984177) rotate(262.529678) scale(9.879327 160.712988)"><ellipse fill="#071c21" fill-opacity="0.501961" cx="0" cy="0" rx="1" ry="1" /></g>
<polygon fill="#f5b964" fill-opacity="0.501961" points="47.572326,68.742974,37.152657,78.948208,42.452212,55.475333,28.938218,58.306478" />
<polygon fill="#ab8264" fill-opacity="0.501961" points="72.056326,40.181361,58.144146,85.732984,31.039900,104.091927,81.538711,91.670097" />
<g transform="translate(148 99) rotate(96) scale(7 56)"><rect fill="#251707" fill-opacity="0.501961" x="-0.5" y="-0.5" width="1" height="1" /></g>
<polygon fill="#502916" fill-opacity="0.501961" points="143.120215,11.565206,118.790146,31.688215,79.579935,-16.000000,133.408830,31.525990" />
<polygon fill="#271c07" fill-opacity="0.501961" points="64,1 23,6 48,-16" />
<polygon fill="#070a01" fill-opacity="0.501961" points="165.555229,68.336733,190.093051,72.097069,165.261455,40.683275,189.942116,25.364737" />
<polygon fill="#76471b" fill-opacity="0.501961" points="149.818319,55.989636,160.845070,-3.273984,182.617584,22.439596,116.164592,60.942462" />
<rect fill="#c48c5c" fill-opacity="0.501961" x="125" y="64" width="6" height="49" />
<polygon fill="#a29a8f" fill-opacity="0.501961" points="102.184621,18.796027,48.371305,73.832753,107.793584,69.922303,118.451163,50.503485" />
<polygon fill="#c07539" fill-opacity="0.501961" points="194,48 194,82 185,55" />
<g transform="translate(0.261622 134.857340) rotate(313.896421) scale(28.492342 229.003821)"><ellipse fill="#000700" fill-opacity="0.501961" cx="0" cy="0" rx="1" ry="1" /></g>
<polygon fill="#fff9d7" fill-opacity="0.501961" points="158.403310,1.679465,133.280676,8.166511,148.263548,32.385687,150.962562,33.943647" />
<polygon fill="#1c1808" fill-opacity="0.501961" points="222.305033,47.907825,226.085576,3.977341,169.019671,33.755811,271.000000,71.519124" />
<g transform="translate(16.317629 92.936520) rotate(169.618875) scale(26.067690 1.000000)"><ellipse fill="#ab831a" fill-opacity="0.501961" cx="0" cy="0" rx="1" ry="1" /></g>
<polygon fill="#182923" fill-opacity="0.501961" points="20.013738,67.241317,-16.000000,50.951252,35.383999,38.488101,39.935920,39.336344" />
<polygon fill="#9c9288" fill-opacity="0.501961" points="130.139439,30.210686,30.367676,38.627442,15.386171,43.625319,10.418258,25.898906" />
<g transform="translate(208 60) rotate(51) scale(10 13)"><rect fill="#b69d6b" fill-opacity="0.501961" x="-0.5" y="-0.5" width="1" height="1" /></g>
<polygon fill="#1b120d" fill-opacity="0.501961" points="128.992921,-16.000000,88.470913,-14.898755,126.451057,14.965863,98.895179,-16.000000" />
<polygon fill="#c18c61" fill-opacity="0.501961" points="99.905957,-0.368710,108.991632,10.549145,149.382828,38.052690,158.714754,36.737414" />
<polygon fill="#050200" fill-opacity="0.501961" points="42.255987,54.451363,59.216683,81.288039,4.076083,84.035285,52.777387,73.154701" />
<polygon fill="#fee9cd" fill-opacity="0.501961" points="124,48 137,36 113,29" />
<polygon fill="#976023" fill-opacity="0.501961" points="251,57 232,54 243,35" />
<ellipse fill="#b5edff" fill-opacity="0.501961" cx="237" cy="68" rx="11" ry="8" />
<rect fill="#575d57" fill-opacity="0.501961" x="205" y="95" width="12" height="41" />
<polygon fill="#ffffff" fill-opacity="0.501961" points="28,3 33,-12 8,-9" />
<polygon fill="#947141" fill-opacity="0.501961" points="157.503093,142.525882,165.149871,144.385754,195.969240,102.475904,125.431597,120.983573" />
<g transform="translate(66 81) rotate(262) scale(1 44)"><rect fill="#fdbc82" fill-opacity="0.501961" x="-0.5" y="-0.5" width="1" height="1" /></g>
<polygon fill="#2f2107" fill-opacity="0.501961" points="176.079972,-16.000000,271.000000,41.469343,271.000000,65.548786,159.205990,4.061171" />
<polygon fill="#32352f" fill-opacity="0.501961" points="181.037876,159.125058,205.733593,121.915069,172.336471,135.364781,107.641727,185.000000" />
<polygon fill="#000000" fill-opacity="0.501961" points="12,32 10,50 -16,13" />
<polygon fill="#021015" fill-opacity="0.501961" points="110.954401,14.309394,111.014284,24.841450,84.789932,-16.000000,96.732018,-1.902367" />
<polygon fill="#2e2b20" fill-opacity="0.501961" points="37,154 35,102 105,102" />
<polygon fill="#6b5238" fill-opacity="0.501961" points="60.979600,141.468042,156.313707,131.693259,96.878637,124.357437,85.577277,112.759015" />
<ellipse fill="#0a0904" fill-opacity="0.501961" cx="169" cy="63" rx="15" ry="5" />
<polygon fill="#fabe64" fill-opacity="0.501961" points="36.120040,52.351216,32.403614,60.516415,31.470946,61.438857,51.443310,54.445321" />
<polygon fill="#000000" fill-opacity="0.501961" points="247,76 271,71 271,81" />
<polygon fill="#696c66" fill-opacity="0.501961" points="-5.097841,23.418048,-4.432096,0.028295,31.090782,21.854359,30.796766,35.703882" />
<polygon fill="#b6b3af" fill-opacity="0.501961" points="246.751016,105.063315,235.576062,116.965061,195.723365,75.446401,202.933166,72.611736" />
<polygon fill="#51382e" fill-opacity="0.501961" points="57.182127,115.993503,78.374107,74.669325,87.693044,74.014472,31.212589,109.445537" />
<polygon fill="#0f1917" fill-opacity="0.501961" points="213.270227,74.892920,271.000000,78.668832,218.140299,74.155487,194.937168,66.462242" />
<polygon fill="#b19c87" fill-opacity="0.501961" points="146.747082,94.742384,140.475239,81.994667,126.545344,84.163090,132.085198,79.075129" />
<polygon fill="#8a4319" fill-opacity="0.501961" points="123.609116,31.479287,136.713874,17.693922,145.339974,49.519613,117.548831,2.652083" />
<polygon fill="#413620" fill-opacity="0.501961" points="24.776805,9.277956,25.758943,20.781582,31.231713,2.649181,-16.000000,2.625490" />
<g transform="translate(115 11) rotate(127) scale(3 10)"><rect fill="#dfe6e2" fill-opacity="0.501961" x="-0.5" y="-0.5" width="1" height="1" /></g>
<polygon fill="#221e16" fill-opacity="0.501961" points="120.404957,84.682737,100.041769,112.532815,122.654507,103.953409,125.718738,94.692291" />
<g transform="translate(85 84) rotate(252) scale(15 18)"><rect fill="#f4b57b" fill-opacity="0.501961" x="-0.5" y="-0.5" width="1" height="1" /></g>
<polygon fill="#9f6230" fill-opacity="0.501961" points="153,50 155,20 168,18" />
<polygon fill="#5b3f1f" fill-opacity="0.501961" points="182,60 177,38 205,37" />
<ellipse fill="#ffffff" fill-opacity="0.501961" cx="11" cy="0" rx="2" ry="2" />
<polygon fill="#949ca4" fill-opacity="0.501961" points="158,79 161,97 168,97" />
<g transform="translate(58 74) rotate(202) scale(39 1)"><rect fill="#f2b272" fill-opacity="0.501961" x="-0.5" y="-0.5" width="1" height="1" /></g>
<polygon fill="#495855" fill-opacity="0.501961" points="211.430086,140.037814,271.000000,129.423058,252.624674,111.487351,207.346387,141.656034" />
<polygon fill="#170000" fill-opacity="0.501961" points="51.696403,90.196226,37.270486,97.736376,40.175027,71.688637,40.939743,83.386571" />
<rect fill="#639cc6" fill-opacity="0.501961" x="247" y="64" width="9" height="11" />
<polygon fill="#51341e" fill-opacity="0.501961" points="142.206360,41.034996,133.450804,61.431043,111.259468,75.555137,99.154756,74.427664" />
<polygon fill="#b1754d" fill-opacity="0.501961" points="93,58 117,88 102,104" />
<polygon fill="#bfa798" fill-opacity="0.501961" points="163.977398,-16.000000,156.214527,9.790096,99.880214,-16.000000,121.971870,7.304171" />
<g transform="translate(239.926461 144.430891) rotate(168.082358) scale(36.967495 8.550480)"><ellipse fill="#070c0b" fill-opacity="0.501961" cx="0" cy="0" rx="1" ry="1" /></g>
<polygon fill="#e0a465" fill-opacity="0.501961" points="153,53 122,70 132,74" />
<polygon fill="#7a5732" fill-opacity="0.501961" points="156.417458,102.806707,114.460320,111.634391,170.528656,124.615267,175.582307,90.789464" />
<rect fill="#9e6720" fill-opacity="0.501961" x="240" y="20" width="16" height="5" />
<polygon fill="#7b858d" fill-opacity="0.501961" points="30.328718,-6.344617,78.550817,45.228962,71.830936,-13.995337,37.946078,39.291508" />
<g transform="translate(237 35) rotate(123) scale(10 36)"><rect fill="#643c1a" fill-opacity="0.501961" x="-0.5" y="-0.5" width="1" height="1" /></g>
<polygon fill="#58403b" fill-opacity="0.501961" points="243,185 200,155 163,185" />
<polygon fill="#d0b190" fill-opacity="0.501961" points="185.049243,86.822985,200.728155,84.022103,198.732460,95.334639,271.000000,88.125773" />
<polygon fill="#000000" fill-opacity="0.501961" points="269.883458,57.205061,271.000000,70.765813,271.000000,66.674631,238.742606,59.713627" />
<polygon fill="#1e1d16" fill-opacity="0.501961" points="73,97 109,104 108,125" />
<polygon fill="#814f35" fill-opacity="0.501961" points="126.624509,21.294772,143.540415,39.243012,130.342198,35.712288,124.597689,38.454684" />
<g transform="translate(182 109) rotate(282) scale(23 10)"><rect fill="#b69053" fill-opacity="0.501961" x="-0.5" y="-0.5" width="1" height="1" /></g>
<polygon fill="#a8afb3" fill-opacity="0.501961" points="137,79 146,94 141,93" />
<polygon fill="#85553e" fill-opacity="0.501961" points="76.508666,96.780916,108.459572,102.199039,74.753828,86.368963,41.827910,115.832168" />
<polygon fill="#401902" fill-opacity="0.501961" points="53.577512,67.371010,34.196533,67.499133,53.805240,51.835125,48.794916,80.687456" />
<g transform="translate(137.455016 9.552305) rotate(156.156379) scale(11.040213 6.307036)"><ellipse fill="#ffffeb" fill-opacity="0.501961" cx="0" cy="0" rx="1" ry="1" /></g>
<polygon fill="#0b0a02" fill-opacity="0.501961" points="209.110899,7.325872,130.798095,-7.478589,188.352710,5.359371,165.326864,17.400859" />
<rect fill="#191609" fill-opacity="0.501961" x="168" y="24" width="15" height="23" />
<g transform="translate(223.494600 66.080017) rotate(43.549145) scale(5.540342 7.712172)"><ellipse fill="#7896a7" fill-opacity="0.501961" cx="0" cy="0" rx="1" ry="1" /></g>
<polygon fill="#0a0400" fill-opacity="0.501961" points="251.625142,98.342288,252.602661,101.101779,253.491562,106.937285,271.000000,103.981282" />
<polygon fill="#72828a" fill-opacity="0.501961" points="102.197342,13.877805,120.022517,31.632398,89.468300,22.924335,85.033547,-12.538198" />
<polygon fill="#000f0f" fill-opacity="0.501961" points="249,34 226,6 213,10" />
<polygon fill="#283030" fill-opacity="0.501961" points="101.098368,182.159503,185.216183,148.959535,91.024555,153.138713,130.812652,122.680396" />
<polygon fill="#6f6757" fill-opacity="0.501961" points="38.994335,52.621437,30.425385,62.224894,29.331717,38.083410,63.211631,36.673510" />
<g transform="translate(153 55) rotate(53) scale(2 19)"><rect fill="#ffd08d" fill-opacity="0.501961" x="-0.5" y="-0.5" width="1" height="1" /></g>
<polygon fill="#150f06" fill-opacity="0.501961" points="225.920113,49.568058,203.385988,41.717378,189.322548,45.161785,249.030413,62.307308" />
<g transform="translate(146 98) rotate(9) scale(28 5)"><rect fill="#0b0c07" fill-opacity="0.501961" x="-0.5" y="-0.5" width="1" height="1" /></g>
<polygon fill="#0c110c" fill-opacity="0.501961" points="24,135 54,109 81,109" />
<polygon fill="#b0dcff" fill-opacity="0.501961" points="232,69 225,56 236,59" />
<polygon fill="#5e3016" fill-opacity="0.501961" points="187,85 199,126 198,79" />
<polygon fill="#08100c" fill-opacity="0.501961" points="31.747990,65.528963,11.032723,45.784721,31.590894,39.182098,15.229540,67.204998" />
<g transform="translate(22 92) rotate(255) scale(1 23)"><rect fill="#bba721" fill-opacity="0.501961" x="-0.5" y="-0.5" width="1" height="1" /></g>
<polygon fill="#412a1e" fill-opacity="0.501961" points="61,82 65,92 76,85" />
<polygon fill="#190500" fill-opacity="0.501961" points="45,5 58,-16 23,-16" />
<ellipse fill="#6b665a" fill-opacity="0.501961" cx="84" cy="18" rx="5" ry="27" />
<polygon fill="#3f291a" fill-opacity="0.501961" points="158,88 145,68 152,62" />
<ellipse fill="#c06210" fill-opacity="0.501961" cx="168" cy="10" rx="4" ry="4" />
<polygon fill="#080a00" fill-opacity="0.501961" points="197,65 194,59 201,50" />
<polygon fill="#834522" fill-opacity="0.501961" points="140.961719,43.780018,136.211423,15.993452,142.630350,15.727281,127.322191,26.972233" />
<polygon fill="#594126" fill-opacity="0.501961" points="193,10 176,21 203,29" />
<polygon fill="#140000" fill-opacity="0.501961" points="81,77 74,77 87,73" />
<g transform="translate(150 40) rotate(150) scale(36 13)"><rect fill="#8e5526" fill-opacity="0.501961" x="-0.5" y="-0.5" width="1" height="1" /></g>
<polygon fill="#bed7f3" fill-opacity="0.501961" points="232,105 226,97 241,100" />
<g transform="translate(168 48) rotate(348) scale(1 52)"><rect fill="#874923" fill-opacity="0.501961" x="-0.5" y="-0.5" width="1" height="1" /></g>
<polygon fill="#b07952" fill-opacity="0.501961" points="47.310128,95.139845,57.598567,85.972452,73.219332,95.154696,63.935443,93.674118" />
<polygon fill="#ffffdc" fill-opacity="0.501961" points="139.665337,19.497041,151.431796,35.000545,153.351748,13.147736,145.877306,15.535039" />
<g transform="translate(13.025248 113.456534) rotate(301.768301) scale(17.869353 25.816474)"><ellipse fill="#090907" fill-opacity="0.501961" cx="0" cy="0" rx="1" ry="1" /></g>
<polygon fill="#3f484a" fill-opacity="0.501961" points="62.202943,59.940017,59.749164,74.135737,54.544146,63.928616,53.554076,56.756583" />
<polygon fill="#7e3314" fill-opacity="0.501961" points="5.264895,98.860591,8.476432,80.191584,4.623950,88.128178,-0.566717,91.570634" />
<polygon fill="#000001" fill-opacity="0.501961" points="50,105 55,99 43,101" />
<polygon fill="#cbb496" fill-opacity="0.501961" points="77.077532,73.771458,74.575296,57.050421,58.787348,47.656973,94.256291,73.557112" />
<g transform="translate(26 67) rotate(66) scale(1 14)"><rect fill="#b87233" fill-opacity="0.501961" x="-0.5" y="-0.5" width="1" height="1" /></g>
<polygon fill="#000401" fill-opacity="0.501961" points="27,73 48,81 1,85" />
<g transform="translate(148.073157 49.667788) rotate(331.392970) scale(1.936444 5.075804)"><ellipse fill="#251d14" fill-opacity="0.501961" cx="0" cy="0" rx="1" ry="1" /></g>
<polygon fill="#7c8a8b" fill-opacity="0.501961" points="229.669440,122.167275,212.448684,113.607733,250.061259,103.333900,255.790941,107.445431" />
<polygon fill="#937245" fill-opacity="0.501961" points="193.379775,111.425783,133.458079,102.346476,169.132160,148.027585,128.466159,115.465116" />
<polygon fill="#0f1410" fill-opacity="0.501961" points="220.996585,21.229054,244.923065,9.138859,216.507149,-16.000000,271.000000,7.260448" />
<g transform="translate(153 92) rotate(146) scale(1 12)"><rect fill="#8a9eaf" fill-opacity="0.501961" x="-0.5" y="-0.5" width="1" height="1" /></g>
<rect fill="#fff8d8" fill-opacity="0.501961" x="142" y="32" width="4" height="3" />
<polygon fill="#a7a094" fill-opacity="0.501961" points="106,70 119,53 96,18" />
<polygon fill="#9b9083" fill-opacity="0.501961" points="14.343292,36.968657,11.339396,44.701026,65.486922,27.274500,58.149303,37.817082" />
<polygon fill="#514337" fill-opacity="0.501961" points="35.777858,119.876401,58.850519,108.702359,29.957106,104.050957,37.869657,93.731597" />
<polygon fill="#131e20" fill-opacity="0.501961" points="161,185 186,133 207,147" />
<rect fill="#ffffa2" fill-opacity="0.501961" x="33" y="58" width="9" height="3" />
<polygon fill="#232920" fill-opacity="0.501961" points="231.206270,77.065810,197.773785,66.655162,193.411276,67.260764,202.305963,72.606232" />
<g transform="translate(188.906274 47.102870) rotate(183.136872) scale(4.194859 14.132641)"><ellipse fill="#6b482c" fill-opacity="0.501961" cx="0" cy="0" rx="1" ry="1" /></g>
<polygon fill="#120b00" fill-opacity="0.501961" points="-8,-16 16,7 -16,-7" />
<polygon fill="#9e6d47" fill-opacity="0.501961" points="135.318431,94.103453,133.272913,63.028937,87.280376,96.595063,113.659169,76.182886" />
<g transform="translate(172.968348 81.172216) rotate(112.492782) scale(11.923957 5.436348)"><ellipse fill="#9b8a7b" fill-opacity="0.501961" cx="0" cy="0" rx="1" ry="1" /></g>
<polygon fill="#5b432a" fill-opacity="0.501961" points="85.823968,121.781042,174.268797,93.395081,180.488102,108.618541,141.451726,99.241044" />
<rect fill="#0c0600" fill-opacity="0.501961" x="162" y="14" width="23" height="4" />
<polygon fill="#9b6530" fill-opacity="0.501961" points="261.032316,55.858375,271.000000,60.537688,240.415151,57.115772,232.475952,50.657169" />
<rect fill="#d9731f" fill-opacity="0.501961" x="40" y="51" width="9" height="7" />
<polygon fill="#7e868d" fill-opacity="0.501961" points="65.692555,30.735093,47.884826,-16.000000,53.783008,-16.000000,41.672105,32.707544" />
<ellipse fill="#3a200e" fill-opacity="0.501961" cx="163" cy="60" rx="3" ry="30" />
<g transform="translate(170 0) rotate(288) scale(15 12)"><rect fill="#000300" fill-opacity="0.501961" x="-0.5" y="-0.5" width="1" height="1" /></g>
<polygon fill="#020707" fill-opacity="0.501961" points="87.005991,185.000000,-16.000000,150.660937,29.968730,157.395778,84.378051,157.465638" />
<polygon fill="#fcefdb" fill-opacity="0.501961" points="37.659548,-5.037763,35.218612,-6.500070,25.881067,4.536517,10.288615,-14.919263" />
<polygon fill="#e8c8af" fill-opacity="0.501961" points="156.620105,7.332622,102.875593,-15.959136,147.255348,9.584189,158.889022,23.426088" />
<polygon fill="#232423" fill-opacity="0.501961" points="123.845516,16.321172,104.647402,-16.000000,99.182671,12.626058,97.656433,-16.000000" />
<g transform="translate(141 53) rotate(311) scale(2 6)"><rect fill="#ffea9c" fill-opacity="0.501961" x="-0.5" y="-0.5" width="1" height="1" /></g>
<rect fill="#373021" fill-opacity="0.501961" x="45" y="140" width="74" height="14" />
<rect fill="#b2a291" fill-opacity="0.501961" x="200" y="74" width="14" height="21" />
<polygon fill="#ddbb98" fill-opacity="0.501961" points="247.601594,78.697176,208.959301,75.259764,214.391952,95.698916,271.000000,94.735995" />
<polygon fill="#c0a98a" fill-opacity="0.501961" points="48.530670,50.651923,80.136636,55.409457,79.097326,72.593654,70.480010,46.997920" />
<polygon fill="#3c2612" fill-opacity="0.501961" points="133.740764,80.744884,139.307182,68.473100,223.943504,37.458389,152.117993,63.117526" />
<polygon fill="#6f8894" fill-opacity="0.501961" points="111.164466,11.529688,100.960928,2.597600,102.000692,-4.294422,115.748794,8.333638" />
<polygon fill="#b97640" fill-opacity="0.501961" points="161.393137,58.729557,134.799806,64.811480,152.412955,61.017187,161.912292,47.934695" />
<rect fill="#000000" fill-opacity="0.501961" x="78" y="99" width="11" height="4" />
<rect fill="#836361" fill-opacity="0.501961" x="127" y="168" width="16" height="2" />
<g transform="translate(167.971683 21.293287) rotate(87.557571) scale(2.946476 14.612828)"><ellipse fill="#786348" fill-opacity="0.501961" cx="0" cy="0" rx="1" ry="1" /></g>
<polygon fill="#000801" fill-opacity="0.501961" points="13.113707,46.061872,-16.000000,40.982872,-5.206198,25.611514,11.399270,29.624600" />
<polygon fill="#54481e" fill-opacity="0.501961" points="209.952073,8.091973,268.777052,-8.865402,208.688990,2.247777,195.690934,21.058970" />
<polygon fill="#6c6a62" fill-opacity="0.501961" points="30,8 -9,18 33,38" />
<polygon fill="#64462d" fill-opacity="0.501961" points="194.939818,112.810972,155.451194,150.074747,202.227623,127.770179,195.596820,137.807601" />
<polygon fill="#111203" fill-opacity="0.501961" points="249,51 267,54 253,23" />
<polygon fill="#dca472" fill-opacity="0.501961" points="74,94 76,78 104,77" />
<polygon fill="#e9d0b9" fill-opacity="0.501961" points="119,53 126,28 111,41" />
<polygon fill="#7b612d" fill-opacity="0.501961" points="234,14 237,3 229,5" />
<polygon fill="#2f3123" fill-opacity="0.501961" points="19,52 -16,83 -4,41" />
<polygon fill="#66503a" fill-opacity="0.501961" points="175.320908,127.696978,123.709332,155.676221,131.237762,100.304491,103.872672,140.198156" />
<polygon fill="#7e6741" fill-opacity="0.501961" points="217,68 220,60 195,45" />
<rect fill="#000706" fill-opacity="0.501961" x="175" y="61" width="12" height="9" />
<polygon fill="#13140c" fill-opacity="0.501961" points="218.008580,60.239060,231.683133,53.215145,172.550065,22.295140,211.778126,31.930912" />
<polygon fill="#8c7b6a" fill-opacity="0.501961" points="77.696088,80.458988,75.010408,60.211971,64.771780,53.645211,66.389661,73.467312" />
<polygon fill="#2d190c" fill-opacity="0.501961" points="142,58 137,45 137,54" />
<polygon fill="#653c1f" fill-opacity="0.501961" points="162,74 171,78 166,60" />
<rect fill="#4c2b17" fill-opacity="0.501961" x="118" y="77" width="24" height="2" />
<g transform="translate(142 73) rotate(249) scale(21 1)"><rect fill="#af9577" fill-opacity="0.501961" x="-0.5" y="-0.5" width="1" height="1" /></g>
<polygon fill="#7b5e3d" fill-opacity="0.501961" points="94,111 78,136 93,135" />
<polygon fill="#332518" fill-opacity="0.501961" points="114.263294,71.621919,115.591979,87.645132,105.621011,114.651797,122.015644,85.952158" />
<g transform="translate(118 90) rotate(192) scale(5 3)"><rect fill="#c8ae88" fill-opacity="0.501961" x="-0.5" y="-0.5" width="1" height="1" /></g>
<g transform="translate(162 169) rotate(12) scale(9 7)"><rect fill="#905852" fill-opacity="0.501961" x="-0.5" y="-0.5" width="1" height="1" /></g>
<g transform="translate(145 50) rotate(335) scale(1 9)"><rect fill="#e4ad74" fill-opacity="0.501961" x="-0.5" y="-0.5" width="1" height="1" /></g>
<ellipse fill="#ffff46" fill-opacity="0.501961" cx="161" cy="140" rx="2" ry="2" />
<polygon fill="#c3e2ff" fill-opacity="0.501961" points="239,61 226,73 250,75" />
<rect fill="#636b66" fill-opacity="0.501961" x="208" y="96" width="12" height="39" />
<g transform="translate(232.373039 165.441155) rotate(286.319485) scale(14.889637 5.535890)"><ellipse fill="#4d2e25" fill-opacity="0.501961" cx="0" cy="0" rx="1" ry="1" /></g>
<g transform="translate(192 86) rotate(290) scale(1 9)"><rect fill="#c99964" fill-opacity="0.501961" x="-0.5" y="-0.5" width="1" height="1" /></g>
<polygon fill="#ffffd2" fill-opacity="0.501961" points="147,26 137,26 154,17" />
<polygon fill="#f7f6e3" fill-opacity="0.501961" points="115.559079,0.910871,132.369977,20.010976,149.219568,6.843343,125.174917,13.205424" />
<polygon fill="#131812" fill-opacity="0.501961" points="104.391224,143.918104,126.389964,142.379976,118.606502,138.867915,127.600789,132.722593" />
<polygon fill="#171610" fill-opacity="0.501961" points="172.785905,72.534839,160.971205,33.634746,163.773378,58.823052,163.207581,57.302739" />
<g transform="translate(19 91) rotate(259) scale(1 9)"><rect fill="#98686f" fill-opacity="0.501961" x="-0.5" y="-0.5" width="1" height="1" /></g>
<polygon fill="#ab7a4f" fill-opacity="0.501961" points="131.290629,99.711568,123.752501,85.409758,139.348717,67.009186,117.477102,119.012129" />
<g transform="translate(155 47) rotate(336) scale(1 14)"><rect fill="#e4ab6e" fill-opacity="0.501961" x="-0.5" y="-0.5" width="1" height="1" /></g>
<polygon fill="#6a5333" fill-opacity="0.501961" points="155.508033,52.456803,174.270406,56.353215,202.232916,69.905949,216.315995,64.153438" />
<polygon fill="#020000" fill-opacity="0.501961" points="185,49 186,45 176,52" />
<rect fill="#be7a42" fill-opacity="0.501961" x="190" y="55" width="4" height="17" />
<polygon fill="#000100" fill-opacity="0.501961" points="45,72 61,79 44,79" />
<g transform="translate(93 36) rotate(195) scale(15 40)"><rect fill="#8c8884" fill-opacity="0.501961" x="-0.5" y="-0.5" width="1" height="1" /></g>
<g transform="translate(239 48) rotate(72) scale(3 18)"><rect fill="#7d552a" fill-opacity="0.501961" x="-0.5" y="-0.5" width="1" height="1" /></g>
<g transform="translate(40 63) rotate(123) scale(1 12)"><rect fill="#5b3521" fill-opacity="0.501961" x="-0.5" y="-0.5" width="1" height="1" /></g>
<polygon fill="#492f19" fill-opacity="0.501961" points="175.009414,63.641031,155.967124,46.429177,147.085785,34.266919,159.603042,44.347086" />
<g transform="translate(40 99) rotate(77) scale(1 26)"><rect fill="#89583a" fill-opacity="0.501961" x="-0.5" y="-0.5" width="1" height="1" /></g>
<polygon fill="#0a0700" fill-opacity="0.501961" points="50,60 48,67 43,57" />
<polygon fill="#fffad6" fill-opacity="0.501961" points="126,38 134,36 133,42" />
<ellipse fill="#000000" fill-opacity="0.501961" cx="250" cy="76" rx="11" ry="1" />
<polygon fill="#50412e" fill-opacity="0.501961" points="51.976551,133.571335,95.076038,109.550482,106.227034,117.982567,135.719094,103.455756" />
<g transform="translate(160 4) rotate(12) scale(1 19)"><rect fill="#2a2c27" fill-opacity="0.501961" x="-0.5" y="-0.5" width="1" height="1" /></g>
<polygon fill="#150200" fill-opacity="0.501961" points="34,99 16,98 52,84" />
<g transform="translate(198 127) rotate(111) scale(2 8)"><rect fill="#000601" fill-opacity="0.501961" x="-0.5" y="-0.5" width="1" height="1" /></g>
<g transform="translate(128 21) rotate(331) scale(1 21)"><rect fill="#c96e2d" fill-opacity="0.501961" x="-0.5" y="-0.5" width="1" height="1" /></g>
<polygon fill="#6f422d" fill-opacity="0.501961" points="58.382515,109.348232,63.487772,102.507028,77.506632,110.212932,78.758354,103.139011" />
<polygon fill="#3d2617" fill-opacity="0.501961" points="115,61 123,51 126,65" />
<g transform="translate(133.427087 91.197892) rotate(284.925875) scale(1.863273 4.239413)"><ellipse fill="#95887c" fill-opacity="0.501961" cx="0" cy="0" rx="1" ry="1" /></g>
<polygon fill="#1f170f" fill-opacity="0.501961" points="247.796428,109.810290,260.101475,185.000000,213.792159,185.000000,250.912322,162.514312" />
<ellipse fill="#fffea2" fill-opacity="0.501961" cx="36" cy="58" rx="4" ry="2" />
<g transform="translate(78 83) rotate(208) scale(36 5)"><rect fill="#daa777" fill-opacity="0.501961" x="-0.5" y="-0.5" width="1" height="1" /></g>
<g transform="translate(246 59) rotate(105) scale(1 26)"><rect fill="#000300" fill-opacity="0.501961" x="-0.5" y="-0.5" width="1" height="1" /></g>
<ellipse fill="#110100" fill-opacity="0.501961" cx="36" cy="85" rx="28" ry="1" />
<polygon fill="#6d412a" fill-opacity="0.501961" points="83,97 73,91 98,95" />
<ellipse fill="#091006" fill-opacity="0.501961" cx="197" cy="62" rx="2" ry="11" />
<polygon fill="#081110" fill-opacity="0.501961" points="0.457509,68.084661,30.109702,64.785596,27.661421,35.951441,25.710310,63.038590" />
<polygon fill="#010d06" fill-opacity="0.501961" points="222,36 238,39 234,45" />
<g transform="translate(15 68) rotate(245) scale(4 32)"><rect fill="#000804" fill-opacity="0.501961" x="-0.5" y="-0.5" width="1" height="1" /></g>
<g transform="translate(158 81) rotate(339) scale(1 13)"><rect fill="#909597" fill-opacity="0.501961" x="-0.5" y="-0.5" width="1" height="1" /></g>
<polygon fill="#c5a98c" fill-opacity="0.501961" points="250.888780,96.071490,233.652484,98.456688,239.916461,78.289948,251.338054,113.702434" />
<polygon fill="#896348" fill-opacity="0.501961" points="117.593128,129.060391,132.697127,106.788664,109.059709,134.842903,116.853327,110.743445" />
<ellipse fill="#ecdbc8" fill-opacity="0.501961" cx="117" cy="13" rx="3" ry="2" />
<g transform="translate(58 88) rotate(236) scale(2 7)"><rect fill="#f6b877" fill-opacity="0.501961" x="-0.5" y="-0.5" width="1" height="1" /></g>
<polygon fill="#a37458" fill-opacity="0.501961" points="87.607588,100.359886,98.103598,103.616505,110.880549,97.503622,86.168673,100.432389" />
<g transform="translate(45 96) rotate(241) scale(1 22)"><rect fill="#b88054" fill-opacity="0.501961" x="-0.5" y="-0.5" width="1" height="1" /></g>
<polygon fill="#c39662" fill-opacity="0.501961" points="151.798527,18.273854,143.689671,35.571797,153.993419,56.920153,145.323841,32.337156" />
<rect fill="#0c1205" fill-opacity="0.501961" x="173" y="98" width="2" height="10" />
<g transform="translate(45 104) rotate(182) scale(10 4)"><rect fill="#000506" fill-opacity="0.501961" x="-0.5" y="-0.5" width="1" height="1" /></g>
<g transform="translate(188 15) rotate(315) scale(11 1)"><rect fill="#ab7534" fill-opacity="0.501961" x="-0.5" y="-0.5" width="1" height="1" /></g>
<polygon fill="#492810" fill-opacity="0.501961" points="143.119453,84.799177,144.555142,88.015108,143.557957,79.529729,133.955224,67.602478" />
<polygon fill="#af8755" fill-opacity="0.501961" points="149,140 148,147 144,148" />
<g transform="translate(182 107) rotate(146) scale(8 20)"><rect fill="#9e7c4b" fill-opacity="0.501961" x="-0.5" y="-0.5" width="1" height="1" /></g>
<g transform="translate(192 17) rotate(355) scale(1 70)"><rect fill="#12130c" fill-opacity="0.501961" x="-0.5" y="-0.5" width="1" height="1" /></g>
<polygon fill="#1a150c" fill-opacity="0.501961" points="123,103 120,86 126,98" />
<g transform="translate(151 77) rotate(249) scale(30 1)"><rect fill="#3c200e" fill-opacity="0.501961" x="-0.5" y="-0.5" width="1" height="1" /></g>
<polygon fill="#613a25" fill-opacity="0.501961" points="133.428070,26.047616,143.418335,36.802331,122.519996,33.411106,140.380903,29.596371" />
<rect fill="#1d0500" fill-opacity="0.501961" x="137" y="86" width="2" height="10" />
<polygon fill="#292d28" fill-opacity="0.501961" points="101.055893,110.967983,100.711746,126.243612,95.385623,133.010243,115.349288,124.727872" />
<polygon fill="#291b0f" fill-opacity="0.501961" points="89.326855,-6.620140,112.846360,14.139306,116.103353,24.715002,110.650545,20.422930" />
<polygon fill="#4a2f1a" fill-opacity="0.501961" points="193.018018,38.919502,162.782664,29.241883,152.797236,20.124689,179.668135,31.411460" />
<polygon fill="#391007" fill-opacity="0.501961" points="10.199963,105.732468,12.683921,89.177514,72.436393,74.918772,-14.987287,98.858168" />
<g transform="translate(51 53) rotate(140) scale(2 7)"><rect fill="#2b1002" fill-opacity="0.501961" x="-0.5" y="-0.5" width="1" height="1" /></g>
<g transform="translate(129 94) rotate(195) scale(3 27)"><rect fill="#b8885a" fill-opacity="0.501961" x="-0.5" y="-0.5" width="1" height="1" /></g>
<polygon fill="#614b33" fill-opacity="0.501961" points="159.142242,114.709828,205.751884,135.301423,145.052144,115.065846,84.596314,100.721557" />
<rect fill="#fffbe3" fill-opacity="0.501961" x="138" y="19" width="20" height="2" />
<polygon fill="#151b11" fill-opacity="0.501961" points="199.775374,72.383915,212.649166,68.207942,213.343550,75.851684,197.562799,69.001084" />
<polygon fill="#95744b" fill-opacity="0.501961" points="166.976422,133.747796,125.566858,125.046879,133.548034,113.428085,170.545848,129.196346" />
<g transform="translate(159.236391 57.055142) rotate(226.528346) scale(1.756280 4.854215)"><ellipse fill="#b47744" fill-opacity="0.501961" cx="0" cy="0" rx="1" ry="1" /></g>
<polygon fill="#212e31" fill-opacity="0.501961" points="170.255390,145.132763,154.802606,171.562811,95.198605,156.345329,176.222411,144.987303" />
<g transform="translate(235 35) rotate(187) scale(31 1)"><rect fill="#100506" fill-opacity="0.501961" x="-0.5" y="-0.5" width="1" height="1" /></g>
<polygon fill="#51321b" fill-opacity="0.501961" points="132.129315,87.975734,144.014985,65.093540,137.162380,72.457785,137.242370,84.951997" />
<polygon fill="#ab7b51" fill-opacity="0.501961" points="65.949717,72.784360,34.793423,67.614278,63.186605,77.272425,68.111253,64.570195" />
<rect fill="#b3961e" fill-opacity="0.501961" x="32" y="88" width="8" height="2" />
<g transform="translate(117 6) rotate(226) scale(27 1)"><rect fill="#2c1000" fill-opacity="0.501961" x="-0.5" y="-0.5" width="1" height="1" /></g>
<polygon fill="#03090a" fill-opacity="0.501961" points="15.414047,86.383291,25.134821,95.058178,-16.000000,130.489846,36.596558,113.402825" />
<g transform="translate(234 37) rotate(118) scale(2 6)"><rect fill="#a95e27" fill-opacity="0.501961" x="-0.5" y="-0.5" width="1" height="1" /></g>
<g transform="translate(60 39) rotate(264) scale(3 42)"><rect fill="#6e6355" fill-opacity="0.501961" x="-0.5" y="-0.5" width="1" height="1" /></g>
<g transform="translate(201 27) rotate(192) scale(70 1)"><rect fill="#56412c" fill-opacity="0.501961" x="-0.5" y="-0.5" width="1" height="1" /></g>
<polygon fill="#ffffd6" fill-opacity="0.501961" points="-9,-16 25,-11 12,1" />
<polygon fill="#6d7f84" fill-opacity="0.501961" points="230.097696,135.464330,213.365915,103.087261,235.939771,111.344744,239.866697,129.524928" />
<g transform="translate(136 46) rotate(176) scale(7 11)"><rect fill="#7e502c" fill-opacity="0.501961" x="-0.5" y="-0.5" width="1" height="1" /></g>
<polygon fill="#733314" fill-opacity="0.501961" points="120.221895,14.995372,115.689815,16.646597,113.109852,23.076377,126.346929,29.424569" />
<ellipse fill="#000a0b" fill-opacity="0.501961" cx="198" cy="119" rx="1" ry="9" />
<g transform="translate(158 77) rotate(342) scale(1 31)"><rect fill="#8e8578" fill-opacity="0.501961" x="-0.5" y="-0.5" width="1" height="1" /></g>
<rect fill="#8d6024" fill-opacity="0.501961" x="252" y="96" width="4" height="4" />
<g transform="translate(134 21) rotate(48) scale(2 18)"><rect fill="#904319" fill-opacity="0.501961" x="-0.5" y="-0.5" width="1" height="1" /></g>
<rect fill="#f7ae52" fill-opacity="0.501961" x="50" y="87" width="3" height="2" />
<polygon fill="#c27b3c" fill-opacity="0.501961" points="159,32 152,39 153,28" />
<ellipse fill="#85a4bd" fill-opacity="0.501961" cx="249" cy="68" rx="6" ry="6" />
<g transform="translate(39 74) rotate(32) scale(1 6)"><rect fill="#ff9132" fill-opacity="0.501961" x="-0.5" y="-0.5" width="1" height="1" /></g>
<polygon fill="#ffffff" fill-opacity="0.501961" points="130,17 130,8 143,13" />
<polygon fill="#443222" fill-opacity="0.501961" points="124,50 113,74 133,61" />
<polygon fill="#9b6338" fill-opacity="0.501961" points="131.106422,24.724192,139.643168,21.856288,141.484654,36.289339,151.219648,41.086063" />
<polygon fill="#4a3b29" fill-opacity="0.501961" points="78.860675,123.620905,69.825082,154.845088,94.981150,152.359933,65.527653,127.008835" />
<rect fill="#8c8d8e" fill-opacity="0.501961" x="33" y="21" width="46" height="14" />
<g transform="translate(138 79) rotate(51) scale(5 1)"><rect fill="#a8b5bb" fill-opacity="0.501961" x="-0.5" y="-0.5" width="1" height="1" /></g>
<g transform="translate(142 50) rotate(154) scale(1 16)"><rect fill="#322013" fill-opacity="0.501961" x="-0.5" y="-0.5" width="1" height="1" /></g>
<polygon fill="#13130b" fill-opacity="0.501961" points="170,53 183,25 170,24" />
<ellipse fill="#526fc1" fill-opacity="0.501961" cx="157" cy="141" rx="2" ry="2" />
<rect fill="#aaa194" fill-opacity="0.501961" x="175" y="71" width="14" height="8" />
<polygon fill="#0d1312" fill-opacity="0.501961" points="247.806590,155.154193,190.270394,150.739377,216.660500,163.144160,266.200559,122.505164" />
<polygon fill="#927f6b" fill-opacity="0.501961" points="55.773355,38.572988,91.836788,43.476690,42.548420,50.967675,51.592203,40.144539" />
<polygon fill="#321c00" fill-opacity="0.501961" points="47,-11 76,-16 58,3" />
<polygon fill="#5d6866" fill-opacity="0.501961" points="104.500277,-8.583466,60.963421,6.350041,73.178358,-16.000000,81.216771,15.762958" />
<rect fill="#62563f" fill-opacity="0.501961" x="202" y="95" width="9" height="9" />
<polygon fill="#947f6a" fill-opacity="0.501961" points="15,26 30,37 13,43" />
<polygon fill="#7e482e" fill-opacity="0.501961" points="183,128 195,114 194,93" />
<g transform="translate(238 46) rotate(87) scale(17 1)"><rect fill="#b48040" fill-opacity="0.501961" x="-0.5" y="-0.5" width="1" height="1" /></g>
<polygon fill="#5a321b" fill-opacity="0.501961" points="141,39 140,28 130,32" />
<polygon fill="#302212" fill-opacity="0.501961" points="179,17 214,16 230,38" />
<g transform="translate(175 83) rotate(64) scale(32 1)"><rect fill="#97948c" fill-opacity="0.501961" x="-0.5" y="-0.5" width="1" height="1" /></g>
<polygon fill="#8d8c7f" fill-opacity="0.501961" points="118.607148,6.226617,102.850358,-16.000000,112.938027,-13.587535,152.413064,-16.000000" />
<polygon fill="#a79b8c" fill-opacity="0.501961" points="202.432838,78.806773,216.928802,99.500657,195.338668,72.952007,222.883283,75.615137" />
<polygon fill="#84623f" fill-opacity="0.501961" points="183,46 172,53 175,48" />
<path stroke="#b49777" stroke-opacity="0.501961" fill="none" d="M 115.961358 31.047820 Q 162.508038 16.521102, 176.425057 19.321930" stroke-width="0.500000" />
<polygon fill="#434941" fill-opacity="0.501961" points="270.693474,130.677371,193.391080,141.814140,205.398373,122.809230,200.473256,133.833943" />
<g transform="translate(172 99) rotate(97) scale(11 1)"><rect fill="#b67745" fill-opacity="0.501961" x="-0.5" y="-0.5" width="1" height="1" /></g>
<polygon fill="#191c11" fill-opacity="0.501961" points="34.603748,117.014747,19.975879,122.447305,76.591090,160.948113,31.511421,152.319506" />
<rect fill="#010a03" fill-opacity="0.501961" x="243" y="76" width="13" height="2" />
<polygon fill="#53402a" fill-opacity="0.501961" points="29.207285,2.199302,38.950191,-10.710031,30.743653,8.618437,19.104063,6.709696" />
<polygon fill="#6d5534" fill-opacity="0.501961" points="168.064322,144.813207,163.970551,142.835614,160.918363,127.343643,185.121449,143.741125" />
<rect fill="#f0d5b1" fill-opacity="0.501961" x="222" y="79" width="9" height="13" />
<ellipse fill="#3f220d" fill-opacity="0.501961" cx="147" cy="42" rx="3" ry="2" />
<polygon fill="#baada6" fill-opacity="0.501961" points="147,-16 159,3 157,18" />
<g transform="translate(74 76) rotate(170) scale(4 1)"><rect fill="#311206" fill-opacity="0.501961" x="-0.5" y="-0.5" width="1" height="1" /></g>
<polygon fill="#a4683e" fill-opacity="0.501961" points="99.843865,78.896150,116.858478,84.310854,110.700429,73.910277,95.351021,71.156541" />
<polygon fill="#8d9ea8" fill-opacity="0.501961" points="222.933569,95.828911,235.226276,107.711608,232.599728,114.956118,212.610166,99.005829" />
<g transform="translate(202 12) rotate(290) scale(6 1)"><rect fill="#b36d31" fill-opacity="0.501961" x="-0.5" y="-0.5" width="1" height="1" /></g>
<polygon fill="#38271f" fill-opacity="0.501961" points="68.292929,99.903062,55.579897,105.595046,54.724719,108.215160,71.171249,102.012775" />
<g transform="translate(229 5) rotate(333) scale(31 1)"><rect fill="#081314" fill-opacity="0.501961" x="-0.5" y="-0.5" width="1" height="1" /></g>
<polygon fill="#937352" fill-opacity="0.501961" points="145.976736,62.771501,156.525653,84.827995,146.398945,60.327497,149.009427,55.877146" />
<g transform="translate(141 45) rotate(226) scale(1 19)"><rect fill="#b47d48" fill-opacity="0.501961" x="-0.5" y="-0.5" width="1" height="1" /></g>
<polygon fill="#533d1a" fill-opacity="0.501961" points="6.644503,58.156315,-16.000000,82.725376,12.276796,72.519936,-11.151817,86.144397" />
<polygon fill="#412d19" fill-opacity="0.501961" points="172.515274,38.423270,130.994055,34.715518,163.037659,38.839981,198.432614,24.303861" />
<rect fill="#090c0c" fill-opacity="0.501961" x="147" y="51" width="3" height="4" />
<g transform="translate(124 123) rotate(307) scale(26 1)"><rect fill="#3e271d" fill-opacity="0.501961" x="-0.5" y="-0.5" width="1" height="1" /></g>
<g transform="translate(167 94) rotate(67) scale(15 1)"><rect fill="#3d1d0d" fill-opacity="0.501961" x="-0.5" y="-0.5" width="1" height="1" /></g>
<g transform="translate(79 69) rotate(150) scale(1 12)"><rect fill="#efd1ae" fill-opacity="0.501961" x="-0.5" y="-0.5" width="1" height="1" /></g>
<g transform="translate(137.123652 57.869389) rotate(74.078199) scale(1.949891 1.000000)"><ellipse fill="#eaad70" fill-opacity="0.501961" cx="0" cy="0" rx="1" ry="1" /></g>
<ellipse fill="#ae7650" fill-opacity="0.501961" cx="78" cy="83" rx="36" ry="1" />
<polygon fill="#ffaf4b" fill-opacity="0.501961" points="40,58 43,62 42,53" />
<polygon fill="#ffffff" fill-opacity="0.501961" points="25,-16 23,2 65,-16" />
<polygon fill="#673d12" fill-opacity="0.501961" points="182.244275,1.256632,161.382426,16.654426,178.681347,9.598619,167.867318,-16.000000" />
<g transform="translate(46 56) rotate(43) scale(9 2)"><rect fill="#d4803c" fill-opacity="0.501961" x="-0.5" y="-0.5" width="1" height="1" /></g>
<polygon fill="#a58f6c" fill-opacity="0.501961" points="213,61 213,57 200,60" />
<polygon fill="#6f797e" fill-opacity="0.501961" points="30.783032,19.654417,54.816658,1.627973,59.921867,23.877475,33.751948,-1.258150" />
<polygon fill="#d09a69" fill-opacity="0.501961" points="77.607617,88.855615,95.320786,96.490026,97.487141,64.212064,86.349043,85.977927" />
<polygon fill="#c2ae9f" fill-opacity="0.501961" points="110.919630,31.350804,121.028254,54.320674,104.306024,41.849616,104.467313,24.118212" />
<polygon fill="#5c6563" fill-opacity="0.501961" points="10.442043,11.506502,33.692613,15.334880,-12.070606,27.951806,-16.000000,-16.000000" />
<polygon fill="#a49b8f" fill-opacity="0.501961" points="36.470560,31.128257,33.371051,38.755235,69.716662,34.700276,61.930833,36.731263" />
<polygon fill="#8b6c45" fill-opacity="0.501961" points="161,114 123,112 146,100" />
<polygon fill="#494120" fill-opacity="0.501961" points="260.477546,7.337455,254.749449,25.814476,271.000000,16.829304,235.808504,23.036907" />
<polygon fill="#4b3f2b" fill-opacity="0.501961" points="29.183411,7.646944,3.355449,-16.000000,15.068439,1.598022,5.091839,8.668493" />
<polygon fill="#656964" fill-opacity="0.501961" points="32,18 17,0 21,25" />
<rect fill="#482f1f" fill-opacity="0.501961" x="103" y="70" width="20" height="2" />
<g transform="translate(162 20) rotate(253) scale(1 13)"><rect fill="#bb915a" fill-opacity="0.501961" x="-0.5" y="-0.5" width="1" height="1" /></g>
<polygon fill="#5a6363" fill-opacity="0.501961" points="59.882485,69.642295,58.931833,50.413055,54.175904,67.396911,54.621210,68.500257" />
<path stroke="#160900" stroke-opacity="0.501961" fill="none" d="M 56.649079 87.236415 Q 24.505535 107.568533, -16.000000 104.634666" stroke-width="0.500000" />
<rect fill="#e9d391" fill-opacity="0.501961" x="44" y="68" width="6" height="2" />
<polygon fill="#565b56" fill-opacity="0.501961" points="34,55 29,42 44,40" />
<polygon fill="#846743" fill-opacity="0.501961" points="147.808600,149.337579,133.999181,150.529565,160.249390,117.652459,134.071737,146.362350" />
<g transform="translate(134 79) rotate(167) scale(4 3)"><rect fill="#2c1d10" fill-opacity="0.501961" x="-0.5" y="-0.5" width="1" height="1" /></g>
<ellipse fill="#503d2f" fill-opacity="0.501961" cx="37" cy="102" rx="4" ry="4" />
<g transform="translate(52 60) rotate(111) scale(9 7)"><rect fill="#381808" fill-opacity="0.501961" x="-0.5" y="-0.5" width="1" height="1" /></g>
<polygon fill="#ffffe0" fill-opacity="0.501961" points="144,23 146,6 155,27" />
<polygon fill="#987159" fill-opacity="0.501961" points="103.511849,103.327314,96.108296,102.298985,96.845711,92.234658,119.501898,87.223017" />
<g transform="translate(94.939232 125.898089) rotate(162.855743) scale(3.682939 1.607576)"><ellipse fill="#906f46" fill-opacity="0.501961" cx="0" cy="0" rx="1" ry="1" /></g>
<g transform="translate(175 55) rotate(171) scale(11 5)"><rect fill="#1b1206" fill-opacity="0.501961" x="-0.5" y="-0.5" width="1" height="1" /></g>
<path stroke="#2f1d0e" stroke-opacity="0.501961" fill="none" d="M 172.809693 36.977808 Q 155.791331 41.162214, 170.875654 82.736459" stroke-width="0.500000" />
<polygon fill="#323631" fill-opacity="0.501961" points="159.683396,141.224113,145.031971,154.069749,150.108729,141.332961,155.743905,160.768109" />
<ellipse fill="#dc9038" fill-opacity="0.501961" cx="161" cy="9" rx="1" ry="4" />
<ellipse fill="#10130d" fill-opacity="0.501961" cx="117" cy="94" rx="4" ry="4" />
<polygon fill="#c1e6ff" fill-opacity="0.501961" points="234,58 231,74 247,62" />
<polygon fill="#d29a5d" fill-opacity="0.501961" points="146,61 138,60 133,73" />
<g transform="translate(2 90) rotate(335) scale(10 1)"><rect fill="#7e562a" fill-opacity="0.501961" x="-0.5" y="-0.5" width="1" height="1" /></g>
<rect fill="#694c26" fill-opacity="0.501961" x="195" y="4" width="15" height="2" />
<polygon fill="#8f4c1d" fill-opacity="0.501961" points="198,81 193,83 187,66" />
<polygon fill="#85654e" fill-opacity="0.501961" points="50.496500,111.839591,66.292781,57.565846,52.825649,108.067443,40.797553,106.832580" />
<polygon fill="#6a3d1f" fill-opacity="0.501961" points="207,37 197,37 211,43" />
<polygon fill="#182222" fill-opacity="0.501961" points="102.457185,117.197392,111.347693,120.326697,110.547417,127.224183,92.368162,120.745643" />
<polygon fill="#52412f" fill-opacity="0.501961" points="121.471404,117.976401,133.561480,116.103300,103.544951,109.343118,120.195801,102.525914" />
<ellipse fill="#9c8b57" fill-opacity="0.501961" cx="231" cy="0" rx="2" ry="2" />
<polygon fill="#98724a" fill-opacity="0.501961" points="196,116 157,103 171,119" />
<g transform="translate(54 70) rotate(30) scale(4 1)"><rect fill="#fffcbf" fill-opacity="0.501961" x="-0.5" y="-0.5" width="1" height="1" /></g>
<rect fill="#eab684" fill-opacity="0.501961" x="67" y="78" width="30" height="4" />
<g transform="translate(119 85) rotate(90) scale(5 6)"><rect fill="#160b05" fill-opacity="0.501961" x="-0.5" y="-0.5" width="1" height="1" /></g>
<g transform="translate(4 152) rotate(21) scale(68 26)"><rect fill="#070700" fill-opacity="0.501961" x="-0.5" y="-0.5" width="1" height="1" /></g>
<polygon fill="#ab7849" fill-opacity="0.501961" points="133.932825,77.238085,141.125633,64.231185,124.301189,72.271296,130.269853,59.939480" />
<g transform="translate(150 98) rotate(189) scale(32 2)"><rect fill="#1b170d" fill-opacity="0.501961" x="-0.5" y="-0.5" width="1" height="1" /></g>
<polygon fill="#a2581e" fill-opacity="0.501961" points="241,33 236,29 234,33" />
<rect fill="#080d04" fill-opacity="0.501961" x="252" y="99" width="4" height="6" />
<g transform="translate(138 100) rotate(79) scale(4 12)"><rect fill="#282014" fill-opacity="0.501961" x="-0.5" y="-0.5" width="1" height="1" /></g>
<g transform="translate(194 113) rotate(19) scale(9 3)"><rect fill="#291c13" fill-opacity="0.501961" x="-0.5" y="-0.5" width="1" height="1" /></g>
<polygon fill="#433c2d" fill-opacity="0.501961" points="136.573854,131.370704,102.339720,154.923329,136.442077,142.566578,113.514507,133.295272" />
<polygon fill="#cc884b" fill-opacity="0.501961" points="127.449012,19.718753,133.093404,22.553644,121.223315,8.525838,122.140369,9.924850" />
<g transform="translate(149 80) rotate(248) scale(26 1)"><rect fill="#887563" fill-opacity="0.501961" x="-0.5" y="-0.5" width="1" height="1" /></g>
<g transform="translate(173 98) rotate(93) scale(10 1)"><rect fill="#020401" fill-opacity="0.501961" x="-0.5" y="-0.5" width="1" height="1" /></g>
<g transform="translate(243 56) rotate(249) scale(2 4)"><rect fill="#d39b57" fill-opacity="0.501961" x="-0.5" y="-0.5" width="1" height="1" /></g>
<polygon fill="#21180d" fill-opacity="0.501961" points="221.980287,54.243664,241.685811,57.243846,206.935766,40.274184,223.939169,61.324302" />
<g transform="translate(168 80) rotate(249) scale(14 1)"><rect fill="#a4a09a" fill-opacity="0.501961" x="-0.5" y="-0.5" width="1" height="1" /></g>
<polygon fill="#926f46" fill-opacity="0.501961" points="115,121 110,115 122,111" />
<polygon fill="#030b08" fill-opacity="0.501961" points="39.433335,70.118634,9.454648,82.976150,6.664387,89.033532,27.365059,85.876771" />
<g transform="translate(148 84) rotate(258) scale(34 1)"><rect fill="#5e3116" fill-opacity="0.501961" x="-0.5" y="-0.5" width="1" height="1" /></g>
<g transform="translate(155 71) rotate(144) scale(1 19)"><rect fill="#412409" fill-opacity="0.501961" x="-0.5" y="-0.5" width="1" height="1" /></g>
<ellipse fill="#211710" fill-opacity="0.501961" cx="132" cy="62" rx="2" ry="2" />
<g transform="translate(154 52) rotate(-13) scale(1 6)"><rect fill="#ffce8d" fill-opacity="0.501961" x="-0.5" y="-0.5" width="1" height="1" /></g>
<g transform="translate(33 62) rotate(248) scale(1 6)"><rect fill="#90886d" fill-opacity="0.501961" x="-0.5" y="-0.5" width="1" height="1" /></g>
<polygon fill="#111e22" fill-opacity="0.501961" points="38,185 128,171 93,152" />
<polygon fill="#b2a391" fill-opacity="0.501961" points="198,84 204,91 213,75" />
<g transform="translate(140 77) rotate(234) scale(9 3)"><rect fill="#26180b" fill-opacity="0.501961" x="-0.5" y="-0.5" width="1" height="1" /></g>
<polygon fill="#17221e" fill-opacity="0.501961" points="29.791499,60.973104,30.390694,57.812795,27.423049,40.512337,0.624284,69.918608" />
<g transform="translate(126 58) rotate(123) scale(6 1)"><rect fill="#a4754a" fill-opacity="0.501961" x="-0.5" y="-0.5" width="1" height="1" /></g>
<g transform="translate(158 96) rotate(196) scale(13 1)"><rect fill="#828b8f" fill-opacity="0.501961" x="-0.5" y="-0.5" width="1" height="1" /></g>
<polygon fill="#3c3e1d" fill-opacity="0.501961" points="185.154559,-16.000000,230.647885,0.648126,211.340411,4.039924,238.488881,12.846454" />
<polygon fill="#332f24" fill-opacity="0.501961" points="186.309666,142.747185,220.881009,138.412550,201.113738,138.358463,176.178834,130.315419" />
<polygon fill="#080703" fill-opacity="0.501961" points="195,5 182,12 182,18" />
<polygon fill="#8ea6b3" fill-opacity="0.501961" points="227,59 223,70 224,57" />
<g transform="translate(77 108) rotate(47) scale(1 4)"><rect fill="#ce8f5d" fill-opacity="0.501961" x="-0.5" y="-0.5" width="1" height="1" /></g>
<g transform="translate(255.347833 52.605960) rotate(99.903409) scale(1.000000 14.301281)"><ellipse fill="#1d140b" fill-opacity="0.501961" cx="0" cy="0" rx="1" ry="1" /></g>
<polygon fill="#10130b" fill-opacity="0.501961" points="7.143720,130.864310,82.185722,107.993194,28.752513,130.836233,48.032701,161.749686" />
<g transform="translate(140 28) rotate(76) scale(1 11)"><rect fill="#b86a2c" fill-opacity="0.501961" x="-0.5" y="-0.5" width="1" height="1" /></g>
<ellipse fill="#f1b361" fill-opacity="0.501961" cx="131" cy="20" rx="2" ry="2" />
<polygon fill="#291004" fill-opacity="0.501961" points="35.009906,76.789233,8.196552,72.196653,30.145866,68.736653,31.011252,96.101998" />
<polygon fill="#0a0f0a" fill-opacity="0.501961" points="97.257012,5.745438,111.230174,-16.000000,93.585783,-15.001136,96.459604,4.205647" />
<ellipse fill="#703114" fill-opacity="0.501961" cx="6" cy="90" rx="1" ry="11" />
<rect fill="#885238" fill-opacity="0.501961" x="71" y="86" width="4" height="14" />
<polygon fill="#372a12" fill-opacity="0.501961" points="9.951158,9.616429,0.175674,-1.898141,16.851876,6.377489,18.690857,-6.058115" />
<polygon fill="#5d4733" fill-opacity="0.501961" points="100.566611,143.914035,139.305155,121.222088,83.174427,141.020252,103.867232,143.122944" />
<g transform="translate(245 23) rotate(104) scale(53 1)"><rect fill="#262017" fill-opacity="0.501961" x="-0.5" y="-0.5" width="1" height="1" /></g>
<g transform="translate(160 42) rotate(244) scale(7 1)"><rect fill="#ba7a4b" fill-opacity="0.501961" x="-0.5" y="-0.5" width="1" height="1" /></g>
<polygon fill="#734420" fill-opacity="0.501961" points="140.581107,67.836535,138.457266,74.011981,133.723738,80.617225,157.474735,54.808033" />
<g transform="translate(123 74) rotate(37) scale(15 1)"><rect fill="#5c3d24" fill-opacity="0.501961" x="-0.5" y="-0.5" width="1" height="1" /></g>
<polygon fill="#fff2c8" fill-opacity="0.501961" points="125.918541,13.003070,150.085814,4.853933,128.479193,3.987748,123.878277,9.130586" />
<g transform="translate(141.228023 54.095318) rotate(158.506305) scale(1.000000 4.158687)"><ellipse fill="#e59c60" fill-opacity="0.501961" cx="0" cy="0" rx="1" ry="1" /></g>
<polygon fill="#8d847a" fill-opacity="0.501961" points="81.040086,37.705007,72.778206,42.575660,107.007801,71.641133,108.964034,71.207543" />
<g transform="translate(136 126) rotate(237) scale(3 10)"><rect fill="#b18c59" fill-opacity="0.501961" x="-0.5" y="-0.5" width="1" height="1" /></g>
<g transform="translate(63 84) rotate(279) scale(4 13)"><rect fill="#5e3823" fill-opacity="0.501961" x="-0.5" y="-0.5" width="1" height="1" /></g>
<path stroke="#717a7d" stroke-opacity="0.501961" fill="none" d="M 107.233362 25.118681 Q 110.549174 26.407500, 141.398285 38.259227" stroke-width="0.500000" />
<g transform="translate(45 75) rotate(242) scale(1 10)"><rect fill="#000000" fill-opacity="0.501961" x="-0.5" y="-0.5" width="1" height="1" /></g>
<rect fill="#552110" fill-opacity="0.501961" x="135" y="19" width="1" height="15" />
<polygon fill="#13140d" fill-opacity="0.501961" points="208.246202,39.173427,167.308252,26.273440,189.781617,26.897377,222.443711,34.805153" />
<polygon fill="#47799e" fill-opacity="0.501961" points="141,29 140,31 145,30" />
<g transform="translate(172 71) rotate(201) scale(1 8)"><rect fill="#422004" fill-opacity="0.501961" x="-0.5" y="-0.5" width="1" height="1" /></g>
<ellipse fill="#0a0a04" fill-opacity="0.501961" cx="160" cy="62" rx="3" ry="3" />
<ellipse fill="#3a200f" fill-opacity="0.501961" cx="153" cy="47" rx="2" ry="2" />
<g transform="translate(134 60) rotate(142) scale(1 5)"><rect fill="#e69d58" fill-opacity="0.501961" x="-0.5" y="-0.5" width="1" height="1" /></g>
<g transform="translate(117 71) rotate(225) scale(1 9)"><rect fill="#060f0b" fill-opacity="0.501961" x="-0.5" y="-0.5" width="1" height="1" /></g>
<g transform="translate(145 88) rotate(245) scale(25 1)"><rect fill="#522810" fill-opacity="0.501961" x="-0.5" y="-0.5" width="1" height="1" /></g>
<polygon fill="#4e2610" fill-opacity="0.501961" points="199,89 188,86 188,94" />
<polygon fill="#76583c" fill-opacity="0.501961" points="47.163479,78.225997,70.413516,72.463675,40.445270,79.771700,72.036871,67.262595" />
<ellipse fill="#131106" fill-opacity="0.501961" cx="173" cy="106" rx="2" ry="2" />
<rect fill="#704f1f" fill-opacity="0.501961" x="176" y="39" width="4" height="4" />
<ellipse fill="#deb363" fill-opacity="0.501961" cx="210" cy="3" rx="1" ry="1" />
<path stroke="#575b56" stroke-opacity="0.501961" fill="none" d="M 265.531836 72.186168 Q 224.273107 84.237653, 191.116037 58.444218" stroke-width="0.500000" />
<polygon fill="#121a16" fill-opacity="0.501961" points="202.463346,70.898774,228.225741,75.407325,195.439807,71.665440,194.399976,65.732058" />
<polygon fill="#896b48" fill-opacity="0.501961" points="178.764135,116.997016,152.290068,145.325998,154.040093,112.768773,136.120726,137.204893" />
<polygon fill="#798185" fill-opacity="0.501961" points="79.062489,29.331631,78.345382,-11.267137,60.552219,2.321553,39.714273,22.197244" />
<rect fill="#836f4f" fill-opacity="0.501961" x="199" y="98" width="5" height="27" />
<polygon fill="#754727" fill-opacity="0.501961" points="157.088605,30.929895,162.879384,34.240308,153.625908,26.749848,182.694467,28.702764" />
<g transform="translate(255 22) rotate(273) scale(3 18)"><rect fill="#9f6728" fill-opacity="0.501961" x="-0.5" y="-0.5" width="1" height="1" /></g>
<g transform="translate(168.155104 89.186984) rotate(158.054110) scale(1.000000 4.988449)"><ellipse fill="#b56322" fill-opacity="0.501961" cx="0" cy="0" rx="1" ry="1" /></g>
<rect fill="#7d98a3" fill-opacity="0.501961" x="248" y="65" width="8" height="10" />
<polygon fill="#7f4e2a" fill-opacity="0.501961" points="154.590628,17.328412,170.996127,58.184987,165.887442,31.129475,162.762650,30.746163" />
<polygon fill="#221f10" fill-opacity="0.501961" points="259.809552,44.893568,271.000000,11.995133,245.737378,28.788891,195.789641,-16.000000" />
<polygon fill="#3b2c19" fill-opacity="0.501961" points="212.061591,21.779873,243.379774,33.572911,220.242280,13.977119,227.363122,50.345146" />
<polygon fill="#23251d" fill-opacity="0.501961" points="88.021364,110.370471,24.660774,141.103305,79.058821,107.698904,118.024359,100.080111" />
<ellipse fill="#b0aca5" fill-opacity="0.501961" cx="134" cy="91" rx="2" ry="2" />
<polygon fill="#342919" fill-opacity="0.501961" points="204.919004,39.959674,223.583481,25.731074,218.764034,38.957702,239.678011,53.071482" />
<g transform="translate(141 15) rotate(274) scale(1 4)"><rect fill="#e48334" fill-opacity="0.501961" x="-0.5" y="-0.5" width="1" height="1" /></g>
<rect fill="#382516" fill-opacity="0.501961" x="160" y="34" width="4" height="11" />
<rect fill="#0c1f22" fill-opacity="0.501961" x="64" y="87" width="6" height="3" />
<g transform="translate(248 118) rotate(269) scale(26 1)"><rect fill="#4c361e" fill-opacity="0.501961" x="-0.5" y="-0.5" width="1" height="1" /></g>
<polygon fill="#ad9b83" fill-opacity="0.501961" points="53.035129,54.470899,74.205519,43.410044,89.793462,72.552914,60.102096,46.972515" />
<g transform="translate(118 141) rotate(-8) scale(9 3)"><rect fill="#000400" fill-opacity="0.501961" x="-0.5" y="-0.5" width="1" height="1" /></g>
<g transform="translate(153 43) rotate(345) scale(2 3)"><rect fill="#ffce84" fill-opacity="0.501961" x="-0.5" y="-0.5" width="1" height="1" /></g>
<rect fill="#728288" fill-opacity="0.501961" x="247" y="115" width="1" height="18" />
<g transform="translate(138 55) rotate(392) scale(1 5)"><rect fill="#050c09" fill-opacity="0.501961" x="-0.5" y="-0.5" width="1" height="1" /></g>
<g transform="translate(147 49) rotate(48) scale(11 1)"><rect fill="#2c2119" fill-opacity="0.501961" x="-0.5" y="-0.5" width="1" height="1" /></g>
<polygon fill="#8a8888" fill-opacity="0.501961" points="185,95 186,78 168,85" />
<g transform="translate(191 53) rotate(364) scale(3 19)"><rect fill="#8b5932" fill-opacity="0.501961" x="-0.5" y="-0.5" width="1" height="1" /></g>
<polygon fill="#0c0f0d" fill-opacity="0.501961" points="270.570753,139.390690,239.535484,160.016041,255.631608,132.115556,256.505611,111.925652" />
<polygon fill="#050c0b" fill-opacity="0.501961" points="-12.474675,78.101332,-3.854525,100.135750,38.118052,106.670868,20.542367,119.519386" />
<g transform="translate(130 73) rotate(307) scale(1 19)"><rect fill="#b98657" fill-opacity="0.501961" x="-0.5" y="-0.5" width="1" height="1" /></g>
<g transform="translate(200 17) rotate(296) scale(14 1)"><rect fill="#824c1f" fill-opacity="0.501961" x="-0.5" y="-0.5" width="1" height="1" /></g>
<rect fill="#94662d" fill-opacity="0.501961" x="241" y="41" width="2" height="9" />
<polygon fill="#1a0900" fill-opacity="0.501961" points="32.985162,100.095919,41.160672,84.826057,21.173299,82.734958,49.945612,91.440230" />
<ellipse fill="#281208" fill-opacity="0.501961" cx="78" cy="76" rx="2" ry="2" />
<g transform="translate(128 42) rotate(329) scale(17 1)"><rect fill="#ffe8c5" fill-opacity="0.501961" x="-0.5" y="-0.5" width="1" height="1" /></g>
<polygon fill="#7f5229" fill-opacity="0.501961" points="37.415509,78.700333,31.524879,77.520036,43.026599,70.866872,38.925445,66.173262" />
<polygon fill="#423d2d" fill-opacity="0.501961" points="219.661007,61.180545,213.438697,52.667942,227.250535,60.314771,189.083495,42.045372" />
<polygon fill="#3a2923" fill-opacity="0.501961" points="238,149 248,164 196,175" />
<g transform="translate(111.714773 7.433551) rotate(118.409921) scale(3.502126 5.737044)"><ellipse fill="#91918b" fill-opacity="0.501961" cx="0" cy="0" rx="1" ry="1" /></g>
<rect fill="#142807" fill-opacity="0.501961" x="191" y="0" width="31" height="2" />
<g transform="translate(44 58) rotate(226) scale(1 5)"><rect fill="#703d13" fill-opacity="0.501961" x="-0.5" y="-0.5" width="1" height="1" /></g>
<path stroke="#cf9e6e" stroke-opacity="0.501961" fill="none" d="M 162.798104 55.750326 Q 144.193537 39.199106, 154.747652 17.892484" stroke-width="0.500000" />
<g transform="translate(126 92) rotate(249) scale(15 1)"><rect fill="#b17a4e" fill-opacity="0.501961" x="-0.5" y="-0.5" width="1" height="1" /></g>
<polygon fill="#8b6547" fill-opacity="0.501961" points="143.380003,77.813559,146.238549,88.063704,153.662920,88.075117,143.685737,80.089808" />
</g>
</svg>