<svg xmlns="http://www.w3.org/2000/svg" version="1.1" width="1024" height="680">
<rect x="0" y="0" width="1024" height="680" fill="#5a4e3f" />
<g transform="scale(4.000000) translate(0.5 0.5)">
<g transform="translate(129.112962 19.004399) rotate(311.784863) scale(100.249703 19.548779)"><ellipse fill="#fcdbbd" fill-opacity="0.501961" cx="0" cy="0" rx="1" ry="1" /></g>
<ellipse fill="#eff6f4" fill-opacity="0.501961" cx="234" cy="89" rx="30" ry="30" />
<ellipse fill="#000000" fill-opacity="0.501961" cx="22" cy="143" rx="76" ry="76" />
<g transform="translate(63.395272 27.607248) rotate(198.261453) scale(52.701692 32.738840)"><ellipse fill="#9a9f9f" fill-opacity="0.501961" cx="0" cy="0" rx="1" ry="1" /></g>
<ellipse fill="#130400" fill-opacity="0.501961" cx="210" cy="8" rx="53" ry="49" />
<ellipse fill="#00090b" fill-opacity="0.501961" cx="183" cy="163" rx="255" ry="26" />
<ellipse fill="#ffffec" fill-opacity="0.501961" cx="144" cy="14" rx="16" ry="16" />
<g transform="translate(124.977152 23.051923) rotate(293.903054) scale(7.581034 19.775768)"><ellipse fill="#540f00" fill-opacity="0.501961" cx="0" cy="0" rx="1" ry="1" /></g>
<ellipse fill="#d9905c" fill-opacity="0.501961" cx="82" cy="84" rx="34" ry="15" />
<g transform="translate(10.178316 87.495844) rotate(259.304097) scale(57.006716 28.944297)"><ellipse fill="#000000" fill-opacity="0.501961" cx="0" cy="0" rx="1" ry="1" /></g>
<g transform="translate(168 111) rotate(141) scale(95 42)"><rect fill="#a27a4f" fill-opacity="0.501961" x="-0.5" y="-0.5" width="1" height="1" /></g>
<ellipse fill="#765c3c" fill-opacity="0.501961" cx="82" cy="135" rx="19" ry="21" />
<g transform="translate(145.257961 54.377664) rotate(29.769477) scale(11.210365 40.910119)"><ellipse fill="#be773a" fill-opacity="0.501961" cx="0" cy="0" rx="1" ry="1" /></g>
<g transform="translate(227.039545 117.868048) rotate(181.835794) scale(27.314482 14.360987)"><ellipse fill="#627b80" fill-opacity="0.501961" cx="0" cy="0" rx="1" ry="1" /></g>
<g transform="translate(133.804746 5.724274) rotate(230.937107) scale(30.058058 10.179505)"><ellipse fill="#ffffe1" fill-opacity="0.501961" cx="0" cy="0" rx="1" ry="1" /></g>
<rect fill="#c8ffff" fill-opacity="0.501961" x="225" y="59" width="19" height="16" />
<g transform="translate(180.639471 91.015069) rotate(257.534689) scale(21.548202 7.184789)"><ellipse fill="#ada696" fill-opacity="0.501961" cx="0" cy="0" rx="1" ry="1" /></g>
<g transform="translate(174.155290 58.177328) rotate(34.646424) scale(13.134164 12.166135)"><ellipse fill="#130600" fill-opacity="0.501961" cx="0" cy="0" rx="1" ry="1" /></g>
<rect fill="#e9c6a3" fill-opacity="0.501961" x="200" y="74" width="44" height="21" />
<polygon fill="#fff5dc" fill-opacity="0.501961" points="115,53 109,27 136,38" />
<ellipse fill="#00070c" fill-opacity="0.501961" cx="254" cy="147" rx="60" ry="13" />
<ellipse fill="#ffe86f" fill-opacity="0.501961" cx="39" cy="57" rx="5" ry="5" />
<polygon fill="#2d2109" fill-opacity="0.501961" points="170.540133,-16.000000,224.731048,77.841553,199.273902,71.775596,271.000000,38.176761" />
<ellipse fill="#64412b" fill-opacity="0.501961" cx="56" cy="97" rx="27" ry="16" />
<g transform="translate(72.268433 56.505878) rotate(328.569201) scale(14.182954 53.407024)"><ellipse fill="#ad9680" fill-opacity="0.501961" cx="0" cy="0" rx="1" ry="1" /></g>
<g transform="translate(23 154) rotate(246) scale(109 50)"><rect fill="#000300" fill-opacity="0.501961" x="-0.5" y="-0.5" width="1" height="1" /></g>
<polygon fill="#1c0f00" fill-opacity="0.501961" points="184.167125,100.950558,185.169821,101.839959,140.056050,102.793455,131.767720,93.621752" />
<polygon fill="#493116" fill-opacity="0.501961" points="237.921081,79.642045,271.000000,79.322427,182.278153,-16.000000,271.000000,61.671330" />
<polygon fill="#1c170d" fill-opacity="0.501961" points="94,112 124,85 100,140" />
<g transform="translate(255.000000 114.939655) rotate(107.886853) scale(23.684779 8.867096)"><ellipse fill="#333b33" fill-opacity="0.501961" cx="0" cy="0" rx="1" ry="1" /></g>
<polygon fill="#eaac6b" fill-opacity="0.501961" points="125,72 158,59 160,45" />
<polygon fill="#737c81" fill-opacity="0.501961" points="126,-1 6,10 15,42" />
<polygon fill="#4a2911" fill-opacity="0.501961" points="114.120502,28.424129,137.049388,18.173748,139.494115,23.853141,100.756808,10.925682" />
<polygon fill="#502712" fill-opacity="0.501961" points="190,68 187,149 202,118" />
<ellipse fill="#402a0e" fill-opacity="0.501961" cx="178" cy="20" rx="21" ry="41" />
<polygon fill="#041410" fill-opacity="0.501961" points="26.782701,65.841678,6.319550,72.153655,3.540622,47.133116,33.903674,38.947026" />
<polygon fill="#6b3a18" fill-opacity="0.501961" points="128.750271,32.307899,136.771969,15.523265,171.772046,110.275579,167.779259,73.318904" />
<g transform="translate(239.685916 89.100742) rotate(181.427125) scale(17.284077 11.614510)"><ellipse fill="#f0c89e" fill-opacity="0.501961" cx="0" cy="0" rx="1" ry="1" /></g>
<g transform="translate(49 59) rotate(308) scale(16 8)"><rect fill="#3e0700" fill-opacity="0.501961" x="-0.5" y="-0.5" width="1" height="1" /></g>
<polygon fill="#512a0f" fill-opacity="0.501961" points="143,58 132,43 101,71" />
<g transform="translate(52 0) rotate(172) scale(29 7)"><rect fill="#1b1201" fill-opacity="0.501961" x="-0.5" y="-0.5" width="1" height="1" /></g>
<g transform="translate(89.300194 106.416327) rotate(229.917065) scale(16.950006 7.825325)"><ellipse fill="#2b2215" fill-opacity="0.501961" cx="0" cy="0" rx="1" ry="1" /></g>
<polygon fill="#958777" fill-opacity="0.501961" points="68.674430,54.635469,96.743801,11.672690,106.255893,65.223129,32.733891,76.303216" />
<ellipse fill="#656b64" fill-opacity="0.501961" cx="212" cy="114" rx="14" ry="20" />
<g transform="translate(20 92) rotate(343) scale(20 2)"><rect fill="#e8bc34" fill-opacity="0.501961" x="-0.5" y="-0.5" width="1" height="1" /></g>
<g transform="translate(0 34) rotate(202) scale(24 12)"><rect fill="#000000" fill-opacity="0.501961" x="-0.5" y="-0.5" width="1" height="1" /></g>
<ellipse fill="#9bd1ff" fill-opacity="0.501961" cx="246" cy="69" rx="11" ry="7" />
<rect fill="#7e6039" fill-opacity="0.501961" x="121" y="104" width="58" height="43" />
<g transform="translate(156 157) rotate(81) scale(18 136)"><rect fill="#12242b" fill-opacity="0.501961" x="-0.5" y="-0.5" width="1" height="1" /></g>
<rect fill="#f9b475" fill-opacity="0.501961" x="76" y="77" width="22" height="15" />
</g>
</svg>