<svg xmlns="http://www.w3.org/2000/svg" version="1.1" width="1024" height="856">
<rect x="0" y="0" width="1024" height="856" fill="#979288" />
<g transform="scale(4.000000) translate(0.5 0.5)">
<ellipse fill="#000000" fill-opacity="0.501961" cx="99" cy="13" rx="68" ry="68" />
<g transform="translate(170.520255 121.835278) rotate(140.374155) scale(103.146206 74.621100)"><ellipse fill="#ffffff" fill-opacity="0.501961" cx="0" cy="0" rx="1" ry="1" /></g>
<g transform="translate(63.452254 114.555468) rotate(3.657261) scale(22.818412 113.377277)"><ellipse fill="#000000" fill-opacity="0.501961" cx="0" cy="0" rx="1" ry="1" /></g>
<ellipse fill="#000000" fill-opacity="0.501961" cx="225" cy="0" rx="43" ry="43" />
<ellipse fill="#f9f5e5" fill-opacity="0.501961" cx="192" cy="57" rx="34" ry="34" />
<polygon fill="#02131f" fill-opacity="0.501961" points="44.146043,62.196993,47.612902,-16.000000,190.561058,-16.000000,271.000000,8.869474" />
<g transform="translate(61.390431 91.764209) rotate(363.873179) scale(12.296611 114.916177)"><ellipse fill="#000000" fill-opacity="0.501961" cx="0" cy="0" rx="1" ry="1" /></g>
<ellipse fill="#d4dedc" fill-opacity="0.501961" cx="91" cy="144" rx="25" ry="33" />
<ellipse fill="#fff5cd" fill-opacity="0.501961" cx="154" cy="169" rx="48" ry="48" />
<ellipse fill="#c6b9a0" fill-opacity="0.501961" cx="13" cy="0" rx="32" ry="130" />
</g>
</svg>