<svg xmlns="http://www.w3.org/2000/svg" version="1.1" width="32" height="32">
<rect x="0" y="0" width="32" height="32" fill="#906362" />
<g transform="scale(1.000000) translate(0.5 0.5)">
<polygon fill="#200000" fill-opacity="0.501961" points="30,29 6,36 -3,23" />
<polygon fill="#b7ad9b" fill-opacity="0.501961" points="23.924600,12.115594,-16.000000,5.290629,47.000000,-16.000000,29.101701,28.805806" />
<polygon fill="#c3143b" fill-opacity="0.501961" points="1.507582,20.575542,10.375353,26.666317,35.676441,21.442581,22.087431,19.375365" />
<polygon fill="#45566a" fill-opacity="0.501961" points="14,22 30,8 13,8" />
<polygon fill="#5a0d01" fill-opacity="0.501961" points="14.986184,28.286416,47.000000,24.072529,11.620943,33.451256,-16.000000,20.460916" />
<polygon fill="#ffa3a0" fill-opacity="0.501961" points="27.594945,23.502666,16.490199,26.721615,29.851031,25.393720,47.000000,3.980068" />
<polygon fill="#3a262f" fill-opacity="0.501961" points="-16.000000,-5.618297,6.328023,16.134698,-5.051780,25.244501,2.942896,30.356527" />
<g transform="translate(17 7) rotate(280) scale(1 16)"><rect fill="#c6cfe0" fill-opacity="0.501961" x="-0.5" y="-0.5" width="1" height="1" /></g>
<rect fill="#f24e64" fill-opacity="0.501961" x="22" y="15" width="4" height="14" />
<rect fill="#847854" fill-opacity="0.501961" x="0" y="31" width="32" height="1" />
<g transform="translate(20 17) rotate(87) scale(1 28)"><rect fill="#c3798c" fill-opacity="0.501961" x="-0.5" y="-0.5" width="1" height="1" /></g>
<rect fill="#ce1335" fill-opacity="0.501961" x="7" y="22" width="15" height="4" />
<rect fill="#d66f8d" fill-opacity="0.501961" x="2" y="18" width="5" height="7" />
<g transform="translate(10 29) rotate(364) scale(22 1)"><rect fill="#150408" fill-opacity="0.501961" x="-0.5" y="-0.5" width="1" height="1" /></g>
<polygon fill="#b77869" fill-opacity="0.501961" points="41,47 47,15 24,7" />
<polygon fill="#647884" fill-opacity="0.501961" points="6,10 21,7 14,18" />
<polygon fill="#e3a39b" fill-opacity="0.501961" points="39.182428,20.026161,31.701230,24.674847,45.111373,24.565757,18.059058,26.320546" />
<rect fill="#931009" fill-opacity="0.501961" x="20" y="27" width="11" height="3" />
<ellipse fill="#1f1f22" fill-opacity="0.501961" cx="16" cy="20" rx="2" ry="2" />
<rect fill="#3f3a47" fill-opacity="0.501961" x="11" y="13" width="15" height="2" />
<polygon fill="#a59c83" fill-opacity="0.501961" points="35.047428,-11.819556,0.405805,10.728236,-16.000000,-16.000000,39.020246,16.380529" />
<g transform="translate(0 22) rotate(71) scale(11 1)"><rect fill="#400309" fill-opacity="0.501961" x="-0.5" y="-0.5" width="1" height="1" /></g>
<ellipse fill="#da4e71" fill-opacity="0.501961" cx="8" cy="18" rx="3" ry="3" />
<g transform="translate(28 24) rotate(292) scale(1 3)"><rect fill="#fff5eb" fill-opacity="0.501961" x="-0.5" y="-0.5" width="1" height="1" /></g>
<polygon fill="#962d3f" fill-opacity="0.501961" points="7.130252,29.628345,4.203026,20.748484,13.473338,20.820733,4.051153,29.350995" />
<polygon fill="#d6ba77" fill-opacity="0.501961" points="16,5 23,-16 10,-16" />
<rect fill="#d2bcbd" fill-opacity="0.501961" x="3" y="23" width="3" height="2" />
<g transform="translate(9 11) rotate(303) scale(6 1)"><rect fill="#aca0a4" fill-opacity="0.501961" x="-0.5" y="-0.5" width="1" height="1" /></g>
<ellipse fill="#9f7176" fill-opacity="0.501961" cx="15" cy="27" rx="1" ry="2" />
<ellipse fill="#000000" fill-opacity="0.501961" cx="20" cy="27" rx="1" ry="1" />
<rect fill="#d91e28" fill-opacity="0.501961" x="28" y="26" width="3" height="2" />
<ellipse fill="#eedcd5" fill-opacity="0.501961" cx="25" cy="25" rx="2" ry="1" />
<polygon fill="#9e765f" fill-opacity="0.501961" points="31.948010,19.481001,28.353698,35.950974,47.000000,6.419005,26.391515,16.432646" />
<polygon fill="#5d464c" fill-opacity="0.501961" points="-16.000000,45.863229,8.968783,6.978497,6.026019,15.251322,-16.000000,9.986992" />
<g transform="translate(24 27) rotate(85) scale(3 4)"><rect fill="#ee3a43" fill-opacity="0.501961" x="-0.5" y="-0.5" width="1" height="1" /></g>
<rect fill="#321306" fill-opacity="0.501961" x="26" y="26" width="2" height="3" />
<rect fill="#4e3442" fill-opacity="0.501961" x="12" y="18" width="4" height="4" />
<g transform="translate(11 30) rotate(141) scale(1 24)"><rect fill="#812a32" fill-opacity="0.501961" x="-0.5" y="-0.5" width="1" height="1" /></g>
<g transform="translate(19 25) rotate(95) scale(1 6)"><rect fill="#ff6c7d" fill-opacity="0.501961" x="-0.5" y="-0.5" width="1" height="1" /></g>
<polygon fill="#897e6e" fill-opacity="0.501961" points="16.516511,1.167226,-7.099585,19.003952,6.066193,42.101407,-16.000000,20.732621" />
<g transform="translate(0 17) rotate(158) scale(10 2)"><rect fill="#3e3231" fill-opacity="0.501961" x="-0.5" y="-0.5" width="1" height="1" /></g>
<polygon fill="#48505b" fill-opacity="0.501961" points="15,14 18,8 15,9" />
<ellipse fill="#83847f" fill-opacity="0.501961" cx="4" cy="25" rx="1" ry="1" />
<g transform="translate(23 22) rotate(257) scale(5 4)"><rect fill="#b72434" fill-opacity="0.501961" x="-0.5" y="-0.5" width="1" height="1" /></g>
<g transform="translate(23 9) rotate(145) scale(12 1)"><rect fill="#9a8788" fill-opacity="0.501961" x="-0.5" y="-0.5" width="1" height="1" /></g>
<g transform="translate(2.548299 13.946172) rotate(183.456400) scale(26.868905 1.000000)"><ellipse fill="#6b5767" fill-opacity="0.501961" cx="0" cy="0" rx="1" ry="1" /></g>
<rect fill="#df9f67" fill-opacity="0.501961" x="12" y="31" width="2" height="1" />
<ellipse fill="#9d94a7" fill-opacity="0.501961" cx="15" cy="16" rx="5" ry="1" />
<polygon fill="#848a99" fill-opacity="0.501961" points="13,6 20,6 11,10" />
<polygon fill="#ca586d" fill-opacity="0.501961" points="21,17 28,20 27,14" />
<rect fill="#94907d" fill-opacity="0.501961" x="30" y="2" width="2" height="18" />
<ellipse fill="#7d544a" fill-opacity="0.501961" cx="6" cy="9" rx="2" ry="2" />
<rect fill="#3d320d" fill-opacity="0.501961" x="4" y="30" width="22" height="1" />
<rect fill="#c3babe" fill-opacity="0.501961" x="9" y="6" width="13" height="2" />
<rect fill="#690000" fill-opacity="0.501961" x="6" y="26" width="3" height="3" />
<rect fill="#c2455d" fill-opacity="0.501961" x="2" y="20" width="10" height="2" />
<polygon fill="#93835d" fill-opacity="0.501961" points="12,5 15,5 14,-1" />
<ellipse fill="#372339" fill-opacity="0.501961" cx="18" cy="21" rx="1" ry="1" />
<g transform="translate(16 29) rotate(7) scale(6 1)"><rect fill="#000b02" fill-opacity="0.501961" x="-0.5" y="-0.5" width="1" height="1" /></g>
<ellipse fill="#0e0000" fill-opacity="0.501961" cx="11" cy="27" rx="1" ry="1" />
<ellipse fill="#39544f" fill-opacity="0.501961" cx="15" cy="28" rx="1" ry="1" />
<rect fill="#424045" fill-opacity="0.501961" x="21" y="12" width="5" height="2" />
<rect fill="#ca7d50" fill-opacity="0.501961" x="16" y="31" width="2" height="1" />
<g transform="translate(31 31) rotate(239) scale(2 11)"><rect fill="#7a6e58" fill-opacity="0.501961" x="-0.5" y="-0.5" width="1" height="1" /></g>
<g transform="translate(17 17) rotate(84) scale(1 4)"><rect fill="#547b87" fill-opacity="0.501961" x="-0.5" y="-0.5" width="1" height="1" /></g>
<polygon fill="#a69686" fill-opacity="0.501961" points="3,10 -15,-16 17,-13" />
<polygon fill="#e0878c" fill-opacity="0.501961" points="25,16 28,19 25,18" />
<g transform="translate(5 16) rotate(-17) scale(2 5)"><rect fill="#89322a" fill-opacity="0.501961" x="-0.5" y="-0.5" width="1" height="1" /></g>
<g transform="translate(28 17) rotate(253) scale(8 1)"><rect fill="#a25854" fill-opacity="0.501961" x="-0.5" y="-0.5" width="1" height="1" /></g>
<ellipse fill="#be3129" fill-opacity="0.501961" cx="23" cy="29" rx="1" ry="1" />
<polygon fill="#514b57" fill-opacity="0.501961" points="2.140692,19.705570,-16.000000,4.601417,-5.953679,7.916756,1.957489,11.500931" />
<ellipse fill="#b36958" fill-opacity="0.501961" cx="25" cy="28" rx="1" ry="1" />
<g transform="translate(21 18) rotate(104) scale(4 3)"><rect fill="#ca4c76" fill-opacity="0.501961" x="-0.5" y="-0.5" width="1" height="1" /></g>
<ellipse fill="#b38499" fill-opacity="0.501961" cx="7" cy="15" rx="1" ry="1" />
<g transform="translate(11 26) rotate(276) scale(1 7)"><rect fill="#6a3f37" fill-opacity="0.501961" x="-0.5" y="-0.5" width="1" height="1" /></g>
<polygon fill="#af887c" fill-opacity="0.501961" points="24,6 31,18 37,16" />
<polygon fill="#5e5d4e" fill-opacity="0.501961" points="9,31 -16,27 -1,39" />
<ellipse fill="#f7efe5" fill-opacity="0.501961" cx="27" cy="24" rx="1" ry="1" />
<ellipse fill="#ff646f" fill-opacity="0.501961" cx="23" cy="26" rx="1" ry="1" />
<g transform="translate(17 8) rotate(188) scale(7 3)"><rect fill="#808294" fill-opacity="0.501961" x="-0.5" y="-0.5" width="1" height="1" /></g>
<g transform="translate(3 23) rotate(55) scale(2 1)"><rect fill="#eddbd6" fill-opacity="0.501961" x="-0.5" y="-0.5" width="1" height="1" /></g>
<g transform="translate(5 23) rotate(45) scale(6 1)"><rect fill="#a34f66" fill-opacity="0.501961" x="-0.5" y="-0.5" width="1" height="1" /></g>
<polygon fill="#b22640" fill-opacity="0.501961" points="-16.000000,13.736952,7.180175,22.544603,27.834244,21.716208,15.156959,25.956883" />
<polygon fill="#5a2118" fill-opacity="0.501961" points="17.748151,30.784953,-2.480723,26.588710,45.568617,37.923744,37.050927,33.720050" />
<ellipse fill="#330000" fill-opacity="0.501961" cx="8" cy="29" rx="5" ry="1" />
<g transform="translate(20 10) rotate(227) scale(1 7)"><rect fill="#9797a5" fill-opacity="0.501961" x="-0.5" y="-0.5" width="1" height="1" /></g>
<g transform="translate(24 15) rotate(353) scale(5 1)"><rect fill="#8b7e8f" fill-opacity="0.501961" x="-0.5" y="-0.5" width="1" height="1" /></g>
<ellipse fill="#65717f" fill-opacity="0.501961" cx="13" cy="13" rx="5" ry="1" />
<rect fill="#720a0b" fill-opacity="0.501961" x="26" y="28" width="4" height="2" />
<path stroke="#aa5467" stroke-opacity="0.501961" fill="none" d="M 24.195173 9.575187 Q 25.563520 18.965126, 24.313525 23.065532" stroke-width="0.500000" />
<g transform="translate(21 10) rotate(62) scale(3 1)"><rect fill="#686668" fill-opacity="0.501961" x="-0.5" y="-0.5" width="1" height="1" /></g>
<g transform="translate(18 28) rotate(98) scale(1 2)"><rect fill="#000a00" fill-opacity="0.501961" x="-0.5" y="-0.5" width="1" height="1" /></g>
<polygon fill="#d36b63" fill-opacity="0.501961" points="47.000000,3.545551,47.000000,2.553775,47.000000,27.196210,28.798089,26.269201" />
<g transform="translate(8.731352 17.791365) rotate(340.005268) scale(3.306347 1.000000)"><ellipse fill="#c66079" fill-opacity="0.501961" cx="0" cy="0" rx="1" ry="1" /></g>
<ellipse fill="#a2adb5" fill-opacity="0.501961" cx="11" cy="8" rx="1" ry="1" />
<ellipse fill="#212f33" fill-opacity="0.501961" cx="21" cy="13" rx="1" ry="1" />
<rect fill="#704b64" fill-opacity="0.501961" x="19" y="18" width="1" height="4" />
<ellipse fill="#7d8280" fill-opacity="0.501961" cx="12" cy="11" rx="2" ry="2" />
<rect fill="#515966" fill-opacity="0.501961" x="15" y="8" width="3" height="8" />
<ellipse fill="#b2a8a0" fill-opacity="0.501961" cx="25" cy="24" rx="1" ry="1" />
</g>
</svg>