<svg xmlns="http://www.w3.org/2000/svg" version="1.1" width="32" height="32">
<rect x="0" y="0" width="32" height="32" fill="#5d86b2" />
<g transform="scale(1.000000) translate(0.5 0.5)">
<polygon fill="#ffedc5" fill-opacity="0.501961" points="44.348123,15.222161,9.796343,21.050582,5.174392,20.581787,9.958543,15.417853" />
<polygon fill="#000000" fill-opacity="0.501961" points="13,22 23,20 24,15" />
<g transform="translate(2 11) rotate(51) scale(18 5)"><rect fill="#cd3939" fill-opacity="0.501961" x="-0.5" y="-0.5" width="1" height="1" /></g>
<polygon fill="#3580cd" fill-opacity="0.501961" points="8.048954,13.516784,-16.000000,-13.456326,47.000000,-16.000000,34.593315,11.707435" />
<g transform="translate(18 17) rotate(53) scale(3 6)"><rect fill="#fcffff" fill-opacity="0.501961" x="-0.5" y="-0.5" width="1" height="1" /></g>
<rect fill="#2e2600" fill-opacity="0.501961" x="6" y="21" width="15" height="1" />
<g transform="translate(28.428812 15.608610) rotate(107.676387) scale(2.305743 2.308686)"><ellipse fill="#e6eeec" fill-opacity="0.501961" cx="0" cy="0" rx="1" ry="1" /></g>
<ellipse fill="#faf6f0" fill-opacity="0.501961" cx="9" cy="18" rx="3" ry="3" />
<polygon fill="#4087c5" fill-opacity="0.501961" points="-6,22 47,20 13,47" />
<g transform="translate(4.870380 17.914994) rotate(361.708894) scale(1.199167 3.145269)"><ellipse fill="#872a17" fill-opacity="0.501961" cx="0" cy="0" rx="1" ry="1" /></g>
<g transform="translate(24.733593 15.431641) rotate(33.488081) scale(1.000000 4.909872)"><ellipse fill="#3d4743" fill-opacity="0.501961" cx="0" cy="0" rx="1" ry="1" /></g>
<g transform="translate(11.711545 21.926132) rotate(277.728987) scale(1.000000 10.082476)"><ellipse fill="#445d64" fill-opacity="0.501961" cx="0" cy="0" rx="1" ry="1" /></g>
<g transform="translate(3 12) rotate(75) scale(4 1)"><rect fill="#ffcfc6" fill-opacity="0.501961" x="-0.5" y="-0.5" width="1" height="1" /></g>
<g transform="translate(28 16) rotate(237) scale(1 10)"><rect fill="#eaf2ec" fill-opacity="0.501961" x="-0.5" y="-0.5" width="1" height="1" /></g>
<g transform="translate(21 19) rotate(310) scale(17 1)"><rect fill="#132c33" fill-opacity="0.501961" x="-0.5" y="-0.5" width="1" height="1" /></g>
<ellipse fill="#c10100" fill-opacity="0.501961" cx="5" cy="15" rx="2" ry="2" />
<g transform="translate(20 16) rotate(322) scale(9 1)"><rect fill="#e1eceb" fill-opacity="0.501961" x="-0.5" y="-0.5" width="1" height="1" /></g>
<polygon fill="#4883c0" fill-opacity="0.501961" points="-12,-16 47,12 7,13" />
<g transform="translate(0 8) rotate(99) scale(3 7)"><rect fill="#ad133c" fill-opacity="0.501961" x="-0.5" y="-0.5" width="1" height="1" /></g>
<ellipse fill="#101a0b" fill-opacity="0.501961" cx="28" cy="19" rx="1" ry="1" />
<g transform="translate(0 21) rotate(354) scale(6 19)"><rect fill="#4688bf" fill-opacity="0.501961" x="-0.5" y="-0.5" width="1" height="1" /></g>
<g transform="translate(9 18) rotate(280) scale(1 7)"><rect fill="#f4eeee" fill-opacity="0.501961" x="-0.5" y="-0.5" width="1" height="1" /></g>
<g transform="translate(15 16) rotate(103) scale(1 6)"><rect fill="#dcf0ff" fill-opacity="0.501961" x="-0.5" y="-0.5" width="1" height="1" /></g>
<g transform="translate(14 18) rotate(118) scale(1 5)"><rect fill="#959890" fill-opacity="0.501961" x="-0.5" y="-0.5" width="1" height="1" /></g>
<g transform="translate(16 22) rotate(52) scale(1 2)"><rect fill="#00151c" fill-opacity="0.501961" x="-0.5" y="-0.5" width="1" height="1" /></g>
<polygon fill="#5189c1" fill-opacity="0.501961" points="15.989924,24.297801,-7.630112,33.330988,45.861370,30.347116,24.309211,20.585493" />
<polygon fill="#5585b8" fill-opacity="0.501961" points="29.604003,12.060257,47.000000,20.560476,8.681771,5.840183,7.449378,16.776217" />
<g transform="translate(22 19) rotate(53) scale(1 4)"><rect fill="#000600" fill-opacity="0.501961" x="-0.5" y="-0.5" width="1" height="1" /></g>
<g transform="translate(4 19) rotate(324) scale(1 3)"><rect fill="#1b534a" fill-opacity="0.501961" x="-0.5" y="-0.5" width="1" height="1" /></g>
<rect fill="#af1a16" fill-opacity="0.501961" x="2" y="15" width="4" height="3" />
<g transform="translate(25 13) rotate(66) scale(2 1)"><rect fill="#0d1a24" fill-opacity="0.501961" x="-0.5" y="-0.5" width="1" height="1" /></g>
<g transform="translate(29 18) rotate(293) scale(1 2)"><rect fill="#384f52" fill-opacity="0.501961" x="-0.5" y="-0.5" width="1" height="1" /></g>
<polygon fill="#4b82bd" fill-opacity="0.501961" points="5.845912,14.197623,47.000000,10.379076,-16.000000,4.096408,10.763526,-11.430957" />
<g transform="translate(10 22) rotate(172) scale(4 1)"><rect fill="#123d68" fill-opacity="0.501961" x="-0.5" y="-0.5" width="1" height="1" /></g>
<rect fill="#c6d6ea" fill-opacity="0.501961" x="27" y="13" width="3" height="3" />
<ellipse fill="#926b5a" fill-opacity="0.501961" cx="7" cy="16" rx="1" ry="1" />
<g transform="translate(31 16) rotate(336) scale(16 1)"><rect fill="#e0e9e1" fill-opacity="0.501961" x="-0.5" y="-0.5" width="1" height="1" /></g>
<ellipse fill="#f3ffff" fill-opacity="0.501961" cx="21" cy="15" rx="1" ry="1" />
<rect fill="#607dac" fill-opacity="0.501961" x="2" y="5" width="2" height="3" />
<path stroke="#b0b6ae" stroke-opacity="0.501961" fill="none" d="M 11.595796 21.366274 Q 30.443586 6.715606, 47.000000 30.787013" stroke-width="0.500000" />
<g transform="translate(16 20) rotate(74) scale(1 2)"><rect fill="#a6a669" fill-opacity="0.501961" x="-0.5" y="-0.5" width="1" height="1" /></g>
<polygon fill="#5086bd" fill-opacity="0.501961" points="15.056503,21.997109,5.498150,47.000000,-4.101025,23.560293,32.290092,38.638476" />
<polygon fill="#b51a44" fill-opacity="0.501961" points="1,6 1,9 -6,3" />
<rect fill="#435e5e" fill-opacity="0.501961" x="24" y="19" width="1" height="2" />
<polygon fill="#485260" fill-opacity="0.501961" points="31,14 47,-16 47,5" />
<ellipse fill="#ffffff" fill-opacity="0.501961" cx="14" cy="16" rx="1" ry="1" />
<g transform="translate(5 17) rotate(30) scale(1 3)"><rect fill="#48331a" fill-opacity="0.501961" x="-0.5" y="-0.5" width="1" height="1" /></g>
<rect fill="#809577" fill-opacity="0.501961" x="14" y="18" width="2" height="3" />
<ellipse fill="#102003" fill-opacity="0.501961" cx="16" cy="21" rx="1" ry="1" />
<g transform="translate(2 17) rotate(71) scale(3 1)"><rect fill="#d58390" fill-opacity="0.501961" x="-0.5" y="-0.5" width="1" height="1" /></g>
<rect fill="#668597" fill-opacity="0.501961" x="20" y="21" width="8" height="1" />
<ellipse fill="#fffffc" fill-opacity="0.501961" cx="17" cy="18" rx="1" ry="1" />
<rect fill="#854e4f" fill-opacity="0.501961" x="6" y="15" width="2" height="2" />
<rect fill="#fdfaff" fill-opacity="0.501961" x="8" y="17" width="2" height="3" />
<path stroke="#69799e" stroke-opacity="0.501961" fill="none" d="M 47.000000 5.174118 Q 11.516799 19.772982, 3.493340 12.477701" stroke-width="0.500000" />
<g transform="translate(5 14) rotate(176) scale(1 2)"><rect fill="#d60009" fill-opacity="0.501961" x="-0.5" y="-0.5" width="1" height="1" /></g>
<rect fill="#5487c0" fill-opacity="0.501961" x="4" y="7" width="1" height="5" />
<rect fill="#4886c3" fill-opacity="0.501961" x="6" y="2" width="14" height="12" />
<ellipse fill="#021e14" fill-opacity="0.501961" cx="19" cy="20" rx="1" ry="1" />
<polygon fill="#dee2d2" fill-opacity="0.501961" points="26,15 26,19 25,17" />
<ellipse fill="#345476" fill-opacity="0.501961" cx="27" cy="12" rx="1" ry="1" />
<g transform="translate(12 18) rotate(110) scale(1 4)"><rect fill="#a9afb0" fill-opacity="0.501961" x="-0.5" y="-0.5" width="1" height="1" /></g>
<ellipse fill="#e8ffff" fill-opacity="0.501961" cx="19" cy="15" rx="1" ry="1" />
<ellipse fill="#091100" fill-opacity="0.501961" cx="21" cy="19" rx="1" ry="1" />
<ellipse fill="#c1ceb6" fill-opacity="0.501961" cx="12" cy="20" rx="1" ry="1" />
<g transform="translate(3 13) rotate(129) scale(4 1)"><rect fill="#f5a2ac" fill-opacity="0.501961" x="-0.5" y="-0.5" width="1" height="1" /></g>
<rect fill="#43545b" fill-opacity="0.501961" x="4" y="18" width="2" height="4" />
<g transform="translate(27 15) rotate(-34) scale(1 3)"><rect fill="#b2b3b0" fill-opacity="0.501961" x="-0.5" y="-0.5" width="1" height="1" /></g>
<ellipse fill="#a65e76" fill-opacity="0.501961" cx="4" cy="12" rx="1" ry="1" />
<ellipse fill="#001633" fill-opacity="0.501961" cx="17" cy="22" rx="1" ry="1" />
<polygon fill="#4883bf" fill-opacity="0.501961" points="-11,1 -12,-15 39,14" />
<path stroke="#396077" stroke-opacity="0.501961" fill="none" d="M 47.000000 -4.781257 Q 43.626872 20.376784, 19.327748 21.038557" stroke-width="0.500000" />
<ellipse fill="#60675c" fill-opacity="0.501961" cx="3" cy="19" rx="1" ry="1" />
<g transform="translate(3 16) rotate(225) scale(3 1)"><rect fill="#993a4d" fill-opacity="0.501961" x="-0.5" y="-0.5" width="1" height="1" /></g>
<polygon fill="#d05677" fill-opacity="0.501961" points="-2,10 0,8 -4,4" />
<ellipse fill="#c0c3d6" fill-opacity="0.501961" cx="15" cy="17" rx="1" ry="1" />
<rect fill="#df9a7f" fill-opacity="0.501961" x="2" y="10" width="2" height="2" />
<path stroke="#9ea99f" stroke-opacity="0.501961" fill="none" d="M 27.237442 18.476402 Q 37.556249 14.438229, 47.000000 23.537567" stroke-width="0.500000" />
<g transform="translate(0 17) rotate(350) scale(4 8)"><rect fill="#5180b2" fill-opacity="0.501961" x="-0.5" y="-0.5" width="1" height="1" /></g>
<ellipse fill="#655c4f" fill-opacity="0.501961" cx="9" cy="21" rx="3" ry="1" />
<path stroke="#763c4a" stroke-opacity="0.501961" fill="none" d="M -16.000000 -12.575831 Q -7.358335 14.665884, 2.704359 10.051304" stroke-width="0.500000" />
<ellipse fill="#d3e4e9" fill-opacity="0.501961" cx="29" cy="16" rx="2" ry="2" />
<g transform="translate(11 23) rotate(357) scale(6 1)"><rect fill="#6b8ba4" fill-opacity="0.501961" x="-0.5" y="-0.5" width="1" height="1" /></g>
<polygon fill="#528ac4" fill-opacity="0.501961" points="44,32 16,24 10,43" />
<polygon fill="#3978e9" fill-opacity="0.501961" points="1,2 -16,0 -16,6" />
<g transform="translate(8 19) rotate(269) scale(1 4)"><rect fill="#e0e5e6" fill-opacity="0.501961" x="-0.5" y="-0.5" width="1" height="1" /></g>
<path stroke="#6785ae" stroke-opacity="0.501961" fill="none" d="M 5.117531 13.224598 Q 21.577948 20.897983, 47.000000 -4.168425" stroke-width="0.500000" />
<path stroke="#5a635c" stroke-opacity="0.501961" fill="none" d="M 7.557105 20.955112 Q 19.989246 24.519887, 24.727654 12.736613" stroke-width="0.500000" />
<ellipse fill="#c7d4d7" fill-opacity="0.501961" cx="21" cy="14" rx="1" ry="1" />
<ellipse fill="#0d3c55" fill-opacity="0.501961" cx="18" cy="22" rx="1" ry="1" />
<polygon fill="#4488c1" fill-opacity="0.501961" points="14,8 11,15 10,5" />
<ellipse fill="#1d3525" fill-opacity="0.501961" cx="15" cy="21" rx="1" ry="1" />
<rect fill="#e11111" fill-opacity="0.501961" x="4" y="14" width="2" height="3" />
<g transform="translate(3 9) rotate(293) scale(2 1)"><rect fill="#ba6d7b" fill-opacity="0.501961" x="-0.5" y="-0.5" width="1" height="1" /></g>
<g transform="translate(2 9) rotate(158) scale(3 1)"><rect fill="#842a4b" fill-opacity="0.501961" x="-0.5" y="-0.5" width="1" height="1" /></g>
<g transform="translate(19 17) rotate(126) scale(1 3)"><rect fill="#cbd1d6" fill-opacity="0.501961" x="-0.5" y="-0.5" width="1" height="1" /></g>
<ellipse fill="#0d1909" fill-opacity="0.501961" cx="17" cy="21" rx="1" ry="1" />
<path stroke="#7d6d9a" stroke-opacity="0.501961" fill="none" d="M -16.000000 3.659777 Q -0.898325 -5.038427, 5.074753 12.303410" stroke-width="0.500000" />
<ellipse fill="#6a2b1f" fill-opacity="0.501961" cx="4" cy="16" rx="1" ry="1" />
<rect fill="#6b669b" fill-opacity="0.501961" x="8" y="14" width="2" height="2" />
</g>
</svg>