<svg xmlns="http://www.w3.org/2000/svg" version="1.1" width="32" height="32">
<rect x="0" y="0" width="32" height="32" fill="#5d86b2" />
<g transform="scale(1.000000) translate(0.5 0.5)">
<polygon fill="#eacdaf" fill-opacity="0.501961" points="38.780551,17.832817,47.000000,11.129985,1.389459,17.007902,9.299674,20.041245" />
<polygon fill="#ba3436" fill-opacity="0.501961" points="-16.000000,-16.000000,7.795280,14.387855,5.181952,21.802589,-13.558528,-16.000000" />
<g transform="translate(22 18) rotate(45) scale(1 14)"><rect fill="#000000" fill-opacity="0.501961" x="-0.5" y="-0.5" width="1" height="1" /></g>
<polygon fill="#3481cf" fill-opacity="0.501961" points="11,13 -14,-16 47,6" />
<g transform="translate(14 18) rotate(72) scale(3 14)"><rect fill="#f8faef" fill-opacity="0.501961" x="-0.5" y="-0.5" width="1" height="1" /></g>
<g transform="translate(16.641744 21.431168) rotate(354.113857) scale(8.666450 1.162927)"><ellipse fill="#273c2f" fill-opacity="0.501961" cx="0" cy="0" rx="1" ry="1" /></g>
<ellipse fill="#000000" fill-opacity="0.501961" cx="22" cy="19" rx="2" ry="2" />
<polygon fill="#4189c9" fill-opacity="0.501961" points="43.610477,21.112076,10.662914,47.000000,-13.726669,7.603321,6.786414,23.831115" />
<g transform="translate(28 17) rotate(153) scale(10 1)"><rect fill="#ffffff" fill-opacity="0.501961" x="-0.5" y="-0.5" width="1" height="1" /></g>
<g transform="translate(5 17) rotate(192) scale(1 6)"><rect fill="#7b0000" fill-opacity="0.501961" x="-0.5" y="-0.5" width="1" height="1" /></g>
<rect fill="#ffc8b8" fill-opacity="0.501961" x="2" y="10" width="2" height="5" />
<g transform="translate(28 15) rotate(71) scale(1 5)"><rect fill="#e5f7ff" fill-opacity="0.501961" x="-0.5" y="-0.5" width="1" height="1" /></g>
<rect fill="#363317" fill-opacity="0.501961" x="6" y="21" width="15" height="1" />
<polygon fill="#d8dfd8" fill-opacity="0.501961" points="16,20 6,18 22,14" />
<g transform="translate(15 20) rotate(327) scale(1 7)"><rect fill="#45564c" fill-opacity="0.501961" x="-0.5" y="-0.5" width="1" height="1" /></g>
<polygon fill="#bf032f" fill-opacity="0.501961" points="3,8 -16,-5 -10,10" />
<rect fill="#c52f30" fill-opacity="0.501961" x="2" y="14" width="7" height="3" />
<g transform="translate(31 19) rotate(189) scale(8 1)"><rect fill="#28464f" fill-opacity="0.501961" x="-0.5" y="-0.5" width="1" height="1" /></g>
<polygon fill="#4b83bf" fill-opacity="0.501961" points="26.448450,12.715197,47.000000,20.974346,-5.890095,-16.000000,6.496972,14.119456" />
<rect fill="#306a66" fill-opacity="0.501961" x="3" y="18" width="3" height="4" />
<g transform="translate(17 17) rotate(240) scale(1 11)"><rect fill="#cdd8e0" fill-opacity="0.501961" x="-0.5" y="-0.5" width="1" height="1" /></g>
<ellipse fill="#0f2721" fill-opacity="0.501961" cx="21" cy="19" rx="2" ry="2" />
<g transform="translate(17.215369 22.261913) rotate(190.333898) scale(1.986456 1.120120)"><ellipse fill="#072a36" fill-opacity="0.501961" cx="0" cy="0" rx="1" ry="1" /></g>
<g transform="translate(13 17) rotate(161) scale(15 1)"><rect fill="#dfe8f7" fill-opacity="0.501961" x="-0.5" y="-0.5" width="1" height="1" /></g>
<ellipse fill="#999a91" fill-opacity="0.501961" cx="13" cy="18" rx="2" ry="2" />
<polygon fill="#4c85bb" fill-opacity="0.501961" points="31.886943,19.687371,19.398682,21.244881,47.000000,47.000000,30.577964,9.586552" />
<g transform="translate(3 13) rotate(23) scale(1 3)"><rect fill="#efabbc" fill-opacity="0.501961" x="-0.5" y="-0.5" width="1" height="1" /></g>
<ellipse fill="#cdd0a8" fill-opacity="0.501961" cx="25" cy="19" rx="1" ry="1" />
<g transform="translate(3 16) rotate(210) scale(1 4)"><rect fill="#bb2031" fill-opacity="0.501961" x="-0.5" y="-0.5" width="1" height="1" /></g>
<ellipse fill="#d3d7c5" fill-opacity="0.501961" cx="26" cy="16" rx="2" ry="2" />
</g>
</svg>