<svg xmlns="http://www.w3.org/2000/svg" version="1.1" width="32" height="32">
<rect x="0" y="0" width="32" height="32" fill="#5d86b2" />
<g transform="scale(1.000000) translate(0.5 0.5)">
<g transform="translate(19 17) rotate(170) scale(26 4)"><rect fill="#ffeac8" fill-opacity="0.501961" x="-0.5" y="-0.5" width="1" height="1" /></g>
<polygon fill="#0d1e17" fill-opacity="0.501961" points="25.886174,12.506178,23.389825,19.709787,22.482358,22.512809,14.324492,23.683825" />
<g transform="translate(3 12) rotate(334) scale(4 13)"><rect fill="#e31d14" fill-opacity="0.501961" x="-0.5" y="-0.5" width="1" height="1" /></g>
<ellipse fill="#347fcc" fill-opacity="0.501961" cx="27" cy="3" rx="27" ry="11" />
<rect fill="#172920" fill-opacity="0.501961" x="6" y="21" width="12" height="2" />
<polygon fill="#428acb" fill-opacity="0.501961" points="17,47 -16,25 43,20" />
<g transform="translate(2.815162 12.485455) rotate(211.315066) scale(1.565729 2.285603)"><ellipse fill="#c2b7c5" fill-opacity="0.501961" cx="0" cy="0" rx="1" ry="1" /></g>
<g transform="translate(5 16) rotate(241) scale(2 6)"><rect fill="#b1190f" fill-opacity="0.501961" x="-0.5" y="-0.5" width="1" height="1" /></g>
<g transform="translate(14 17) rotate(82) scale(3 12)"><rect fill="#e9f2fc" fill-opacity="0.501961" x="-0.5" y="-0.5" width="1" height="1" /></g>
<rect fill="#000000" fill-opacity="0.501961" x="20" y="18" width="4" height="2" />
<g transform="translate(31 16) rotate(68) scale(1 16)"><rect fill="#f8fff6" fill-opacity="0.501961" x="-0.5" y="-0.5" width="1" height="1" /></g>
<g transform="translate(25 14) rotate(130) scale(5 1)"><rect fill="#15222b" fill-opacity="0.501961" x="-0.5" y="-0.5" width="1" height="1" /></g>
<rect fill="#412708" fill-opacity="0.501961" x="4" y="16" width="2" height="6" />
<rect fill="#ebf6f7" fill-opacity="0.501961" x="16" y="15" width="5" height="4" />
<ellipse fill="#101a0b" fill-opacity="0.501961" cx="28" cy="19" rx="1" ry="1" />
<rect fill="#ffffff" fill-opacity="0.501961" x="7" y="17" width="3" height="3" />
<polygon fill="#4b86c0" fill-opacity="0.501961" points="15.216436,19.524861,-1.535561,-2.885018,47.000000,-16.000000,11.613134,18.236151" />
<g transform="translate(20 20) rotate(219) scale(1 11)"><rect fill="#192825" fill-opacity="0.501961" x="-0.5" y="-0.5" width="1" height="1" /></g>
<g transform="translate(12 26) rotate(281) scale(6 24)"><rect fill="#4d89bf" fill-opacity="0.501961" x="-0.5" y="-0.5" width="1" height="1" /></g>
<g transform="translate(22 20) rotate(6) scale(4 1)"><rect fill="#002441" fill-opacity="0.501961" x="-0.5" y="-0.5" width="1" height="1" /></g>
<g transform="translate(14 19) rotate(217) scale(5 1)"><rect fill="#9e956a" fill-opacity="0.501961" x="-0.5" y="-0.5" width="1" height="1" /></g>
<g transform="translate(28 14) rotate(221) scale(2 1)"><rect fill="#def2ff" fill-opacity="0.501961" x="-0.5" y="-0.5" width="1" height="1" /></g>
<rect fill="#ff9da4" fill-opacity="0.501961" x="2" y="13" width="3" height="2" />
<g transform="translate(31 16) rotate(152) scale(15 1)"><rect fill="#ddebe3" fill-opacity="0.501961" x="-0.5" y="-0.5" width="1" height="1" /></g>
<polygon fill="#4984c1" fill-opacity="0.501961" points="47.000000,43.059209,18.211891,-16.000000,4.105778,10.811525,28.804660,10.853720" />
<polygon fill="#507695" fill-opacity="0.501961" points="1.312111,18.853070,1.917689,11.311161,-16.000000,16.280755,47.000000,30.761010" />
<polygon fill="#aa1243" fill-opacity="0.501961" points="3,8 -8,9 -16,-5" />
<g transform="translate(20 16) rotate(-8) scale(3 2)"><rect fill="#e3f5fb" fill-opacity="0.501961" x="-0.5" y="-0.5" width="1" height="1" /></g>
<rect fill="#00181d" fill-opacity="0.501961" x="15" y="21" width="4" height="2" />
<rect fill="#5089c2" fill-opacity="0.501961" x="20" y="21" width="12" height="11" />
<polygon fill="#6283ac" fill-opacity="0.501961" points="6.177460,16.940891,34.149310,11.403854,21.062907,12.900105,9.477854,13.454997" />
<g transform="translate(5 15) rotate(58) scale(3 1)"><rect fill="#dc0106" fill-opacity="0.501961" x="-0.5" y="-0.5" width="1" height="1" /></g>
<rect fill="#ffffe2" fill-opacity="0.501961" x="17" y="18" width="1" height="3" />
<ellipse fill="#4c514f" fill-opacity="0.501961" cx="24" cy="15" rx="1" ry="1" />
<ellipse fill="#384f52" fill-opacity="0.501961" cx="29" cy="18" rx="1" ry="1" />
<g transform="translate(11 19) rotate(185) scale(3 1)"><rect fill="#fffff6" fill-opacity="0.501961" x="-0.5" y="-0.5" width="1" height="1" /></g>
<path stroke="#96a1af" stroke-opacity="0.501961" fill="none" d="M 6.196641 16.417075 Q 29.431040 22.023734, 33.435846 3.927838" stroke-width="0.500000" />
<ellipse fill="#5d4426" fill-opacity="0.501961" cx="8" cy="21" rx="1" ry="1" />
<ellipse fill="#ffffff" fill-opacity="0.501961" cx="14" cy="16" rx="1" ry="1" />
<g transform="translate(8 18) rotate(141) scale(5 1)"><rect fill="#fff2f3" fill-opacity="0.501961" x="-0.5" y="-0.5" width="1" height="1" /></g>
<polygon fill="#4883c1" fill-opacity="0.501961" points="47,8 8,13 -11,-16" />
<rect fill="#f5afac" fill-opacity="0.501961" x="2" y="11" width="2" height="4" />
<polygon fill="#549cc3" fill-opacity="0.501961" points="3,17 -16,30 -9,17" />
<ellipse fill="#b1b493" fill-opacity="0.501961" cx="25" cy="19" rx="1" ry="1" />
<path stroke="#7480a4" stroke-opacity="0.501961" fill="none" d="M 5.814184 29.129488 Q 11.945504 -1.751271, -16.000000 2.362806" stroke-width="0.500000" />
<ellipse fill="#ecffff" fill-opacity="0.501961" cx="21" cy="15" rx="1" ry="1" />
<ellipse fill="#6d293d" fill-opacity="0.501961" cx="7" cy="15" rx="1" ry="1" />
<polygon fill="#7780ab" fill-opacity="0.501961" points="2.992834,13.951368,-16.000000,-12.786452,-16.000000,32.184587,10.045220,5.388074" />
<path stroke="#446071" stroke-opacity="0.501961" fill="none" d="M 36.178803 -15.982645 Q 47.000000 31.525264, 1.419970 20.057208" stroke-width="0.500000" />
<polygon fill="#4e88be" fill-opacity="0.501961" points="23,24 -16,19 10,30" />
</g>
</svg>