<svg xmlns="http://www.w3.org/2000/svg" version="1.1" width="207" height="211">
<rect x="0" y="0" width="207" height="211" fill="#a7866a" />
<g transform="scale(1.000000) translate(0.5 0.5)">
<ellipse fill="#1f0300" fill-opacity="0.501961" cx="89" cy="150" rx="206" ry="29" />
<g transform="translate(90 85) rotate(98) scale(42 164)"><rect fill="#ffffff" fill-opacity="0.501961" x="-0.5" y="-0.5" width="1" height="1" /></g>
<ellipse fill="#00294b" fill-opacity="0.501961" cx="98" cy="47" rx="69" ry="17" />
<g transform="translate(185.379179 0.827771) rotate(355.974044) scale(206.000000 27.178358)"><ellipse fill="#ffd470" fill-opacity="0.501961" cx="0" cy="0" rx="1" ry="1" /></g>
<g transform="translate(105.903690 97.715610) rotate(213.221356) scale(62.520050 21.254844)"><ellipse fill="#ffffff" fill-opacity="0.501961" cx="0" cy="0" rx="1" ry="1" /></g>
<rect fill="#000000" fill-opacity="0.501961" x="136" y="57" width="9" height="73" />
<g transform="translate(12.862874 42.219242) rotate(179.399889) scale(21.775412 64.408857)"><ellipse fill="#ffd56f" fill-opacity="0.501961" cx="0" cy="0" rx="1" ry="1" /></g>
<g transform="translate(82.624037 134.833601) rotate(124.140172) scale(15.848365 62.561161)"><ellipse fill="#0d0e16" fill-opacity="0.501961" cx="0" cy="0" rx="1" ry="1" /></g>
<ellipse fill="#f0ad74" fill-opacity="0.501961" cx="84" cy="199" rx="39" ry="39" />
<polygon fill="#b8c1c4" fill-opacity="0.501961" points="139.387775,56.473339,152.132548,43.458757,20.176949,37.953164,37.071817,43.589308" />
<ellipse fill="#ffffff" fill-opacity="0.501961" cx="85" cy="84" rx="53" ry="22" />
<polygon fill="#d8b495" fill-opacity="0.501961" points="109,107 109,144 167,147" />
<polygon fill="#090913" fill-opacity="0.501961" points="75.733718,26.089318,41.844108,35.636612,108.353027,44.491617,170.039233,42.942394" />
<polygon fill="#f1ffff" fill-opacity="0.501961" points="147,68 144,130 180,55" />
<polygon fill="#0f0005" fill-opacity="0.501961" points="-16,161 32,185 114,133" />
<g transform="translate(144.060953 16.111396) rotate(10.371822) scale(155.432484 20.257360)"><ellipse fill="#ffad66" fill-opacity="0.501961" cx="0" cy="0" rx="1" ry="1" /></g>
<rect fill="#2e0804" fill-opacity="0.501961" x="163" y="114" width="43" height="38" />
<rect fill="#000000" fill-opacity="0.501961" x="31" y="50" width="3" height="51" />
<ellipse fill="#fcd0ac" fill-opacity="0.501961" cx="85" cy="207" rx="206" ry="7" />
<polygon fill="#ffcf8b" fill-opacity="0.501961" points="-16,92 -8,-4 87,-6" />
<polygon fill="#da915f" fill-opacity="0.501961" points="50.740501,149.992991,54.866519,114.855761,17.745207,131.578803,20.045153,138.232556" />
<g transform="translate(169.304069 174.020896) rotate(84.623666) scale(7.720009 111.861790)"><ellipse fill="#8b6036" fill-opacity="0.501961" cx="0" cy="0" rx="1" ry="1" /></g>
<g transform="translate(156.557239 54.411423) rotate(145.380525) scale(22.034009 8.101630)"><ellipse fill="#001b30" fill-opacity="0.501961" cx="0" cy="0" rx="1" ry="1" /></g>
<ellipse fill="#170c05" fill-opacity="0.501961" cx="140" cy="113" rx="4" ry="58" />
<g transform="translate(107 61) rotate(98) scale(7 67)"><rect fill="#000314" fill-opacity="0.501961" x="-0.5" y="-0.5" width="1" height="1" /></g>
<ellipse fill="#ffffff" fill-opacity="0.501961" cx="206" cy="115" rx="1" ry="127" />
<polygon fill="#ffffff" fill-opacity="0.501961" points="136,97 47,58 138,68" />
<g transform="translate(165.142135 151.941107) rotate(145.477599) scale(36.254369 5.824399)"><ellipse fill="#000003" fill-opacity="0.501961" cx="0" cy="0" rx="1" ry="1" /></g>
<ellipse fill="#ffffff" fill-opacity="0.501961" cx="134" cy="50" rx="13" ry="6" />
<g transform="translate(53 53) rotate(185) scale(47 10)"><rect fill="#000005" fill-opacity="0.501961" x="-0.5" y="-0.5" width="1" height="1" /></g>
<g transform="translate(22 119) rotate(147) scale(54 10)"><rect fill="#222024" fill-opacity="0.501961" x="-0.5" y="-0.5" width="1" height="1" /></g>
<ellipse fill="#f9b886" fill-opacity="0.501961" cx="71" cy="192" rx="117" ry="6" />
<rect fill="#d47e39" fill-opacity="0.501961" x="176" y="47" width="27" height="74" />
<ellipse fill="#000000" fill-opacity="0.501961" cx="80" cy="199" rx="79" ry="1" />
<polygon fill="#ffffff" fill-opacity="0.501961" points="80.911903,63.779046,119.231221,98.234831,41.310854,97.282105,32.582839,55.190515" />
<ellipse fill="#ffffff" fill-opacity="0.501961" cx="53" cy="0" rx="178" ry="1" />
<rect fill="#ffb362" fill-opacity="0.501961" x="4" y="37" width="27" height="69" />
<polygon fill="#bd703d" fill-opacity="0.501961" points="136,181 186,144 219,163" />
<ellipse fill="#7f5733" fill-opacity="0.501961" cx="103" cy="182" rx="118" ry="4" />
<ellipse fill="#1e1616" fill-opacity="0.501961" cx="95" cy="140" rx="10" ry="28" />
<polygon fill="#ec9f55" fill-opacity="0.501961" points="77.846932,150.474218,93.491882,165.287420,53.230653,171.630859,74.358728,196.233979" />
<ellipse fill="#ef8c45" fill-opacity="0.501961" cx="97" cy="13" rx="49" ry="13" />
<rect fill="#ffffff" fill-opacity="0.501961" x="206" y="0" width="1" height="211" />
<polygon fill="#aeaeaa" fill-opacity="0.501961" points="149,154 146,142 174,126" />
<polygon fill="#968480" fill-opacity="0.501961" points="58.483929,98.902818,83.924678,109.591125,135.097056,136.487730,27.279710,97.389712" />
<rect fill="#e1c0a3" fill-opacity="0.501961" x="111" y="100" width="26" height="38" />
<polygon fill="#ff9f51" fill-opacity="0.501961" points="31.174229,91.816522,-16.000000,74.251228,23.809347,118.520117,-16.000000,122.924467" />
<g transform="translate(158 69) rotate(246) scale(8 24)"><rect fill="#ffffff" fill-opacity="0.501961" x="-0.5" y="-0.5" width="1" height="1" /></g>
<polygon fill="#001644" fill-opacity="0.501961" points="-3.033868,99.052833,15.658575,107.909875,-8.458491,107.530638,-14.035089,106.445294" />
<polygon fill="#050609" fill-opacity="0.501961" points="132.513273,174.357203,171.264181,157.676283,98.602186,162.365856,46.103089,125.615726" />
<ellipse fill="#ffae64" fill-opacity="0.501961" cx="152" cy="22" rx="40" ry="15" />
<polygon fill="#75593f" fill-opacity="0.501961" points="140.641856,164.185826,102.475917,153.802049,100.572237,146.640206,150.438270,139.621242" />
<polygon fill="#cbd1d4" fill-opacity="0.501961" points="168.068276,61.123235,174.228539,100.817347,172.570082,110.435930,142.565063,135.170125" />
<polygon fill="#76513e" fill-opacity="0.501961" points="128.947193,151.636039,164.244776,115.009490,175.521524,106.020147,218.448201,95.074975" />
<polygon fill="#06040a" fill-opacity="0.501961" points="56,126 104,136 71,159" />
<g transform="translate(101 46) rotate(50) scale(1 40)"><rect fill="#000002" fill-opacity="0.501961" x="-0.5" y="-0.5" width="1" height="1" /></g>
<g transform="translate(102.237864 171.924846) rotate(85.850126) scale(7.850724 13.545584)"><ellipse fill="#d58343" fill-opacity="0.501961" cx="0" cy="0" rx="1" ry="1" /></g>
<rect fill="#221710" fill-opacity="0.501961" x="174" y="44" width="1" height="83" />
<ellipse fill="#edd3c0" fill-opacity="0.501961" cx="0" cy="162" rx="3" ry="7" />
<rect fill="#e6a164" fill-opacity="0.501961" x="175" y="13" width="29" height="57" />
<polygon fill="#ffcb87" fill-opacity="0.501961" points="-16.000000,30.391186,1.133317,101.101364,34.150503,42.901838,73.336681,18.987660" />
<polygon fill="#261416" fill-opacity="0.501961" points="-2.353147,122.513097,5.429955,183.377221,-8.495239,178.857303,33.943531,178.292588" />
<ellipse fill="#dacaaa" fill-opacity="0.501961" cx="44" cy="122" rx="10" ry="4" />
<polygon fill="#7a939e" fill-opacity="0.501961" points="113,37 52,44 77,52" />
<polygon fill="#9e5b34" fill-opacity="0.501961" points="3.526285,127.207809,45.374050,155.917891,59.455657,151.709232,56.483119,137.434291" />
<rect fill="#200000" fill-opacity="0.501961" x="31" y="52" width="2" height="80" />
<polygon fill="#271e1e" fill-opacity="0.501961" points="68.298195,30.022790,154.062078,43.529513,176.798818,59.673529,173.770690,41.114112" />
<polygon fill="#eee9ea" fill-opacity="0.501961" points="118,53 154,46 132,42" />
<polygon fill="#495e66" fill-opacity="0.501961" points="178.906075,55.022813,167.764164,47.972801,123.770867,56.406126,159.142934,63.993353" />
<rect fill="#56361b" fill-opacity="0.501961" x="90" y="199" width="115" height="2" />
<polygon fill="#191318" fill-opacity="0.501961" points="205,150 164,116 163,143" />
<polygon fill="#65483b" fill-opacity="0.501961" points="101.009439,130.680515,24.615106,114.968895,92.628835,110.445104,107.649816,122.694326" />
<polygon fill="#000000" fill-opacity="0.501961" points="74,30 58,29 48,36" />
<ellipse fill="#52230b" fill-opacity="0.501961" cx="30" cy="198" rx="41" ry="1" />
<g transform="translate(69.900438 176.028844) rotate(364.065855) scale(16.511555 5.380979)"><ellipse fill="#f1af6c" fill-opacity="0.501961" cx="0" cy="0" rx="1" ry="1" /></g>
<polygon fill="#080102" fill-opacity="0.501961" points="147.587577,168.160440,100.876907,164.545676,84.271036,172.682027,97.633501,156.606734" />
<polygon fill="#f8fff0" fill-opacity="0.501961" points="17.781511,5.072625,3.456756,-0.846209,149.597319,0.002314,56.567409,0.976915" />
<rect fill="#4b3418" fill-opacity="0.501961" x="80" y="183" width="105" height="2" />
<ellipse fill="#dab088" fill-opacity="0.501961" cx="195" cy="181" rx="46" ry="2" />
<rect fill="#ffffff" fill-opacity="0.501961" x="49" y="68" width="88" height="31" />
<ellipse fill="#e8c29e" fill-opacity="0.501961" cx="13" cy="206" rx="98" ry="7" />
<polygon fill="#a87047" fill-opacity="0.501961" points="45.250377,178.794008,-16.000000,179.494923,12.808627,195.093966,40.632051,185.758682" />
<rect fill="#2c2723" fill-opacity="0.501961" x="137" y="64" width="8" height="71" />
<polygon fill="#89543a" fill-opacity="0.501961" points="205,82 182,137 205,134" />
<polygon fill="#071319" fill-opacity="0.501961" points="74.088074,33.433771,121.475374,41.492489,101.406235,60.732840,130.271941,36.262948" />
<polygon fill="#556a74" fill-opacity="0.501961" points="83.037758,29.517125,49.367696,47.353633,34.955095,43.729412,45.457847,38.104101" />
<g transform="translate(96 106) rotate(279) scale(8 57)"><rect fill="#f3ddc8" fill-opacity="0.501961" x="-0.5" y="-0.5" width="1" height="1" /></g>
<polygon fill="#fcffff" fill-opacity="0.501961" points="39.719894,56.911153,131.182901,68.570333,46.188755,90.457483,35.955939,60.879863" />
<rect fill="#ffa959" fill-opacity="0.501961" x="75" y="156" width="13" height="5" />
<polygon fill="#f5af6e" fill-opacity="0.501961" points="102.193902,32.303948,44.240729,9.604810,-16.000000,3.863065,-10.817489,16.316728" />
<polygon fill="#d7d4ce" fill-opacity="0.501961" points="153.212985,154.769841,147.701894,143.205694,174.781869,92.124025,157.654402,75.593988" />
<ellipse fill="#977f61" fill-opacity="0.501961" cx="142" cy="175" rx="35" ry="3" />
<g transform="translate(25.902874 117.336062) rotate(283.919484) scale(10.860169 4.126413)"><ellipse fill="#172e28" fill-opacity="0.501961" cx="0" cy="0" rx="1" ry="1" /></g>
<rect fill="#421903" fill-opacity="0.501961" x="163" y="177" width="19" height="4" />
<polygon fill="#4e291d" fill-opacity="0.501961" points="6.016261,154.692273,52.815677,183.452567,89.092946,186.709271,72.923514,189.484345" />
<polygon fill="#967459" fill-opacity="0.501961" points="135.426467,92.048555,137.459878,96.306308,133.335980,149.428877,143.812673,163.952959" />
<rect fill="#d09c6f" fill-opacity="0.501961" x="130" y="188" width="59" height="12" />
<polygon fill="#0c090a" fill-opacity="0.501961" points="162.985808,40.561052,168.620325,40.147590,155.423819,52.395289,134.394854,66.966106" />
<polygon fill="#1f110f" fill-opacity="0.501961" points="163.358528,38.813528,65.853259,38.327626,125.193310,31.828144,123.794355,42.854910" />
<polygon fill="#2e1617" fill-opacity="0.501961" points="46.622135,157.936053,68.440064,169.168268,4.345710,178.664826,15.632011,145.601082" />
</g>
</svg>