<svg xmlns="http://www.w3.org/2000/svg" version="1.1" width="207" height="211">
<rect x="0" y="0" width="207" height="211" fill="#a7866a" />
<g transform="scale(1.000000) translate(0.5 0.5)">
<g transform="translate(59.748885 150.788446) rotate(-92.439986) scale(27.930824 198.434927)"><ellipse fill="#1a0000" fill-opacity="0.501961" cx="0" cy="0" rx="1" ry="1" /></g>
<polygon fill="#ffffff" fill-opacity="0.501961" points="-16,48 149,154 173,74" />
<ellipse fill="#00183e" fill-opacity="0.501961" cx="82" cy="44" rx="45" ry="17" />
<ellipse fill="#ffd571" fill-opacity="0.501961" cx="151" cy="10" rx="204" ry="22" />
<ellipse fill="#000000" fill-opacity="0.501961" cx="140" cy="113" rx="5" ry="64" />
<ellipse fill="#ffffff" fill-opacity="0.501961" cx="85" cy="83" rx="53" ry="21" />
<g transform="translate(6 44) rotate(188) scale(58 112)"><rect fill="#ffe17d" fill-opacity="0.501961" x="-0.5" y="-0.5" width="1" height="1" /></g>
<g transform="translate(82.659752 136.050655) rotate(302.368092) scale(15.147058 63.435187)"><ellipse fill="#0d0d12" fill-opacity="0.501961" cx="0" cy="0" rx="1" ry="1" /></g>
<polygon fill="#e9ab78" fill-opacity="0.501961" points="86,155 -16,216 221,223" />
<polygon fill="#002345" fill-opacity="0.501961" points="167.593013,40.263652,99.363569,63.903791,149.616323,69.742226,181.062324,43.827712" />
<rect fill="#e5feff" fill-opacity="0.501961" x="145" y="62" width="29" height="50" />
<polygon fill="#633b20" fill-opacity="0.501961" points="67,184 205,95 206,185" />
<g transform="translate(140 40) rotate(280) scale(6 57)"><rect fill="#000000" fill-opacity="0.501961" x="-0.5" y="-0.5" width="1" height="1" /></g>
<polygon fill="#ebffff" fill-opacity="0.501961" points="100,48 153,42 139,55" />
<ellipse fill="#ffffff" fill-opacity="0.501961" cx="86" cy="85" rx="51" ry="21" />
<polygon fill="#00050e" fill-opacity="0.501961" points="165.599781,63.734554,32.585165,46.500861,27.962141,132.422971,35.962369,57.228017" />
<g transform="translate(40.068110 159.849628) rotate(161.420730) scale(69.860383 12.060602)"><ellipse fill="#150609" fill-opacity="0.501961" cx="0" cy="0" rx="1" ry="1" /></g>
<g transform="translate(165.411987 16.681926) rotate(185.000993) scale(84.979636 23.178030)"><ellipse fill="#ffa662" fill-opacity="0.501961" cx="0" cy="0" rx="1" ry="1" /></g>
<rect fill="#c07f52" fill-opacity="0.501961" x="20" y="119" width="35" height="30" />
<polygon fill="#291b17" fill-opacity="0.501961" points="96.862931,168.897690,55.102080,122.807544,87.575646,108.462057,112.389368,126.444607" />
<polygon fill="#ffc985" fill-opacity="0.501961" points="-15,1 -5,94 77,-10" />
<g transform="translate(164.399666 152.141260) rotate(145.568474) scale(33.313893 7.321741)"><ellipse fill="#00000a" fill-opacity="0.501961" cx="0" cy="0" rx="1" ry="1" /></g>
<g transform="translate(15 125) rotate(147) scale(57 13)"><rect fill="#1e1b1e" fill-opacity="0.501961" x="-0.5" y="-0.5" width="1" height="1" /></g>
<rect fill="#ffffff" fill-opacity="0.501961" x="206" y="0" width="1" height="211" />
<rect fill="#ffffff" fill-opacity="0.501961" x="34" y="60" width="38" height="38" />
<ellipse fill="#000000" fill-opacity="0.501961" cx="141" cy="87" rx="4" ry="32" />
<ellipse fill="#ecc7a7" fill-opacity="0.501961" cx="91" cy="206" rx="197" ry="6" />
<polygon fill="#92b5c0" fill-opacity="0.501961" points="41,37 109,42 75,51" />
<polygon fill="#c09a7c" fill-opacity="0.501961" points="110.550165,125.001383,110.732699,144.737605,160.168873,148.752829,164.306530,132.877442" />
<rect fill="#f29342" fill-opacity="0.501961" x="176" y="41" width="28" height="48" />
</g>
</svg>