<svg xmlns="http://www.w3.org/2000/svg" version="1.1" width="207" height="211">
<rect x="0" y="0" width="207" height="211" fill="#a7866a" />
<g transform="scale(1.000000) translate(0.5 0.5)">
<g transform="translate(103 86) rotate(276) scale(42 139)"><rect fill="#ffffff" fill-opacity="0.501961" x="-0.5" y="-0.5" width="1" height="1" /></g>
<g transform="translate(62.929179 150.855884) rotate(357.294647) scale(183.335188 27.324387)"><ellipse fill="#180000" fill-opacity="0.501961" cx="0" cy="0" rx="1" ry="1" /></g>
<g transform="translate(107.258294 47.713664) rotate(186.449306) scale(64.043998 18.677496)"><ellipse fill="#002a4d" fill-opacity="0.501961" cx="0" cy="0" rx="1" ry="1" /></g>
<g transform="translate(11.142222 40.367885) rotate(391.524631) scale(25.673406 194.548692)"><ellipse fill="#fff88d" fill-opacity="0.501961" cx="0" cy="0" rx="1" ry="1" /></g>
<polygon fill="#ffffff" fill-opacity="0.501961" points="129,67 31,55 139,155" />
<g transform="translate(133.823597 9.459979) rotate(6.882672) scale(193.562315 26.060336)"><ellipse fill="#ffc76b" fill-opacity="0.501961" cx="0" cy="0" rx="1" ry="1" /></g>
<ellipse fill="#000000" fill-opacity="0.501961" cx="141" cy="92" rx="4" ry="37" />
<g transform="translate(88.685177 139.652339) rotate(35.433808) scale(73.813538 14.786876)"><ellipse fill="#161316" fill-opacity="0.501961" cx="0" cy="0" rx="1" ry="1" /></g>
<g transform="translate(74.060056 196.930777) rotate(-30.752303) scale(47.574084 30.809536)"><ellipse fill="#edaa72" fill-opacity="0.501961" cx="0" cy="0" rx="1" ry="1" /></g>
<polygon fill="#f2ffff" fill-opacity="0.501961" points="149,158 145,68 176,57" />
<polygon fill="#000009" fill-opacity="0.501961" points="167.736774,66.541041,30.179169,44.743999,32.184358,54.276069,47.497215,58.029459" />
<polygon fill="#f8f6fc" fill-opacity="0.501961" points="109.542568,55.874003,133.139393,58.707285,157.169390,46.083593,133.234231,42.437202" />
<g transform="translate(84.876241 83.858796) rotate(182.110678) scale(51.461508 20.660431)"><ellipse fill="#ffffff" fill-opacity="0.501961" cx="0" cy="0" rx="1" ry="1" /></g>
<rect fill="#ffcc7a" fill-opacity="0.501961" x="4" y="0" width="27" height="106" />
<polygon fill="#120005" fill-opacity="0.501961" points="-16,167 109,126 44,183" />
<polygon fill="#845229" fill-opacity="0.501961" points="187.963773,185.938346,69.729934,187.624085,42.358087,185.335356,222.000000,151.687217" />
<g transform="translate(182 132) rotate(260) scale(34 41)"><rect fill="#2c0806" fill-opacity="0.501961" x="-0.5" y="-0.5" width="1" height="1" /></g>
<g transform="translate(29.507037 127.760149) rotate(125.211638) scale(14.834764 39.361438)"><ellipse fill="#9d633d" fill-opacity="0.501961" cx="0" cy="0" rx="1" ry="1" /></g>
<ellipse fill="#fcd1ac" fill-opacity="0.501961" cx="90" cy="210" rx="206" ry="10" />
<rect fill="#ffffff" fill-opacity="0.501961" x="206" y="0" width="1" height="211" />
<rect fill="#000000" fill-opacity="0.501961" x="72" y="32" width="54" height="8" />
<g transform="translate(157.812420 156.520690) rotate(59.104928) scale(6.477269 31.272203)"><ellipse fill="#000003" fill-opacity="0.501961" cx="0" cy="0" rx="1" ry="1" /></g>
<g transform="translate(162 49) rotate(3) scale(26 19)"><rect fill="#0c1921" fill-opacity="0.501961" x="-0.5" y="-0.5" width="1" height="1" /></g>
<polygon fill="#ffa960" fill-opacity="0.501961" points="3,12 188,42 196,-8" />
<rect fill="#0c0b0a" fill-opacity="0.501961" x="137" y="74" width="8" height="55" />
<g transform="translate(21.265402 121.784221) rotate(56.548930) scale(6.599786 30.990333)"><ellipse fill="#1a1f26" fill-opacity="0.501961" cx="0" cy="0" rx="1" ry="1" /></g>
<polygon fill="#8ca5b1" fill-opacity="0.501961" points="105.396782,53.197314,130.377821,47.991548,52.897415,36.182719,48.766154,45.860752" />
<g transform="translate(136.400827 136.112085) rotate(283.260027) scale(17.159998 27.933134)"><ellipse fill="#b18c6d" fill-opacity="0.501961" cx="0" cy="0" rx="1" ry="1" /></g>
<rect fill="#d4833f" fill-opacity="0.501961" x="176" y="39" width="29" height="80" />
<rect fill="#000000" fill-opacity="0.501961" x="31" y="52" width="3" height="56" />
<ellipse fill="#000000" fill-opacity="0.501961" cx="49" cy="199" rx="106" ry="1" />
<polygon fill="#4b382c" fill-opacity="0.501961" points="153.822681,157.631006,47.405942,103.842415,109.951910,118.457132,89.046355,167.181062" />
<ellipse fill="#eaac7f" fill-opacity="0.501961" cx="131" cy="192" rx="159" ry="7" />
<g transform="translate(67.860467 83.761015) rotate(300.835193) scale(18.827068 39.985249)"><ellipse fill="#ffffff" fill-opacity="0.501961" cx="0" cy="0" rx="1" ry="1" /></g>
<ellipse fill="#ffffff" fill-opacity="0.501961" cx="50" cy="0" rx="158" ry="1" />
<polygon fill="#feaf5a" fill-opacity="0.501961" points="55,173 86,154 74,183" />
<polygon fill="#b88565" fill-opacity="0.501961" points="48.541933,144.136810,9.302054,137.176631,74.406809,102.188623,60.884254,97.579735" />
<rect fill="#ffffff" fill-opacity="0.501961" x="39" y="68" width="97" height="31" />
<polygon fill="#eeedec" fill-opacity="0.501961" points="144,109 145,133 166,111" />
<polygon fill="#081a27" fill-opacity="0.501961" points="109.495344,64.624799,33.900093,56.045687,35.459534,40.984770,74.295247,57.587349" />
<polygon fill="#ffbe78" fill-opacity="0.501961" points="31.620018,42.102715,79.262079,19.801743,-16.000000,11.756753,18.842930,128.123826" />
<polygon fill="#000000" fill-opacity="0.501961" points="95,163 57,135 137,166" />
<polygon fill="#e8f7fa" fill-opacity="0.501961" points="147,69 175,56 145,111" />
<rect fill="#985f3c" fill-opacity="0.501961" x="178" y="150" width="28" height="51" />
<polygon fill="#13232d" fill-opacity="0.501961" points="145,70 155,56 94,54" />
<polygon fill="#fdfeff" fill-opacity="0.501961" points="130.832335,55.086510,143.252980,57.697431,133.006701,42.392585,118.192305,50.971113" />
<g transform="translate(139 40) rotate(186) scale(63 4)"><rect fill="#100000" fill-opacity="0.501961" x="-0.5" y="-0.5" width="1" height="1" /></g>
<ellipse fill="#785231" fill-opacity="0.501961" cx="20" cy="182" rx="140" ry="3" />
<rect fill="#865338" fill-opacity="0.501961" x="173" y="98" width="33" height="31" />
<polygon fill="#e9c9ad" fill-opacity="0.501961" points="115.020002,141.143401,94.238697,98.458788,137.759680,105.378833,127.952791,131.218200" />
</g>
</svg>