<svg xmlns="http://www.w3.org/2000/svg" version="1.1" width="32" height="32">
<rect x="0" y="0" width="32" height="32" fill="#748059" />
<g transform="scale(1.000000) translate(0.5 0.5)">
<polygon fill="#ffffff" fill-opacity="0.501961" points="3.213882,12.795606,4.918794,5.427586,26.404490,5.380262,29.309835,19.218108" />
<g transform="translate(11.889468 27.713446) rotate(116.367018) scale(9.701497 31.000000)"><ellipse fill="#304704" fill-opacity="0.501961" cx="0" cy="0" rx="1" ry="1" /></g>
<polygon fill="#2d3707" fill-opacity="0.501961" points="24.023548,2.283838,37.142204,47.000000,30.412922,-16.000000,-10.664163,5.922887" />
<rect fill="#fdfffa" fill-opacity="0.501961" x="3" y="5" width="21" height="8" />
<rect fill="#cecfc2" fill-opacity="0.501961" x="4" y="9" width="2" height="18" />
<polygon fill="#474f2a" fill-opacity="0.501961" points="47.000000,19.471273,-9.059831,-11.576164,-0.572469,13.067910,19.136880,-16.000000" />
<g transform="translate(26 17) rotate(258) scale(17 1)"><rect fill="#e4dfd5" fill-opacity="0.501961" x="-0.5" y="-0.5" width="1" height="1" /></g>
<g transform="translate(7 18) rotate(157) scale(1 19)"><rect fill="#aeb29d" fill-opacity="0.501961" x="-0.5" y="-0.5" width="1" height="1" /></g>
<g transform="translate(25 28) rotate(79) scale(28 1)"><rect fill="#283d00" fill-opacity="0.501961" x="-0.5" y="-0.5" width="1" height="1" /></g>
<polygon fill="#39500e" fill-opacity="0.501961" points="-14.889575,47.000000,-4.484638,-16.000000,9.234859,43.917845,18.871110,16.530068" />
<polygon fill="#abb09b" fill-opacity="0.501961" points="20.305726,23.197326,22.563000,31.475308,21.346711,16.845679,20.922993,-16.000000" />
<g transform="translate(11 10) rotate(161) scale(4 13)"><rect fill="#e7ece7" fill-opacity="0.501961" x="-0.5" y="-0.5" width="1" height="1" /></g>
<polygon fill="#4a4d32" fill-opacity="0.501961" points="41,-16 15,5 -1,-4" />
<rect fill="#000000" fill-opacity="0.501961" x="12" y="23" width="5" height="3" />
<g transform="translate(20 19) rotate(120) scale(14 1)"><rect fill="#adb29f" fill-opacity="0.501961" x="-0.5" y="-0.5" width="1" height="1" /></g>
<polygon fill="#41600c" fill-opacity="0.501961" points="30.853678,4.766066,29.205670,47.000000,0.683364,30.166615,47.000000,27.098888" />
<g transform="translate(7 18) rotate(206) scale(1 11)"><rect fill="#333924" fill-opacity="0.501961" x="-0.5" y="-0.5" width="1" height="1" /></g>
<rect fill="#000000" fill-opacity="0.501961" x="19" y="23" width="2" height="3" />
<polygon fill="#d2d4bf" fill-opacity="0.501961" points="26,10 20,4 27,23" />
<ellipse fill="#f5f6f4" fill-opacity="0.501961" cx="15" cy="8" rx="7" ry="3" />
<g transform="translate(8 19) rotate(212) scale(1 3)"><rect fill="#c1cea9" fill-opacity="0.501961" x="-0.5" y="-0.5" width="1" height="1" /></g>
<rect fill="#c0c9aa" fill-opacity="0.501961" x="28" y="18" width="1" height="8" />
<polygon fill="#435816" fill-opacity="0.501961" points="23.511877,5.831932,47.000000,2.575864,14.561381,47.000000,47.000000,31.656032" />
<polygon fill="#3f4d15" fill-opacity="0.501961" points="3,11 -3,-11 -11,13" />
<polygon fill="#395417" fill-opacity="0.501961" points="10,22 17,17 10,16" />
<polygon fill="#d6dbc8" fill-opacity="0.501961" points="19.767764,3.918813,14.222110,7.392819,17.853263,8.657157,21.962653,23.783530" />
<g transform="translate(25.547915 26.139233) rotate(34.268387) scale(2.942947 1.000000)"><ellipse fill="#192110" fill-opacity="0.501961" cx="0" cy="0" rx="1" ry="1" /></g>
<ellipse fill="#000d03" fill-opacity="0.501961" cx="13" cy="24" rx="3" ry="2" />
<g transform="translate(10 13) rotate(250) scale(1 4)"><rect fill="#c1d0c3" fill-opacity="0.501961" x="-0.5" y="-0.5" width="1" height="1" /></g>
<g transform="translate(25 16) rotate(180) scale(1 14)"><rect fill="#cdd5bc" fill-opacity="0.501961" x="-0.5" y="-0.5" width="1" height="1" /></g>
<rect fill="#38410f" fill-opacity="0.501961" x="7" y="20" width="1" height="11" />
<g transform="translate(22 17) rotate(153) scale(1 4)"><rect fill="#4f6132" fill-opacity="0.501961" x="-0.5" y="-0.5" width="1" height="1" /></g>
<path stroke="#9fa897" stroke-opacity="0.501961" fill="none" d="M 18.290449 13.700272 Q 4.825124 14.112032, 10.513033 26.413442" stroke-width="0.500000" />
<path stroke="#bcc0af" stroke-opacity="0.501961" fill="none" d="M 21.761496 27.635850 Q 22.940770 6.630472, 4.245126 3.776588" stroke-width="0.500000" />
<rect fill="#5d6245" fill-opacity="0.501961" x="4" y="1" width="28" height="2" />
<ellipse fill="#485b44" fill-opacity="0.501961" cx="10" cy="17" rx="2" ry="2" />
<polygon fill="#4c6122" fill-opacity="0.501961" points="21.262329,29.266776,-8.604689,25.669234,10.764922,47.000000,31.260076,18.836588" />
<g transform="translate(9 25) rotate(5) scale(1 2)"><rect fill="#babba6" fill-opacity="0.501961" x="-0.5" y="-0.5" width="1" height="1" /></g>
<polygon fill="#f3f4ee" fill-opacity="0.501961" points="8,9 19,8 21,4" />
<g transform="translate(24 25) rotate(21) scale(5 1)"><rect fill="#0a0e0f" fill-opacity="0.501961" x="-0.5" y="-0.5" width="1" height="1" /></g>
<polygon fill="#505332" fill-opacity="0.501961" points="-16.000000,-8.635294,-4.715851,12.566433,21.860453,-9.066983,15.369562,5.913718" />
<path stroke="#b7bea9" stroke-opacity="0.501961" fill="none" d="M 16.655775 6.844474 Q 22.748017 24.313720, 22.418364 27.677739" stroke-width="0.500000" />
<path stroke="#adb49a" stroke-opacity="0.501961" fill="none" d="M 24.283895 9.807509 Q 19.113679 12.956009, 17.211866 26.960670" stroke-width="0.500000" />
<g transform="translate(17 15) rotate(164) scale(11 1)"><rect fill="#9ca39c" fill-opacity="0.501961" x="-0.5" y="-0.5" width="1" height="1" /></g>
<g transform="translate(28 25) rotate(101) scale(3 1)"><rect fill="#c4cec5" fill-opacity="0.501961" x="-0.5" y="-0.5" width="1" height="1" /></g>
<ellipse fill="#cdd3c5" fill-opacity="0.501961" cx="5" cy="13" rx="1" ry="5" />
<rect fill="#c6c8bb" fill-opacity="0.501961" x="14" y="12" width="14" height="3" />
<polygon fill="#485f18" fill-opacity="0.501961" points="9,26 43,32 -16,41" />
<path stroke="#727f62" stroke-opacity="0.501961" fill="none" d="M 23.691146 13.336821 Q 23.265046 28.971786, 35.585336 28.575238" stroke-width="0.500000" />
<path stroke="#6c7a48" stroke-opacity="0.501961" fill="none" d="M -15.461993 18.921162 Q 34.291856 28.567698, 34.593135 9.343117" stroke-width="0.500000" />
</g>
</svg>