<svg xmlns="http://www.w3.org/2000/svg" version="1.1" width="375" height="453">
<rect x="0" y="0" width="375" height="453" fill="#adb0b2" />
<g transform="scale(1.769531) translate(0.5 0.5)">
<g transform="translate(138.643896 94.623646) rotate(284.686522) scale(85.342926 32.533794)"><ellipse fill="#000000" fill-opacity="0.501961" cx="0" cy="0" rx="1" ry="1" /></g>
<g transform="translate(204.013910 66.294747) rotate(175.318311) scale(28.237407 145.680449)"><ellipse fill="#ffffff" fill-opacity="0.501961" cx="0" cy="0" rx="1" ry="1" /></g>
<polygon fill="#000000" fill-opacity="0.501961" points="192.130586,199.457314,170.675369,38.374206,149.692391,8.726367,165.098566,131.153482" />
<g transform="translate(0.000000 128.381197) rotate(94.141523) scale(211.000000 21.333347)"><ellipse fill="#ffffff" fill-opacity="0.501961" cx="0" cy="0" rx="1" ry="1" /></g>
<g transform="translate(105 34) rotate(301) scale(31 70)"><rect fill="#000912" fill-opacity="0.501961" x="-0.5" y="-0.5" width="1" height="1" /></g>
<g transform="translate(160.842313 255.000000) rotate(70.033988) scale(28.441572 185.308438)"><ellipse fill="#ffffff" fill-opacity="0.501961" cx="0" cy="0" rx="1" ry="1" /></g>
<g transform="translate(30.872237 21.737103) rotate(235.419763) scale(20.259339 137.044813)"><ellipse fill="#ffffff" fill-opacity="0.501961" cx="0" cy="0" rx="1" ry="1" /></g>
<polygon fill="#00020d" fill-opacity="0.501961" points="144,140 76,213 137,60" />
<g transform="translate(30 254) rotate(197) scale(150 55)"><rect fill="#ffffff" fill-opacity="0.501961" x="-0.5" y="-0.5" width="1" height="1" /></g>
<polygon fill="#000100" fill-opacity="0.501961" points="21.424435,87.306099,17.975857,131.439735,31.691454,110.694276,41.751123,30.000789" />
<polygon fill="#000000" fill-opacity="0.501961" points="45.291901,230.217076,26.781237,223.025407,166.963214,231.288484,87.116014,242.082813" />
<g transform="translate(203.376335 70.920686) rotate(177.468658) scale(28.453442 100.939059)"><ellipse fill="#ffffff" fill-opacity="0.501961" cx="0" cy="0" rx="1" ry="1" /></g>
<polygon fill="#ffffff" fill-opacity="0.501961" points="227.000000,0.104742,208.342702,218.958915,175.440662,21.090848,46.346393,-4.309131" />
<polygon fill="#000000" fill-opacity="0.501961" points="164.763747,215.752505,209.449577,198.601984,177.259616,198.280065,163.861086,192.139634" />
<rect fill="#d4d8df" fill-opacity="0.501961" x="47" y="41" width="61" height="115" />
<polygon fill="#ffffff" fill-opacity="0.501961" points="151.915256,129.028822,155.509752,77.754234,178.985805,193.880911,165.323091,174.269502" />
<ellipse fill="#000000" fill-opacity="0.501961" cx="23" cy="193" rx="4" ry="29" />
<g transform="translate(172.113026 112.378259) rotate(349.767941) scale(5.541536 64.973962)"><ellipse fill="#000000" fill-opacity="0.501961" cx="0" cy="0" rx="1" ry="1" /></g>
<g transform="translate(175.031126 248.537559) rotate(328.760534) scale(57.944357 29.793904)"><ellipse fill="#ffffff" fill-opacity="0.501961" cx="0" cy="0" rx="1" ry="1" /></g>
<g transform="translate(9.625678 45.921176) rotate(106.195204) scale(211.000000 24.722257)"><ellipse fill="#ffffff" fill-opacity="0.501961" cx="0" cy="0" rx="1" ry="1" /></g>
<polygon fill="#ffffff" fill-opacity="0.501961" points="155.100884,44.160548,155.743827,138.017972,153.811275,77.169390,143.865933,23.633812" />
<rect fill="#000000" fill-opacity="0.501961" x="82" y="187" width="7" height="53" />
<polygon fill="#1f2830" fill-opacity="0.501961" points="131.461022,7.906431,169.166023,24.608857,110.680054,39.246689,111.576129,192.692045" />
<polygon fill="#10100d" fill-opacity="0.501961" points="180.518347,183.464008,214.909188,218.940638,186.182223,174.372411,162.713130,198.072256" />
<g transform="translate(31.425881 245.727757) rotate(192.032969) scale(176.491198 16.600308)"><ellipse fill="#ffffff" fill-opacity="0.501961" cx="0" cy="0" rx="1" ry="1" /></g>
<polygon fill="#000309" fill-opacity="0.501961" points="156.619553,153.801829,145.215511,95.606533,164.433010,111.287219,153.529187,120.138096" />
<polygon fill="#000200" fill-opacity="0.501961" points="71.093764,245.329335,116.093735,232.196670,161.656619,225.437206,154.860138,231.636797" />
<g transform="translate(55.442583 202.510836) rotate(45.164882) scale(31.774384 21.737269)"><ellipse fill="#d4d8d6" fill-opacity="0.501961" cx="0" cy="0" rx="1" ry="1" /></g>
<ellipse fill="#000000" fill-opacity="0.501961" cx="167" cy="45" rx="9" ry="24" />
<ellipse fill="#ffffff" fill-opacity="0.501961" cx="36" cy="10" rx="37" ry="24" />
<polygon fill="#ffffff" fill-opacity="0.501961" points="144.899105,11.132467,2.051797,-0.810359,209.077149,-9.584727,227.000000,39.882777" />
<polygon fill="#9fa7ac" fill-opacity="0.501961" points="142.410561,149.793081,93.622505,184.203280,91.526891,237.529177,168.841985,160.628447" />
<polygon fill="#000000" fill-opacity="0.501961" points="195.237745,169.338261,191.998994,198.841064,172.894425,70.904520,164.562695,131.623424" />
<ellipse fill="#ffffff" fill-opacity="0.501961" cx="8" cy="139" rx="9" ry="255" />
<polygon fill="#303637" fill-opacity="0.501961" points="112.872102,5.598091,66.340613,9.012746,132.583163,18.828747,34.514578,41.820201" />
<polygon fill="#ffffff" fill-opacity="0.501961" points="163,193 158,113 182,178" />
<g transform="translate(53.469648 228.863762) rotate(17.499385) scale(27.625857 3.268052)"><ellipse fill="#030603" fill-opacity="0.501961" cx="0" cy="0" rx="1" ry="1" /></g>
<polygon fill="#ffffff" fill-opacity="0.501961" points="110.269017,25.413600,108.282380,18.383495,127.221715,23.248969,127.670124,30.694874" />
<g transform="translate(182.082975 241.592448) rotate(72.564295) scale(32.358461 28.036286)"><ellipse fill="#ffffff" fill-opacity="0.501961" cx="0" cy="0" rx="1" ry="1" /></g>
<polygon fill="#030705" fill-opacity="0.501961" points="36.078922,42.902343,16.070619,134.646864,27.686526,71.337075,52.686495,29.190194" />
<ellipse fill="#9f9c9b" fill-opacity="0.501961" cx="97" cy="89" rx="13" ry="35" />
<ellipse fill="#ecf0ed" fill-opacity="0.501961" cx="65" cy="55" rx="25" ry="20" />
<g transform="translate(31 123) rotate(99) scale(86 6)"><rect fill="#e9eff6" fill-opacity="0.501961" x="-0.5" y="-0.5" width="1" height="1" /></g>
<rect fill="#000000" fill-opacity="0.501961" x="162" y="200" width="29" height="10" />
<polygon fill="#222420" fill-opacity="0.501961" points="19.830647,138.857620,16.459178,129.952161,26.015535,74.589813,26.525281,120.049587" />
<polygon fill="#c5cad0" fill-opacity="0.501961" points="81.611621,236.624953,82.465498,186.572991,56.856822,46.034909,24.541325,208.530643" />
<polygon fill="#0b1114" fill-opacity="0.501961" points="106.334607,153.651471,81.305131,193.161463,140.654429,150.755661,106.610697,140.137557" />
<polygon fill="#56595b" fill-opacity="0.501961" points="33.316587,131.320971,45.870505,75.433473,38.730828,138.232450,32.533998,167.860488" />
<g transform="translate(135 58) rotate(320) scale(5 11)"><rect fill="#ffffff" fill-opacity="0.501961" x="-0.5" y="-0.5" width="1" height="1" /></g>
<polygon fill="#3a4148" fill-opacity="0.501961" points="135.273243,33.212309,70.175826,37.604129,72.940815,7.977620,130.149074,86.002872" />
<polygon fill="#fffffe" fill-opacity="0.501961" points="189.002876,186.796836,167.533083,190.973732,227.000000,217.501754,193.993033,271.000000" />
<polygon fill="#ffffff" fill-opacity="0.501961" points="36.451859,46.518940,74.644866,-16.000000,-16.000000,2.012792,0.221151,121.301608" />
<polygon fill="#ffffff" fill-opacity="0.501961" points="173.015335,55.739397,176.712872,91.848856,211.408948,231.573412,219.122480,-16.000000" />
<polygon fill="#ffffff" fill-opacity="0.501961" points="152.046829,28.115529,142.871378,39.732036,146.896767,32.753677,156.001639,95.637971" />
<g transform="translate(118.732707 250.176839) rotate(360.636129) scale(134.960675 8.495602)"><ellipse fill="#ffffff" fill-opacity="0.501961" cx="0" cy="0" rx="1" ry="1" /></g>
<g transform="translate(51 193) rotate(104) scale(5 16)"><rect fill="#0b0e0f" fill-opacity="0.501961" x="-0.5" y="-0.5" width="1" height="1" /></g>
<polygon fill="#000000" fill-opacity="0.501961" points="207.733770,205.333448,204.723560,210.587715,194.146688,199.784222,181.506542,178.107693" />
<polygon fill="#b7bcbf" fill-opacity="0.501961" points="159,162 164,223 94,233" />
<polygon fill="#1a1e1f" fill-opacity="0.501961" points="47.642763,34.546700,35.474258,46.057204,29.217310,62.147061,26.020819,94.939003" />
<ellipse fill="#000000" fill-opacity="0.501961" cx="164" cy="60" rx="10" ry="39" />
<polygon fill="#31393f" fill-opacity="0.501961" points="166.919097,17.729188,122.682858,11.421546,154.095657,102.008309,146.839524,33.044604" />
<rect fill="#ffffff" fill-opacity="0.501961" x="167" y="151" width="10" height="30" />
<polygon fill="#000000" fill-opacity="0.501961" points="165,168 162,156 158,156" />
<polygon fill="#ffffff" fill-opacity="0.501961" points="28.504550,32.390928,9.288242,194.535696,49.091076,271.000000,-16.000000,222.280427" />
<g transform="translate(15.441882 181.564823) rotate(92.728053) scale(28.425616 5.452656)"><ellipse fill="#a2aaae" fill-opacity="0.501961" cx="0" cy="0" rx="1" ry="1" /></g>
<polygon fill="#141c22" fill-opacity="0.501961" points="28.938861,224.379770,21.454493,175.918995,18.690608,212.438939,23.800909,219.480838" />
<polygon fill="#ffffff" fill-opacity="0.501961" points="156.108511,153.719630,154.975830,119.992943,162.304706,116.280002,175.923976,167.322437" />
<polygon fill="#262d36" fill-opacity="0.501961" points="117.136203,151.584370,108.365649,26.756186,132.743766,68.588858,157.451026,150.989910" />
<g transform="translate(182.369273 165.905125) rotate(170.628205) scale(4.808341 17.009410)"><ellipse fill="#0d0f0e" fill-opacity="0.501961" cx="0" cy="0" rx="1" ry="1" /></g>
<rect fill="#000000" fill-opacity="0.501961" x="91" y="63" width="5" height="7" />
<polygon fill="#ffffff" fill-opacity="0.501961" points="77.921279,-16.000000,-16.000000,3.802406,18.387133,38.676351,71.580269,27.139105" />
<polygon fill="#000000" fill-opacity="0.501961" points="163,213 172,186 164,194" />
<polygon fill="#000000" fill-opacity="0.501961" points="160,101 180,161 180,105" />
<polygon fill="#f8f8f7" fill-opacity="0.501961" points="197.711698,193.548852,184.186801,162.594100,223.640119,210.265606,201.710302,199.710845" />
<polygon fill="#ffffff" fill-opacity="0.501961" points="196,18 148,-16 105,6" />
<polygon fill="#4d5254" fill-opacity="0.501961" points="101.294511,209.793258,105.562740,185.404037,160.127590,153.182741,109.291622,187.428495" />
<polygon fill="#aab2ba" fill-opacity="0.501961" points="57,148 111,71 102,161" />
<polygon fill="#1b2226" fill-opacity="0.501961" points="122.883040,234.770401,91.841402,231.872108,82.203077,185.326266,80.954542,241.404782" />
<polygon fill="#3c454b" fill-opacity="0.501961" points="76.819438,6.852986,99.377287,5.959151,125.009110,53.645764,68.520289,34.197834" />
<rect fill="#363a36" fill-opacity="0.501961" x="34" y="151" width="3" height="24" />
<polygon fill="#091010" fill-opacity="0.501961" points="76,33 60,28 47,35" />
<polygon fill="#ffffff" fill-opacity="0.501961" points="192.299503,208.513722,188.807940,192.746683,227.000000,244.314394,84.548600,271.000000" />
<polygon fill="#151715" fill-opacity="0.501961" points="101.535676,16.245770,150.808400,19.679192,85.293119,19.805995,115.621763,30.106004" />
<polygon fill="#090c0b" fill-opacity="0.501961" points="158.233573,227.245117,69.766749,237.193730,103.214490,241.120766,150.778309,230.434845" />
<polygon fill="#0a0908" fill-opacity="0.501961" points="165.393853,117.182480,170.343211,149.481814,188.231283,151.351655,186.051136,143.996763" />
<polygon fill="#12191e" fill-opacity="0.501961" points="153.704518,104.408490,176.445313,105.732987,149.335293,120.134240,145.184395,62.457093" />
<ellipse fill="#a1a7a9" fill-opacity="0.501961" cx="147" cy="133" rx="2" ry="28" />
<polygon fill="#ffffff" fill-opacity="0.501961" points="182.514558,143.115135,227.000000,55.203765,169.764457,17.692878,182.654357,55.871281" />
<polygon fill="#d2d8d6" fill-opacity="0.501961" points="38.781642,56.629109,77.482308,38.155887,102.342672,44.331060,110.579334,64.306055" />
<g transform="translate(203 150) rotate(301) scale(32 26)"><rect fill="#ffffff" fill-opacity="0.501961" x="-0.5" y="-0.5" width="1" height="1" /></g>
<rect fill="#c30001" fill-opacity="0.501961" x="98" y="68" width="6" height="6" />
<polygon fill="#59636b" fill-opacity="0.501961" points="121.626475,47.102073,70.732301,26.460964,83.655751,22.376418,144.122793,33.158794" />
<polygon fill="#b3bec4" fill-opacity="0.501961" points="96.768709,193.387011,88.016930,197.799254,139.212273,157.271151,151.478784,155.534222" />
<polygon fill="#fdfcfc" fill-opacity="0.501961" points="164.950881,176.953523,163.813528,190.111423,182.351471,182.452335,162.948984,122.220318" />
<polygon fill="#ffffff" fill-opacity="0.501961" points="119,27 128,23 107,20" />
<polygon fill="#f6f8f4" fill-opacity="0.501961" points="163.144322,105.132557,153.276392,105.371054,156.047736,82.462776,161.886245,108.205670" />
<g transform="translate(182 155) rotate(229) scale(39 1)"><rect fill="#050704" fill-opacity="0.501961" x="-0.5" y="-0.5" width="1" height="1" /></g>
<polygon fill="#c0bfbe" fill-opacity="0.501961" points="97.738147,250.703018,100.248589,244.671025,30.660191,227.207860,41.919208,236.553308" />
<g transform="translate(108.182622 220.491839) rotate(62.207570) scale(11.040112 19.857300)"><ellipse fill="#aaacb1" fill-opacity="0.501961" cx="0" cy="0" rx="1" ry="1" /></g>
<g transform="translate(42 104) rotate(193) scale(1 60)"><rect fill="#4e504e" fill-opacity="0.501961" x="-0.5" y="-0.5" width="1" height="1" /></g>
</g>
</svg>