<svg xmlns="http://www.w3.org/2000/svg" version="1.1" width="375" height="453">
<rect x="0" y="0" width="375" height="453" fill="#adb0b2" />
<g transform="scale(1.769531) translate(0.5 0.5)">
<g transform="translate(138.703524 93.137474) rotate(283.188432) scale(84.740156 33.182737)"><ellipse fill="#000000" fill-opacity="0.501961" cx="0" cy="0" rx="1" ry="1" /></g>
<polygon fill="#0f1418" fill-opacity="0.501961" points="186,163 169,23 68,6" />
<g transform="translate(206.906917 74.115699) rotate(86.060931) scale(133.478262 31.521136)"><ellipse fill="#ffffff" fill-opacity="0.501961" cx="0" cy="0" rx="1" ry="1" /></g>
<g transform="translate(0.000000 136.562900) rotate(4.091855) scale(20.800024 211.000000)"><ellipse fill="#ffffff" fill-opacity="0.501961" cx="0" cy="0" rx="1" ry="1" /></g>
<g transform="translate(192.647262 240.043326) rotate(250.876860) scale(25.209797 211.000000)"><ellipse fill="#ffffff" fill-opacity="0.501961" cx="0" cy="0" rx="1" ry="1" /></g>
<polygon fill="#ffffff" fill-opacity="0.501961" points="101,-13 -16,-12 -16,88" />
<g transform="translate(114.036480 153.881663) rotate(211.612194) scale(9.337089 62.485669)"><ellipse fill="#000009" fill-opacity="0.501961" cx="0" cy="0" rx="1" ry="1" /></g>
<polygon fill="#0b0d0c" fill-opacity="0.501961" points="23,220 86,244 154,229" />
<g transform="translate(45.977903 255.000000) rotate(285.192196) scale(24.306359 133.126022)"><ellipse fill="#ffffff" fill-opacity="0.501961" cx="0" cy="0" rx="1" ry="1" /></g>
<polygon fill="#000000" fill-opacity="0.501961" points="198.241917,191.718646,154.018948,204.203249,186.848504,213.479688,149.861611,13.759857" />
<polygon fill="#ffffff" fill-opacity="0.501961" points="150.239596,18.397593,155.562096,148.934485,198.014389,219.646930,165.243739,131.846366" />
<g transform="translate(27.249736 92.121616) rotate(191.497646) scale(5.053236 40.332799)"><ellipse fill="#000000" fill-opacity="0.501961" cx="0" cy="0" rx="1" ry="1" /></g>
<polygon fill="#ffffff" fill-opacity="0.501961" points="60.326643,-0.895272,224.347283,-2.960181,209.520696,271.000000,175.292204,20.413909" />
<ellipse fill="#000000" fill-opacity="0.501961" cx="23" cy="194" rx="4" ry="28" />
<g transform="translate(66.818830 77.695531) rotate(265.121822) scale(43.823969 26.697573)"><ellipse fill="#e2e8eb" fill-opacity="0.501961" cx="0" cy="0" rx="1" ry="1" /></g>
<polygon fill="#152128" fill-opacity="0.501961" points="122,45 102,8 57,33" />
<ellipse fill="#ffffff" fill-opacity="0.501961" cx="192" cy="255" rx="46" ry="46" />
<polygon fill="#070806" fill-opacity="0.501961" points="193.624469,197.677196,174.072465,162.178195,208.202503,207.145306,153.229443,210.539695" />
<g transform="translate(0.000000 80.597831) rotate(104.783189) scale(113.545519 24.257475)"><ellipse fill="#ffffff" fill-opacity="0.501961" cx="0" cy="0" rx="1" ry="1" /></g>
<g transform="translate(78.656167 118.629926) rotate(370.393549) scale(31.687912 78.892306)"><ellipse fill="#c2c6cd" fill-opacity="0.501961" cx="0" cy="0" rx="1" ry="1" /></g>
<ellipse fill="#161e28" fill-opacity="0.501961" cx="127" cy="111" rx="19" ry="48" />
<polygon fill="#ffffff" fill-opacity="0.501961" points="153.536162,33.352829,153.990754,62.704390,155.028569,84.681844,144.927224,27.435824" />
<g transform="translate(85 217) rotate(91) scale(34 7)"><rect fill="#000000" fill-opacity="0.501961" x="-0.5" y="-0.5" width="1" height="1" /></g>
<g transform="translate(65.828748 255.000000) rotate(366.367790) scale(107.846829 17.003767)"><ellipse fill="#ffffff" fill-opacity="0.501961" cx="0" cy="0" rx="1" ry="1" /></g>
<g transform="translate(168.369768 97.954079) rotate(79.865304) scale(57.793010 8.917455)"><ellipse fill="#000000" fill-opacity="0.501961" cx="0" cy="0" rx="1" ry="1" /></g>
<polygon fill="#000403" fill-opacity="0.501961" points="66.097658,30.250342,33.776828,47.133918,36.361693,66.607255,44.682607,32.893845" />
<polygon fill="#dfe3e1" fill-opacity="0.501961" points="81,185 25,216 80,231" />
<ellipse fill="#ffffff" fill-opacity="0.501961" cx="32" cy="9" rx="42" ry="26" />
<ellipse fill="#ffffff" fill-opacity="0.501961" cx="203" cy="84" rx="24" ry="89" />
<g transform="translate(121.409162 195.392367) rotate(38.795110) scale(23.973342 45.224380)"><ellipse fill="#a5acb1" fill-opacity="0.501961" cx="0" cy="0" rx="1" ry="1" /></g>
</g>
</svg>