<svg xmlns="http://www.w3.org/2000/svg" version="1.1" width="375" height="453">
<rect x="0" y="0" width="375" height="453" fill="#adb0b2" />
<g transform="scale(1.769531) translate(0.5 0.5)">
<g transform="translate(137 84) rotate(174) scale(78 141)"><rect fill="#000000" fill-opacity="0.501961" x="-0.5" y="-0.5" width="1" height="1" /></g>
<g transform="translate(207.956703 72.480259) rotate(265.718390) scale(131.701101 32.478394)"><ellipse fill="#ffffff" fill-opacity="0.501961" cx="0" cy="0" rx="1" ry="1" /></g>
<g transform="translate(0.000000 130.472613) rotate(93.648662) scale(211.000000 21.472787)"><ellipse fill="#ffffff" fill-opacity="0.501961" cx="0" cy="0" rx="1" ry="1" /></g>
<g transform="translate(186.709546 240.605039) rotate(70.362553) scale(23.352030 211.000000)"><ellipse fill="#ffffff" fill-opacity="0.501961" cx="0" cy="0" rx="1" ry="1" /></g>
<g transform="translate(113.312420 160.438258) rotate(307.489703) scale(51.921820 10.558512)"><ellipse fill="#000000" fill-opacity="0.501961" cx="0" cy="0" rx="1" ry="1" /></g>
<g transform="translate(31.555915 19.408585) rotate(322.194834) scale(81.766060 22.310008)"><ellipse fill="#ffffff" fill-opacity="0.501961" cx="0" cy="0" rx="1" ry="1" /></g>
<polygon fill="#ffffff" fill-opacity="0.501961" points="171.215973,151.541612,185.692237,200.305665,154.367825,146.471346,155.577565,84.109725" />
<rect fill="#000000" fill-opacity="0.501961" x="157" y="26" width="18" height="90" />
<g transform="translate(42.143458 248.763629) rotate(12.861691) scale(97.508767 17.720796)"><ellipse fill="#ffffff" fill-opacity="0.501961" cx="0" cy="0" rx="1" ry="1" /></g>
<g transform="translate(190.307505 0.000000) rotate(188.008675) scale(198.393108 21.342946)"><ellipse fill="#ffffff" fill-opacity="0.501961" cx="0" cy="0" rx="1" ry="1" /></g>
<g transform="translate(105.325236 233.041669) rotate(175.674822) scale(49.457331 5.945238)"><ellipse fill="#010403" fill-opacity="0.501961" cx="0" cy="0" rx="1" ry="1" /></g>
<rect fill="#dbe0e5" fill-opacity="0.501961" x="42" y="43" width="67" height="98" />
<g transform="translate(29.159782 89.465706) rotate(12.438381) scale(6.114399 47.387359)"><ellipse fill="#000301" fill-opacity="0.501961" cx="0" cy="0" rx="1" ry="1" /></g>
<g transform="translate(184 163) rotate(75) scale(79 11)"><rect fill="#000000" fill-opacity="0.501961" x="-0.5" y="-0.5" width="1" height="1" /></g>
<polygon fill="#0c1820" fill-opacity="0.501961" points="115.571689,43.463568,59.616041,35.339628,80.901876,5.487509,103.748631,8.547164" />
<ellipse fill="#ffffff" fill-opacity="0.501961" cx="199" cy="79" rx="19" ry="112" />
<polygon fill="#000000" fill-opacity="0.501961" points="160.625629,190.309716,167.279825,213.011177,213.580421,204.707728,178.798585,198.602627" />
<g transform="translate(179.024125 253.119202) rotate(40.552179) scale(33.407263 54.094576)"><ellipse fill="#ffffff" fill-opacity="0.501961" cx="0" cy="0" rx="1" ry="1" /></g>
<g transform="translate(56.558618 229.583840) rotate(197.098985) scale(32.875895 3.668882)"><ellipse fill="#000000" fill-opacity="0.501961" cx="0" cy="0" rx="1" ry="1" /></g>
<ellipse fill="#000000" fill-opacity="0.501961" cx="23" cy="194" rx="4" ry="28" />
<g transform="translate(155.489775 80.712521) rotate(352.366657) scale(2.168564 99.278984)"><ellipse fill="#ffffff" fill-opacity="0.501961" cx="0" cy="0" rx="1" ry="1" /></g>
<polygon fill="#000000" fill-opacity="0.501961" points="97.453847,242.726558,169.695398,226.474128,81.784407,236.160301,82.902343,188.288431" />
<g transform="translate(11.789972 45.044805) rotate(278.242493) scale(140.059033 18.827690)"><ellipse fill="#ffffff" fill-opacity="0.501961" cx="0" cy="0" rx="1" ry="1" /></g>
<polygon fill="#111925" fill-opacity="0.501961" points="160,110 112,26 107,177" />
<g transform="translate(40 12) rotate(254) scale(45 57)"><rect fill="#ffffff" fill-opacity="0.501961" x="-0.5" y="-0.5" width="1" height="1" /></g>
<polygon fill="#ffffff" fill-opacity="0.501961" points="170.220749,257.996775,-16.000000,269.294381,-6.939155,183.622578,31.435731,229.145172" />
<g transform="translate(171.877713 112.031427) rotate(76.825130) scale(65.260213 8.326570)"><ellipse fill="#000000" fill-opacity="0.501961" cx="0" cy="0" rx="1" ry="1" /></g>
<polygon fill="#fefefd" fill-opacity="0.501961" points="201.977555,229.324640,196.224148,198.496662,161.347407,192.658097,154.824828,108.704540" />
<rect fill="#ffffff" fill-opacity="0.501961" x="109" y="21" width="18" height="7" />
<g transform="translate(196.723317 76.071882) rotate(267.584510) scale(78.702787 21.049195)"><ellipse fill="#ffffff" fill-opacity="0.501961" cx="0" cy="0" rx="1" ry="1" /></g>
<g transform="translate(165 6) rotate(189) scale(147 20)"><rect fill="#ffffff" fill-opacity="0.501961" x="-0.5" y="-0.5" width="1" height="1" /></g>
<polygon fill="#000000" fill-opacity="0.501961" points="48.457610,33.347819,72.347503,28.014529,35.830711,45.742352,40.512806,38.661196" />
<polygon fill="#bdc1c4" fill-opacity="0.501961" points="86.675462,228.613075,186.405302,207.562972,145.440859,228.929490,95.009302,233.579484" />
<ellipse fill="#000000" fill-opacity="0.501961" cx="165" cy="41" rx="11" ry="22" />
<polygon fill="#080b0c" fill-opacity="0.501961" points="164.695773,187.782247,189.979317,209.506034,161.943103,211.434652,165.864271,192.000051" />
<g transform="translate(61.161803 75.875491) rotate(192.923844) scale(27.740814 41.974228)"><ellipse fill="#d1d5d6" fill-opacity="0.501961" cx="0" cy="0" rx="1" ry="1" /></g>
<polygon fill="#131921" fill-opacity="0.501961" points="127,108 84,191 148,144" />
<g transform="translate(59.151358 183.268341) rotate(177.419386) scale(23.130988 44.045397)"><ellipse fill="#ccd2d6" fill-opacity="0.501961" cx="0" cy="0" rx="1" ry="1" /></g>
<polygon fill="#353634" fill-opacity="0.501961" points="191,160 161,199 197,174" />
<g transform="translate(181.119172 240.187357) rotate(253.395546) scale(17.924624 79.053536)"><ellipse fill="#ffffff" fill-opacity="0.501961" cx="0" cy="0" rx="1" ry="1" /></g>
<g transform="translate(119.935601 175.744631) rotate(144.877057) scale(42.361663 9.425836)"><ellipse fill="#7e8990" fill-opacity="0.501961" cx="0" cy="0" rx="1" ry="1" /></g>
<ellipse fill="#ffffff" fill-opacity="0.501961" cx="3" cy="61" rx="15" ry="161" />
<polygon fill="#ffffff" fill-opacity="0.501961" points="192.391751,164.464608,185.350430,155.993545,211.293457,-16.000000,217.266862,231.975044" />
<polygon fill="#28333f" fill-opacity="0.501961" points="159,18 116,71 133,10" />
<g transform="translate(91.242487 104.790922) rotate(101.783425) scale(55.391262 17.119503)"><ellipse fill="#acaeb4" fill-opacity="0.501961" cx="0" cy="0" rx="1" ry="1" /></g>
<g transform="translate(151 44) rotate(267) scale(20 5)"><rect fill="#ffffff" fill-opacity="0.501961" x="-0.5" y="-0.5" width="1" height="1" /></g>
<polygon fill="#565959" fill-opacity="0.501961" points="39.578721,97.745825,29.929479,158.044379,45.760234,95.870719,49.952506,69.324844" />
<g transform="translate(28.538156 83.282021) rotate(13.594858) scale(4.515877 36.074920)"><ellipse fill="#222322" fill-opacity="0.501961" cx="0" cy="0" rx="1" ry="1" /></g>
<polygon fill="#000000" fill-opacity="0.501961" points="172.053758,150.180224,161.588549,103.909358,146.628617,120.837614,181.976624,102.842785" />
<g transform="translate(101 37) rotate(293) scale(18 66)"><rect fill="#434e56" fill-opacity="0.501961" x="-0.5" y="-0.5" width="1" height="1" /></g>
</g>
</svg>