<svg xmlns="http://www.w3.org/2000/svg" version="1.1" width="1011" height="1024">
<rect x="0" y="0" width="1011" height="1024" fill="#d3af99" />
<g transform="scale(4.112450) translate(0.5 0.5)">
<ellipse fill="#c25d1a" fill-opacity="0.501961" cx="159" cy="121" rx="89" ry="89" />
<g transform="translate(29.482830 138.176540) rotate(180.181600) scale(35.929649 232.783231)"><ellipse fill="#eeffff" fill-opacity="0.501961" cx="0" cy="0" rx="1" ry="1" /></g>
<g transform="translate(223.844720 137.397026) rotate(358.624862) scale(17.394991 43.195441)"><ellipse fill="#001630" fill-opacity="0.501961" cx="0" cy="0" rx="1" ry="1" /></g>
<g transform="translate(217.458333 214.658885) rotate(152.902283) scale(90.960334 27.390700)"><ellipse fill="#e3f8ff" fill-opacity="0.501961" cx="0" cy="0" rx="1" ry="1" /></g>
<ellipse fill="#f5feff" fill-opacity="0.501961" cx="96" cy="248" rx="26" ry="94" />
<g transform="translate(116.032694 12.641280) rotate(260.273078) scale(27.499727 85.160544)"><ellipse fill="#e5f3ff" fill-opacity="0.501961" cx="0" cy="0" rx="1" ry="1" /></g>
<g transform="translate(63 109) rotate(25) scale(13 43)"><rect fill="#ab1700" fill-opacity="0.501961" x="-0.5" y="-0.5" width="1" height="1" /></g>
<ellipse fill="#eddf55" fill-opacity="0.501961" cx="182" cy="149" rx="32" ry="32" />
<rect fill="#eb4219" fill-opacity="0.501961" x="152" y="23" width="45" height="74" />
<polygon fill="#455054" fill-opacity="0.501961" points="261,54 229,140 240,-16" />
<g transform="translate(215.710895 57.638435) rotate(167.379901) scale(14.855665 35.324141)"><ellipse fill="#fcfcc8" fill-opacity="0.501961" cx="0" cy="0" rx="1" ry="1" /></g>
<ellipse fill="#fef6f8" fill-opacity="0.501961" cx="128" cy="127" rx="13" ry="13" />
<ellipse fill="#000006" fill-opacity="0.501961" cx="243" cy="243" rx="11" ry="11" />
<ellipse fill="#b06643" fill-opacity="0.501961" cx="136" cy="206" rx="25" ry="25" />
<g transform="translate(75.610875 172.404551) rotate(28.701048) scale(6.211684 17.961988)"><ellipse fill="#64100b" fill-opacity="0.501961" cx="0" cy="0" rx="1" ry="1" /></g>
<ellipse fill="#e7ecf4" fill-opacity="0.501961" cx="57" cy="248" rx="71" ry="51" />
<polygon fill="#343025" fill-opacity="0.501961" points="221,125 185,206 244,161" />
<g transform="translate(174.733646 190.112816) rotate(106.958838) scale(26.764456 8.251795)"><ellipse fill="#ffff96" fill-opacity="0.501961" cx="0" cy="0" rx="1" ry="1" /></g>
<ellipse fill="#fa7647" fill-opacity="0.501961" cx="115" cy="83" rx="38" ry="38" />
<g transform="translate(71.961070 56.890882) rotate(293.406385) scale(47.883709 12.569615)"><ellipse fill="#e1e4e8" fill-opacity="0.501961" cx="0" cy="0" rx="1" ry="1" /></g>
<g transform="translate(206.799766 8.066099) rotate(312.078263) scale(12.901186 48.494382)"><ellipse fill="#f0f2df" fill-opacity="0.501961" cx="0" cy="0" rx="1" ry="1" /></g>
<polygon fill="#ffb288" fill-opacity="0.501961" points="187,97 128,115 122,202" />
<ellipse fill="#c37d18" fill-opacity="0.501961" cx="166" cy="133" rx="33" ry="11" />
<ellipse fill="#eaedf5" fill-opacity="0.501961" cx="0" cy="127" rx="53" ry="53" />
<rect fill="#020000" fill-opacity="0.501961" x="233" y="8" width="13" height="12" />
<polygon fill="#d5e0ec" fill-opacity="0.501961" points="211.518169,147.245229,206.883067,122.894442,238.243418,135.493402,187.519848,115.154914" />
<polygon fill="#fffbe1" fill-opacity="0.501961" points="131.128464,161.183315,138.929540,238.828377,150.443189,231.285612,130.243329,215.453859" />
<rect fill="#040000" fill-opacity="0.501961" x="239" y="40" width="7" height="22" />
<ellipse fill="#ad3618" fill-opacity="0.501961" cx="146" cy="178" rx="10" ry="26" />
<g transform="translate(149.366924 219.712687) rotate(233.595799) scale(26.030888 7.657257)"><ellipse fill="#b87551" fill-opacity="0.501961" cx="0" cy="0" rx="1" ry="1" /></g>
<g transform="translate(112 95) rotate(-31) scale(23 6)"><rect fill="#edffff" fill-opacity="0.501961" x="-0.5" y="-0.5" width="1" height="1" /></g>
<ellipse fill="#1d3644" fill-opacity="0.501961" cx="236" cy="248" rx="18" ry="8" />
<polygon fill="#8f271f" fill-opacity="0.501961" points="128.295604,162.117883,109.543694,111.952105,121.218387,110.049903,99.101057,124.558917" />
<polygon fill="#d8dcdb" fill-opacity="0.501961" points="111,72 151,53 106,61" />
<g transform="translate(205 159) rotate(236) scale(22 23)"><rect fill="#edc38b" fill-opacity="0.501961" x="-0.5" y="-0.5" width="1" height="1" /></g>
<polygon fill="#f1ab80" fill-opacity="0.501961" points="87.425414,128.784946,75.050142,154.042355,55.238496,133.534968,89.045697,89.923497" />
<polygon fill="#90a2b0" fill-opacity="0.501961" points="261.000000,177.635226,245.140089,63.717267,240.850986,105.590261,227.457561,115.632689" />
<polygon fill="#bb4129" fill-opacity="0.501961" points="54,121 126,52 75,77" />
<rect fill="#421807" fill-opacity="0.501961" x="204" y="72" width="9" height="10" />
<polygon fill="#732629" fill-opacity="0.501961" points="73.114177,161.539422,69.268222,190.784777,92.862317,147.157565,93.421471,122.652040" />
<g transform="translate(183.417463 145.059317) rotate(83.324085) scale(13.693055 19.297209)"><ellipse fill="#e0a602" fill-opacity="0.501961" cx="0" cy="0" rx="1" ry="1" /></g>
<g transform="translate(108.509541 172.025288) rotate(167.093191) scale(5.702285 57.479792)"><ellipse fill="#ffb56c" fill-opacity="0.501961" cx="0" cy="0" rx="1" ry="1" /></g>
<ellipse fill="#8f573b" fill-opacity="0.501961" cx="74" cy="193" rx="6" ry="9" />
<g transform="translate(127 215) rotate(172) scale(9 43)"><rect fill="#7e3322" fill-opacity="0.501961" x="-0.5" y="-0.5" width="1" height="1" /></g>
<polygon fill="#53504d" fill-opacity="0.501961" points="220.505434,97.212812,188.577875,116.090436,241.418617,142.312755,233.184250,79.950869" />
<polygon fill="#d9d3d6" fill-opacity="0.501961" points="170,24 3,-16 -13,86" />
<g transform="translate(142.388720 45.286263) rotate(74.654946) scale(8.081554 38.371362)"><ellipse fill="#e6401e" fill-opacity="0.501961" cx="0" cy="0" rx="1" ry="1" /></g>
<ellipse fill="#e6e2e2" fill-opacity="0.501961" cx="174" cy="212" rx="14" ry="18" />
<g transform="translate(148.852079 242.301318) rotate(238.689072) scale(34.306776 5.699909)"><ellipse fill="#eaeef4" fill-opacity="0.501961" cx="0" cy="0" rx="1" ry="1" /></g>
<g transform="translate(155.714061 192.869137) rotate(-4.471048) scale(8.923794 20.061950)"><ellipse fill="#6e613f" fill-opacity="0.501961" cx="0" cy="0" rx="1" ry="1" /></g>
<polygon fill="#ff7136" fill-opacity="0.501961" points="70.512999,157.466578,89.754722,113.112339,67.868838,193.748482,62.446945,179.621138" />
<polygon fill="#e5e8e8" fill-opacity="0.501961" points="118.865850,127.891012,151.463029,109.516821,137.390031,126.955185,125.927760,149.378756" />
<g transform="translate(99.956835 171.426016) rotate(349.666143) scale(4.946349 30.643264)"><ellipse fill="#e7e3e4" fill-opacity="0.501961" cx="0" cy="0" rx="1" ry="1" /></g>
<ellipse fill="#0f0e14" fill-opacity="0.501961" cx="227" cy="150" rx="9" ry="23" />
<rect fill="#ffffff" fill-opacity="0.501961" x="204" y="131" width="5" height="24" />
<polygon fill="#e1dfd3" fill-opacity="0.501961" points="182.360396,167.382433,167.769625,165.661779,208.201010,152.649652,198.691256,164.607322" />
<g transform="translate(33.615622 207.663911) rotate(139.072616) scale(35.405558 81.603834)"><ellipse fill="#e6e4e6" fill-opacity="0.501961" cx="0" cy="0" rx="1" ry="1" /></g>
<rect fill="#89645f" fill-opacity="0.501961" x="57" y="106" width="15" height="32" />
<polygon fill="#f7e6bb" fill-opacity="0.501961" points="187,57 251,16 216,66" />
<polygon fill="#8a6c65" fill-opacity="0.501961" points="149,134 165,124 172,162" />
<g transform="translate(188.584172 34.704695) rotate(119.256020) scale(15.240236 8.389335)"><ellipse fill="#b54727" fill-opacity="0.501961" cx="0" cy="0" rx="1" ry="1" /></g>
<polygon fill="#ffd93b" fill-opacity="0.501961" points="174,195 194,176 150,151" />
<g transform="translate(137 104) rotate(336) scale(76 8)"><rect fill="#eb461e" fill-opacity="0.501961" x="-0.5" y="-0.5" width="1" height="1" /></g>
<polygon fill="#7e5b2c" fill-opacity="0.501961" points="174.211000,207.313362,216.245772,176.467752,193.373096,169.399169,229.062400,132.879945" />
<rect fill="#ffecb1" fill-opacity="0.501961" x="127" y="142" width="34" height="8" />
<g transform="translate(94 104) rotate(102) scale(20 11)"><rect fill="#9a3422" fill-opacity="0.501961" x="-0.5" y="-0.5" width="1" height="1" /></g>
<g transform="translate(159.809613 65.549039) rotate(254.494466) scale(13.837953 40.757804)"><ellipse fill="#f67b38" fill-opacity="0.501961" cx="0" cy="0" rx="1" ry="1" /></g>
<rect fill="#a8a9ae" fill-opacity="0.501961" x="240" y="67" width="6" height="109" />
<polygon fill="#ff552a" fill-opacity="0.501961" points="154.806401,126.401528,198.182265,107.189114,204.584243,98.293720,207.071898,89.470350" />
<polygon fill="#cfb8a8" fill-opacity="0.501961" points="81.770973,97.181386,75.392970,134.102799,70.836670,145.563409,58.633830,124.012649" />
<g transform="translate(230.180977 214.022350) rotate(322.164806) scale(49.183489 22.561014)"><ellipse fill="#e1dde2" fill-opacity="0.501961" cx="0" cy="0" rx="1" ry="1" /></g>
<polygon fill="#b05139" fill-opacity="0.501961" points="114.912499,145.411721,102.233009,117.264840,123.828132,136.162318,124.731841,242.979552" />
<polygon fill="#902e2e" fill-opacity="0.501961" points="147.349697,230.440282,142.507593,198.845238,150.988293,178.677231,134.235574,200.888373" />
<polygon fill="#a18780" fill-opacity="0.501961" points="77.887833,171.507668,95.041455,138.874751,90.852739,164.016196,102.535044,191.568639" />
<g transform="translate(194 121) rotate(207) scale(21 3)"><rect fill="#f0f8ff" fill-opacity="0.501961" x="-0.5" y="-0.5" width="1" height="1" /></g>
<polygon fill="#e6c98d" fill-opacity="0.501961" points="211.017280,103.315663,209.726456,82.105898,200.936906,115.045795,195.703893,120.352303" />
<g transform="translate(173.468996 106.504656) rotate(149.094885) scale(29.004300 4.233951)"><ellipse fill="#ffc2a0" fill-opacity="0.501961" cx="0" cy="0" rx="1" ry="1" /></g>
<polygon fill="#2a1713" fill-opacity="0.501961" points="241,42 260,0 252,85" />
<g transform="translate(207 0) rotate(339) scale(65 23)"><rect fill="#dddee2" fill-opacity="0.501961" x="-0.5" y="-0.5" width="1" height="1" /></g>
<rect fill="#472f29" fill-opacity="0.501961" x="210" y="130" width="15" height="28" />
<ellipse fill="#e6b322" fill-opacity="0.501961" cx="186" cy="141" rx="19" ry="19" />
<polygon fill="#ffa96a" fill-opacity="0.501961" points="100.219619,116.580909,167.068383,76.949807,164.970891,73.924215,122.031152,90.497687" />
<polygon fill="#d8aa78" fill-opacity="0.501961" points="200.515243,76.851467,229.489585,50.921859,261.000000,139.996538,236.583225,55.603800" />
<polygon fill="#ffba77" fill-opacity="0.501961" points="154.845696,138.534811,140.385325,140.385168,135.955674,213.610432,121.388122,182.350563" />
<ellipse fill="#c3bac0" fill-opacity="0.501961" cx="0" cy="0" rx="22" ry="46" />
<g transform="translate(145 162) rotate(248) scale(27 16)"><rect fill="#e96626" fill-opacity="0.501961" x="-0.5" y="-0.5" width="1" height="1" /></g>
<ellipse fill="#e3dfdf" fill-opacity="0.501961" cx="35" cy="75" rx="35" ry="35" />
<polygon fill="#858783" fill-opacity="0.501961" points="242.729167,162.193897,234.433213,178.603031,245.020191,174.851041,181.101065,202.790464" />
<g transform="translate(191 192) rotate(187) scale(11 12)"><rect fill="#392f2a" fill-opacity="0.501961" x="-0.5" y="-0.5" width="1" height="1" /></g>
<g transform="translate(123 76) rotate(157) scale(63 16)"><rect fill="#f47332" fill-opacity="0.501961" x="-0.5" y="-0.5" width="1" height="1" /></g>
<polygon fill="#3e2a28" fill-opacity="0.501961" points="156.895138,210.683670,153.670597,211.906139,158.624270,227.561569,162.850575,231.933888" />
<g transform="translate(72 93) rotate(220) scale(7 49)"><rect fill="#f75a2a" fill-opacity="0.501961" x="-0.5" y="-0.5" width="1" height="1" /></g>
<polygon fill="#f0bc40" fill-opacity="0.501961" points="197,180 222,155 160,186" />
<polygon fill="#ffbf88" fill-opacity="0.501961" points="113,141 104,177 117,182" />
<polygon fill="#fa854b" fill-opacity="0.501961" points="157.479285,122.916604,123.430092,153.737529,135.190069,128.547231,153.105513,111.456340" />
<polygon fill="#d4bd89" fill-opacity="0.501961" points="141,201 154,200 149,218" />
<polygon fill="#efc275" fill-opacity="0.501961" points="197.440052,79.078525,188.986844,93.217328,199.226601,61.216711,233.185054,60.242666" />
<rect fill="#cdc7cb" fill-opacity="0.501961" x="77" y="172" width="7" height="44" />
<polygon fill="#edcc77" fill-opacity="0.501961" points="211,43 190,63 197,30" />
<g transform="translate(245.000000 92.769260) rotate(177.141552) scale(28.238623 6.996705)"><ellipse fill="#75675d" fill-opacity="0.501961" cx="0" cy="0" rx="1" ry="1" /></g>
</g>
</svg>