<svg xmlns="http://www.w3.org/2000/svg" version="1.1" width="1011" height="1024">
<rect x="0" y="0" width="1011" height="1024" fill="#d3af99" />
<g transform="scale(4.112450) translate(0.5 0.5)">
<ellipse fill="#c45d19" fill-opacity="0.501961" cx="154" cy="121" rx="89" ry="89" />
<ellipse fill="#052e49" fill-opacity="0.501961" cx="245" cy="129" rx="42" ry="42" />
<ellipse fill="#edfaff" fill-opacity="0.501961" cx="34" cy="201" rx="82" ry="82" />
<g transform="translate(19.815098 37.752951) rotate(223.708540) scale(70.810682 168.315090)"><ellipse fill="#e9fcff" fill-opacity="0.501961" cx="0" cy="0" rx="1" ry="1" /></g>
<g transform="translate(224.605429 213.438770) rotate(65.944737) scale(26.687836 85.993062)"><ellipse fill="#e5faff" fill-opacity="0.501961" cx="0" cy="0" rx="1" ry="1" /></g>
<g transform="translate(77.540412 167.172977) rotate(196.833560) scale(9.928118 31.500872)"><ellipse fill="#8a1f03" fill-opacity="0.501961" cx="0" cy="0" rx="1" ry="1" /></g>
<g transform="translate(225.407832 155.185853) rotate(188.436685) scale(14.137160 25.988363)"><ellipse fill="#0d0e0c" fill-opacity="0.501961" cx="0" cy="0" rx="1" ry="1" /></g>
<g transform="translate(241.053143 246.533115) rotate(44.515876) scale(10.662002 19.554108)"><ellipse fill="#000009" fill-opacity="0.501961" cx="0" cy="0" rx="1" ry="1" /></g>
<rect fill="#ed4218" fill-opacity="0.501961" x="148" y="25" width="47" height="70" />
<ellipse fill="#e9d74c" fill-opacity="0.501961" cx="181" cy="152" rx="34" ry="34" />
</g>
</svg>