<svg xmlns="http://www.w3.org/2000/svg" version="1.1" width="1011" height="1024">
<rect x="0" y="0" width="1011" height="1024" fill="#d3af99" />
<g transform="scale(4.112450) translate(0.5 0.5)">
<ellipse fill="#c25e1b" fill-opacity="0.501961" cx="173" cy="112" rx="110" ry="81" />
<ellipse fill="#ecf8ff" fill-opacity="0.501961" cx="31" cy="197" rx="82" ry="82" />
<g transform="translate(224.788903 142.473514) rotate(360.471505) scale(15.564242 39.381102)"><ellipse fill="#000823" fill-opacity="0.501961" cx="0" cy="0" rx="1" ry="1" /></g>
<ellipse fill="#e9feff" fill-opacity="0.501961" cx="21" cy="48" rx="65" ry="65" />
<g transform="translate(80.456824 147.542199) rotate(194.080249) scale(10.865479 48.731200)"><ellipse fill="#bb4110" fill-opacity="0.501961" cx="0" cy="0" rx="1" ry="1" /></g>
<polygon fill="#e4fcff" fill-opacity="0.501961" points="241,235 119,264 261,148" />
<g transform="translate(218 40) rotate(-13) scale(30 91)"><rect fill="#f3fde1" fill-opacity="0.501961" x="-0.5" y="-0.5" width="1" height="1" /></g>
<g transform="translate(131.350711 12.889854) rotate(170.186231) scale(69.952151 22.522355)"><ellipse fill="#e5f3ff" fill-opacity="0.501961" cx="0" cy="0" rx="1" ry="1" /></g>
<g transform="translate(143.196612 201.150067) rotate(235.058807) scale(17.105234 25.590683)"><ellipse fill="#8d431c" fill-opacity="0.501961" cx="0" cy="0" rx="1" ry="1" /></g>
<ellipse fill="#ebdc4e" fill-opacity="0.501961" cx="181" cy="152" rx="30" ry="37" />
<g transform="translate(164.865938 61.760163) rotate(125.679463) scale(47.499521 26.852860)"><ellipse fill="#f75020" fill-opacity="0.501961" cx="0" cy="0" rx="1" ry="1" /></g>
<polygon fill="#2a3d43" fill-opacity="0.501961" points="199,111 238,175 239,78" />
<rect fill="#ffe9de" fill-opacity="0.501961" x="120" y="115" width="22" height="33" />
<g transform="translate(235.436267 248.000000) rotate(329.504297) scale(39.693864 9.525771)"><ellipse fill="#000114" fill-opacity="0.501961" cx="0" cy="0" rx="1" ry="1" /></g>
<ellipse fill="#2b393e" fill-opacity="0.501961" cx="245" cy="13" rx="10" ry="60" />
<g transform="translate(70.033315 117.564747) rotate(264.314068) scale(26.320816 19.017982)"><ellipse fill="#d7845e" fill-opacity="0.501961" cx="0" cy="0" rx="1" ry="1" /></g>
<ellipse fill="#edf1f8" fill-opacity="0.501961" cx="21" cy="113" rx="32" ry="32" />
<g transform="translate(98.482398 238.555536) rotate(49.157868) scale(38.767968 24.717596)"><ellipse fill="#edf5fc" fill-opacity="0.501961" cx="0" cy="0" rx="1" ry="1" /></g>
<g transform="translate(206.375988 180.713538) rotate(142.308353) scale(30.749698 7.510266)"><ellipse fill="#2b2d21" fill-opacity="0.501961" cx="0" cy="0" rx="1" ry="1" /></g>
<g transform="translate(215.497341 42.565052) rotate(142.131265) scale(31.707664 19.455526)"><ellipse fill="#f2e1b6" fill-opacity="0.501961" cx="0" cy="0" rx="1" ry="1" /></g>
<ellipse fill="#f48a55" fill-opacity="0.501961" cx="124" cy="179" rx="19" ry="37" />
<polygon fill="#eb5929" fill-opacity="0.501961" points="52,114 139,77 81,64" />
<ellipse fill="#7c868f" fill-opacity="0.501961" cx="240" cy="101" rx="12" ry="39" />
<g transform="translate(115.645150 84.566121) rotate(288.407248) scale(30.967456 11.096299)"><ellipse fill="#ffab7e" fill-opacity="0.501961" cx="0" cy="0" rx="1" ry="1" /></g>
<ellipse fill="#e8edf2" fill-opacity="0.501961" cx="25" cy="195" rx="41" ry="41" />
<polygon fill="#ff9e6b" fill-opacity="0.501961" points="143.647997,114.007692,124.841114,148.274819,261.000000,65.965415,226.910908,76.647075" />
<polygon fill="#4f1820" fill-opacity="0.501961" points="65,186 90,128 88,163" />
<polygon fill="#ffd499" fill-opacity="0.501961" points="75.313239,105.624730,89.379523,90.181079,85.580046,121.145234,58.328919,191.089026" />
<g transform="translate(185 140) rotate(319) scale(27 34)"><rect fill="#e2a400" fill-opacity="0.501961" x="-0.5" y="-0.5" width="1" height="1" /></g>
<g transform="translate(137.126786 220.543438) rotate(167.488861) scale(3.988158 37.622915)"><ellipse fill="#f5e9d5" fill-opacity="0.501961" cx="0" cy="0" rx="1" ry="1" /></g>
</g>
</svg>