<svg xmlns="http://www.w3.org/2000/svg" version="1.1" width="1011" height="1024">
<rect x="0" y="0" width="1011" height="1024" fill="#d3af99" />
<g transform="scale(4.112450) translate(0.5 0.5)">
<ellipse fill="#c35c18" fill-opacity="0.501961" cx="155" cy="121" rx="89" ry="89" />
<ellipse fill="#000e29" fill-opacity="0.501961" cx="225" cy="137" rx="17" ry="45" />
<ellipse fill="#edf9ff" fill-opacity="0.501961" cx="24" cy="202" rx="92" ry="92" />
<g transform="translate(52.017205 40.708411) rotate(136.610319) scale(228.746353 44.986164)"><ellipse fill="#e9fbff" fill-opacity="0.501961" cx="0" cy="0" rx="1" ry="1" /></g>
<g transform="translate(72.000802 143.793505) rotate(355.551992) scale(16.440097 57.232443)"><ellipse fill="#bc6646" fill-opacity="0.501961" cx="0" cy="0" rx="1" ry="1" /></g>
<g transform="translate(218.522803 215.146260) rotate(239.574006) scale(27.089685 111.064525)"><ellipse fill="#e4f9ff" fill-opacity="0.501961" cx="0" cy="0" rx="1" ry="1" /></g>
<g transform="translate(177.397740 54.472099) rotate(370.936362) scale(21.833036 33.737576)"><ellipse fill="#eb4014" fill-opacity="0.501961" cx="0" cy="0" rx="1" ry="1" /></g>
<polygon fill="#fffecc" fill-opacity="0.501961" points="228,-16 191,54 227,93" />
<g transform="translate(245.000000 243.826490) rotate(155.683274) scale(23.882756 10.995704)"><ellipse fill="#000013" fill-opacity="0.501961" cx="0" cy="0" rx="1" ry="1" /></g>
<rect fill="#424748" fill-opacity="0.501961" x="236" y="0" width="10" height="106" />
<ellipse fill="#eade52" fill-opacity="0.501961" cx="183" cy="150" rx="32" ry="32" />
<ellipse fill="#ffe1c7" fill-opacity="0.501961" cx="134" cy="132" rx="16" ry="20" />
<ellipse fill="#7d4831" fill-opacity="0.501961" cx="151" cy="201" rx="13" ry="30" />
<ellipse fill="#e9f6fe" fill-opacity="0.501961" cx="161" cy="0" rx="28" ry="28" />
<ellipse fill="#ffffc6" fill-opacity="0.501961" cx="174" cy="199" rx="10" ry="17" />
<ellipse fill="#f46f40" fill-opacity="0.501961" cx="141" cy="74" rx="65" ry="34" />
<ellipse fill="#edf3f4" fill-opacity="0.501961" cx="51" cy="157" rx="18" ry="24" />
<ellipse fill="#782c23" fill-opacity="0.501961" cx="85" cy="152" rx="8" ry="19" />
<ellipse fill="#23211c" fill-opacity="0.501961" cx="224" cy="154" rx="16" ry="22" />
<g transform="translate(121.809779 203.629630) rotate(-15.122237) scale(7.684905 32.628970)"><ellipse fill="#c6592e" fill-opacity="0.501961" cx="0" cy="0" rx="1" ry="1" /></g>
<g transform="translate(97.123584 237.700105) rotate(224.662043) scale(39.719461 27.048727)"><ellipse fill="#edf0f2" fill-opacity="0.501961" cx="0" cy="0" rx="1" ry="1" /></g>
<polygon fill="#f6e9e8" fill-opacity="0.501961" points="204.280277,123.715552,216.497502,166.666385,199.151151,127.965455,165.081393,107.616370" />
<polygon fill="#3e4032" fill-opacity="0.501961" points="239.637083,139.932311,221.171200,176.946845,194.427687,205.529432,179.314490,196.862865" />
<g transform="translate(180 141) rotate(175) scale(32 32)"><rect fill="#d19101" fill-opacity="0.501961" x="-0.5" y="-0.5" width="1" height="1" /></g>
<g transform="translate(222.398554 35.591466) rotate(332.383111) scale(23.097056 17.407840)"><ellipse fill="#f1e0c3" fill-opacity="0.501961" cx="0" cy="0" rx="1" ry="1" /></g>
<rect fill="#ffd3a4" fill-opacity="0.501961" x="71" y="104" width="15" height="28" />
<rect fill="#6d261e" fill-opacity="0.501961" x="69" y="161" width="9" height="32" />
<g transform="translate(127.489341 60.480582) rotate(72.032216) scale(3.234312 20.996919)"><ellipse fill="#dbedf2" fill-opacity="0.501961" cx="0" cy="0" rx="1" ry="1" /></g>
<ellipse fill="#ffd5a3" fill-opacity="0.501961" cx="131" cy="164" rx="6" ry="45" />
<rect fill="#ffb79a" fill-opacity="0.501961" x="143" y="104" width="40" height="16" />
<g transform="translate(114.882094 92.381385) rotate(61.700226) scale(5.262215 14.225571)"><ellipse fill="#f1e6d0" fill-opacity="0.501961" cx="0" cy="0" rx="1" ry="1" /></g>
<polygon fill="#000000" fill-opacity="0.501961" points="261,79 245,33 238,54" />
<rect fill="#dbdade" fill-opacity="0.501961" x="0" y="0" width="227" height="22" />
<g transform="translate(63 109) rotate(29) scale(7 38)"><rect fill="#ad1704" fill-opacity="0.501961" x="-0.5" y="-0.5" width="1" height="1" /></g>
<ellipse fill="#e8eaee" fill-opacity="0.501961" cx="20" cy="204" rx="42" ry="143" />
<g transform="translate(171.806029 34.644664) rotate(251.948843) scale(9.021234 38.864310)"><ellipse fill="#d64321" fill-opacity="0.501961" cx="0" cy="0" rx="1" ry="1" /></g>
<g transform="translate(114.073033 14.854598) rotate(164.696491) scale(72.331404 28.160853)"><ellipse fill="#ddd4d2" fill-opacity="0.501961" cx="0" cy="0" rx="1" ry="1" /></g>
<rect fill="#888f91" fill-opacity="0.501961" x="230" y="72" width="16" height="58" />
<polygon fill="#c83f24" fill-opacity="0.501961" points="203.938144,73.061099,115.057147,118.744500,130.199800,169.914563,93.886234,117.378646" />
<ellipse fill="#efd7c4" fill-opacity="0.501961" cx="98" cy="184" rx="19" ry="28" />
<ellipse fill="#4f5351" fill-opacity="0.501961" cx="219" cy="114" rx="23" ry="11" />
<ellipse fill="#201b16" fill-opacity="0.501961" cx="242" cy="13" rx="9" ry="9" />
<g transform="translate(146.721997 127.895169) rotate(223.128355) scale(7.934077 18.648211)"><ellipse fill="#f57a33" fill-opacity="0.501961" cx="0" cy="0" rx="1" ry="1" /></g>
<g transform="translate(168.703674 209.085002) rotate(23.830846) scale(8.830625 12.874459)"><ellipse fill="#dee4e5" fill-opacity="0.501961" cx="0" cy="0" rx="1" ry="1" /></g>
<g transform="translate(209 160) rotate(111) scale(13 22)"><rect fill="#ca9b7d" fill-opacity="0.501961" x="-0.5" y="-0.5" width="1" height="1" /></g>
<polygon fill="#ffe45e" fill-opacity="0.501961" points="178,207 158,166 195,158" />
<g transform="translate(109 173) rotate(257) scale(116 7)"><rect fill="#ffac5c" fill-opacity="0.501961" x="-0.5" y="-0.5" width="1" height="1" /></g>
<g transform="translate(87.117748 194.635779) rotate(57.631157) scale(19.859780 7.377090)"><ellipse fill="#d9e6f4" fill-opacity="0.501961" cx="0" cy="0" rx="1" ry="1" /></g>
<g transform="translate(126.826361 213.133717) rotate(355.661861) scale(4.138534 15.409459)"><ellipse fill="#622b28" fill-opacity="0.501961" cx="0" cy="0" rx="1" ry="1" /></g>
<polygon fill="#e2e7f3" fill-opacity="0.501961" points="126,140 147,111 114,121" />
</g>
</svg>