<svg xmlns="http://www.w3.org/2000/svg" version="1.1" width="32" height="32">
<rect x="0" y="0" width="32" height="32" fill="#aa8666" />
<g transform="scale(1.000000) translate(0.5 0.5)">
<polygon fill="#310100" fill-opacity="0.501961" points="15,27 9,0 47,22" />
<g transform="translate(0 13) rotate(275) scale(31 15)"><rect fill="#ffffff" fill-opacity="0.501961" x="-0.5" y="-0.5" width="1" height="1" /></g>
<g transform="translate(24 0) rotate(328) scale(13 18)"><rect fill="#ffffff" fill-opacity="0.501961" x="-0.5" y="-0.5" width="1" height="1" /></g>
<polygon fill="#000001" fill-opacity="0.501961" points="25.142546,21.803291,28.002168,8.761427,47.000000,7.963306,36.886270,26.702115" />
<g transform="translate(31 3) rotate(273) scale(10 19)"><rect fill="#ffffff" fill-opacity="0.501961" x="-0.5" y="-0.5" width="1" height="1" /></g>
<polygon fill="#ffffd2" fill-opacity="0.501961" points="2,-14 9,9 -16,37" />
<g transform="translate(14 18) rotate(52) scale(15 12)"><rect fill="#945418" fill-opacity="0.501961" x="-0.5" y="-0.5" width="1" height="1" /></g>
<g transform="translate(12.195855 29.660090) rotate(98.227503) scale(4.097204 27.476625)"><ellipse fill="#e1ae75" fill-opacity="0.501961" cx="0" cy="0" rx="1" ry="1" /></g>
<polygon fill="#582205" fill-opacity="0.501961" points="22.731243,14.804559,0.972099,-16.000000,11.421889,10.948594,21.014161,18.741424" />
<polygon fill="#e1ac70" fill-opacity="0.501961" points="25.017062,9.781969,-6.162386,-14.775159,12.625690,-16.000000,24.972010,18.800335" />
<polygon fill="#8e6035" fill-opacity="0.501961" points="10.522616,29.979291,22.139541,17.391395,40.531004,33.248335,7.940381,15.239101" />
<polygon fill="#ffe4ad" fill-opacity="0.501961" points="7,16 7,26 -9,16" />
<polygon fill="#ffffff" fill-opacity="0.501961" points="38,4 22,7 31,-16" />
<g transform="translate(11.957496 2.349583) rotate(120.249015) scale(2.738552 6.361960)"><ellipse fill="#a8542b" fill-opacity="0.501961" cx="0" cy="0" rx="1" ry="1" /></g>
<rect fill="#19120c" fill-opacity="0.501961" x="18" y="7" width="3" height="11" />
<polygon fill="#130a02" fill-opacity="0.501961" points="25.953277,16.615020,36.532001,36.005020,47.000000,47.000000,47.000000,-5.593259" />
<polygon fill="#ffe3a7" fill-opacity="0.501961" points="23.356647,7.785415,24.244889,1.090047,26.766526,0.081028,-7.215430,-16.000000" />
<polygon fill="#975c2e" fill-opacity="0.501961" points="11.649626,22.004617,24.062429,28.522940,4.315297,15.967104,21.337108,9.138871" />
<rect fill="#af855c" fill-opacity="0.501961" x="22" y="10" width="4" height="11" />
<polygon fill="#a0704a" fill-opacity="0.501961" points="14,19 5,30 16,24" />
<ellipse fill="#ffe5c5" fill-opacity="0.501961" cx="1" cy="8" rx="8" ry="8" />
<polygon fill="#8e4f1c" fill-opacity="0.501961" points="15,14 16,22 4,14" />
<g transform="translate(9 3) rotate(339) scale(1 9)"><rect fill="#3b1f09" fill-opacity="0.501961" x="-0.5" y="-0.5" width="1" height="1" /></g>
<polygon fill="#5b2f18" fill-opacity="0.501961" points="9.114314,17.291829,10.139857,4.875847,20.639486,6.006592,10.872276,13.563091" />
<g transform="translate(30.839758 0.402551) rotate(226.253765) scale(4.667455 9.360475)"><ellipse fill="#ffffff" fill-opacity="0.501961" cx="0" cy="0" rx="1" ry="1" /></g>
<polygon fill="#ddaf81" fill-opacity="0.501961" points="6.688148,30.246928,-16.000000,22.478001,30.284639,42.204241,22.940191,28.519801" />
<polygon fill="#6b461e" fill-opacity="0.501961" points="19.919893,25.160993,43.146663,30.899578,22.649172,22.780108,18.321417,24.343548" />
<polygon fill="#feecd0" fill-opacity="0.501961" points="6,5 -8,12 8,14" />
<polygon fill="#e7c59a" fill-opacity="0.501961" points="4.269915,30.911123,-16.000000,27.542057,10.522565,-6.366877,-16.000000,-9.968224" />
<ellipse fill="#3f1406" fill-opacity="0.501961" cx="16" cy="7" rx="3" ry="3" />
<g transform="translate(30.887747 8.347097) rotate(344.678888) scale(5.765516 1.000000)"><ellipse fill="#8c7f83" fill-opacity="0.501961" cx="0" cy="0" rx="1" ry="1" /></g>
<rect fill="#0e0500" fill-opacity="0.501961" x="19" y="13" width="3" height="4" />
<polygon fill="#936540" fill-opacity="0.501961" points="17,20 18,25 7,28" />
<polygon fill="#b4663b" fill-opacity="0.501961" points="22.020280,6.753028,-14.878360,-16.000000,36.717971,-16.000000,9.945352,3.147753" />
<g transform="translate(13 14) rotate(242) scale(1 8)"><rect fill="#b87034" fill-opacity="0.501961" x="-0.5" y="-0.5" width="1" height="1" /></g>
<polygon fill="#050000" fill-opacity="0.501961" points="27,19 44,6 46,29" />
<path stroke="#936e4c" stroke-opacity="0.501961" fill="none" d="M 19.061898 3.213133 Q 33.553871 43.638733, 47.000000 44.476785" stroke-width="0.500000" />
<polygon fill="#976334" fill-opacity="0.501961" points="15.416971,7.028912,7.248523,17.586843,7.454737,24.091252,8.810823,24.190886" />
<polygon fill="#ffe5c9" fill-opacity="0.501961" points="6,17 -8,24 -5,7" />
<g transform="translate(11 24) rotate(268) scale(3 3)"><rect fill="#c39267" fill-opacity="0.501961" x="-0.5" y="-0.5" width="1" height="1" /></g>
<path stroke="#4e3119" stroke-opacity="0.501961" fill="none" d="M 6.744069 16.217905 Q 11.583881 12.606669, 11.001007 6.773235" stroke-width="0.500000" />
<g transform="translate(3 24) rotate(185) scale(9 7)"><rect fill="#f1cba0" fill-opacity="0.501961" x="-0.5" y="-0.5" width="1" height="1" /></g>
<ellipse fill="#c5a17d" fill-opacity="0.501961" cx="24" cy="10" rx="2" ry="2" />
<ellipse fill="#2b1a00" fill-opacity="0.501961" cx="19" cy="18" rx="1" ry="1" />
<ellipse fill="#363d27" fill-opacity="0.501961" cx="6" cy="15" rx="1" ry="1" />
<g transform="translate(27 26) rotate(364) scale(24 1)"><rect fill="#6e4725" fill-opacity="0.501961" x="-0.5" y="-0.5" width="1" height="1" /></g>
<g transform="translate(14.546697 4.760938) rotate(-2.016337) scale(2.536332 1.498159)"><ellipse fill="#9b4122" fill-opacity="0.501961" cx="0" cy="0" rx="1" ry="1" /></g>
<polygon fill="#3b2925" fill-opacity="0.501961" points="25,15 28,10 37,8" />
<rect fill="#712d06" fill-opacity="0.501961" x="11" y="17" width="1" height="6" />
<rect fill="#421c0a" fill-opacity="0.501961" x="10" y="7" width="9" height="4" />
<polygon fill="#ffdba2" fill-opacity="0.501961" points="17,2 8,-14 47,-12" />
<g transform="translate(21 13) rotate(179) scale(1 7)"><rect fill="#2a1d12" fill-opacity="0.501961" x="-0.5" y="-0.5" width="1" height="1" /></g>
<polygon fill="#a57e5a" fill-opacity="0.501961" points="-8.285318,38.193726,24.888821,16.321427,5.012942,31.767372,33.611996,32.947349" />
<polygon fill="#fffffb" fill-opacity="0.501961" points="20.237807,5.432893,39.183329,7.345097,47.000000,10.355721,46.255498,-8.891419" />
<polygon fill="#cfb38e" fill-opacity="0.501961" points="4.301609,30.082314,-16.000000,2.582181,-16.000000,19.809629,-16.000000,42.690325" />
<path stroke="#ad835f" stroke-opacity="0.501961" fill="none" d="M -16.000000 37.431764 Q 25.733200 22.544784, 29.076195 28.120004" stroke-width="0.500000" />
<ellipse fill="#865c41" fill-opacity="0.501961" cx="23" cy="20" rx="3" ry="2" />
<path stroke="#4a3c2b" stroke-opacity="0.501961" fill="none" d="M 27.901393 8.400212 Q 26.275254 15.092831, 27.120459 16.095713" stroke-width="0.500000" />
<rect fill="#552c0a" fill-opacity="0.501961" x="20" y="23" width="3" height="3" />
<g transform="translate(13 1) rotate(338) scale(2 3)"><rect fill="#d3732f" fill-opacity="0.501961" x="-0.5" y="-0.5" width="1" height="1" /></g>
<g transform="translate(9 21) rotate(4) scale(1 13)"><rect fill="#a37447" fill-opacity="0.501961" x="-0.5" y="-0.5" width="1" height="1" /></g>
<polygon fill="#ffe8c2" fill-opacity="0.501961" points="22.057815,5.363739,34.732557,-12.078665,19.413422,-2.719856,21.748851,7.541431" />
<g transform="translate(24 13) rotate(101) scale(7 1)"><rect fill="#ba8f70" fill-opacity="0.501961" x="-0.5" y="-0.5" width="1" height="1" /></g>
<polygon fill="#9d551f" fill-opacity="0.501961" points="12,16 14,10 18,21" />
<polygon fill="#784a24" fill-opacity="0.501961" points="16.228243,5.405569,8.918579,14.777997,9.830088,0.760263,9.471323,16.337195" />
<polygon fill="#d7a472" fill-opacity="0.501961" points="11.434323,33.537905,42.578407,47.000000,23.004363,27.149627,11.486368,29.603298" />
<polygon fill="#ae7f4e" fill-opacity="0.501961" points="28.631093,30.156148,47.000000,11.903847,47.000000,38.658554,38.964519,47.000000" />
<path stroke="#857959" stroke-opacity="0.501961" fill="none" d="M 7.582605 3.456022 Q 8.203550 -0.646814, 6.605770 -5.501536" stroke-width="0.500000" />
<path stroke="#c88651" stroke-opacity="0.501961" fill="none" d="M 19.679312 4.471902 Q -0.101148 -7.086733, -14.676797 -10.109760" stroke-width="0.500000" />
<polygon fill="#fbddb7" fill-opacity="0.501961" points="35.722451,-16.000000,-2.199086,4.655679,9.898507,10.784556,-9.254633,-16.000000" />
<rect fill="#694d40" fill-opacity="0.501961" x="20" y="8" width="2" height="3" />
<path stroke="#5d4127" stroke-opacity="0.501961" fill="none" d="M 27.615425 10.180467 Q 18.609097 22.592005, 47.000000 33.273616" stroke-width="0.500000" />
<polygon fill="#f1d0a9" fill-opacity="0.501961" points="2.297655,14.817427,6.966165,22.771655,-16.000000,11.178836,9.775741,27.430502" />
<polygon fill="#6a5d63" fill-opacity="0.501961" points="27.812794,10.394757,37.631160,2.690390,47.000000,32.195871,47.000000,11.748017" />
<g transform="translate(25 21) rotate(118) scale(1 3)"><rect fill="#916753" fill-opacity="0.501961" x="-0.5" y="-0.5" width="1" height="1" /></g>
<path stroke="#7a5538" stroke-opacity="0.501961" fill="none" d="M 20.705970 8.093572 Q 26.637788 19.623702, 11.029596 28.139846" stroke-width="0.500000" />
<ellipse fill="#5c412f" fill-opacity="0.501961" cx="19" cy="11" rx="1" ry="2" />
<ellipse fill="#30110a" fill-opacity="0.501961" cx="17" cy="8" rx="2" ry="2" />
<g transform="translate(17 15) rotate(100) scale(4 1)"><rect fill="#6b2600" fill-opacity="0.501961" x="-0.5" y="-0.5" width="1" height="1" /></g>
<ellipse fill="#844114" fill-opacity="0.501961" cx="11" cy="21" rx="1" ry="1" />
<polygon fill="#f4d8b2" fill-opacity="0.501961" points="5.323007,27.878398,3.326319,22.127406,-4.441928,21.261632,5.962355,16.373876" />
<path stroke="#936b4c" stroke-opacity="0.501961" fill="none" d="M 26.612855 8.604552 Q 23.892587 26.535940, 9.052571 25.906536" stroke-width="0.500000" />
<rect fill="#fdebc0" fill-opacity="0.501961" x="6" y="6" width="3" height="5" />
<g transform="translate(9.801974 18.201806) rotate(293.080110) scale(5.265325 1.000000)"><ellipse fill="#aa723f" fill-opacity="0.501961" cx="0" cy="0" rx="1" ry="1" /></g>
<g transform="translate(19 18) rotate(298) scale(2 1)"><rect fill="#371300" fill-opacity="0.501961" x="-0.5" y="-0.5" width="1" height="1" /></g>
<polygon fill="#ddad7a" fill-opacity="0.501961" points="19,47 10,29 20,30" />
<g transform="translate(13 23) rotate(105) scale(1 5)"><rect fill="#aa7346" fill-opacity="0.501961" x="-0.5" y="-0.5" width="1" height="1" /></g>
<ellipse fill="#65593b" fill-opacity="0.501961" cx="5" cy="15" rx="1" ry="1" />
<ellipse fill="#823a01" fill-opacity="0.501961" cx="14" cy="15" rx="1" ry="1" />
<polygon fill="#fffefc" fill-opacity="0.501961" points="21.331449,6.996530,47.000000,-13.165937,43.081670,22.805131,45.767841,6.446980" />
<rect fill="#c35c30" fill-opacity="0.501961" x="12" y="2" width="3" height="2" />
<ellipse fill="#68501f" fill-opacity="0.501961" cx="7" cy="16" rx="1" ry="1" />
<g transform="translate(19.547929 21.509852) rotate(218.434604) scale(1.276348 4.849205)"><ellipse fill="#7d5739" fill-opacity="0.501961" cx="0" cy="0" rx="1" ry="1" /></g>
<g transform="translate(23 4) rotate(372) scale(1 7)"><rect fill="#ffefcc" fill-opacity="0.501961" x="-0.5" y="-0.5" width="1" height="1" /></g>
<polygon fill="#150b07" fill-opacity="0.501961" points="47,16 36,28 26,14" />
<path stroke="#5a2f15" stroke-opacity="0.501961" fill="none" d="M 7.624487 16.020120 Q 18.757988 6.363359, -6.632233 -16.000000" stroke-width="0.500000" />
<polygon fill="#e5c59d" fill-opacity="0.501961" points="6.140774,-5.307941,-4.628600,11.486595,6.159486,31.069693,-16.000000,9.284340" />
<g transform="translate(13 13) rotate(256) scale(1 4)"><rect fill="#ac6b41" fill-opacity="0.501961" x="-0.5" y="-0.5" width="1" height="1" /></g>
<ellipse fill="#d8ad73" fill-opacity="0.501961" cx="18" cy="3" rx="1" ry="1" />
<rect fill="#86450f" fill-opacity="0.501961" x="16" y="10" width="2" height="4" />
</g>
</svg>