<svg xmlns="http://www.w3.org/2000/svg" version="1.1" width="32" height="32">
<rect x="0" y="0" width="32" height="32" fill="#aa8666" />
<g transform="scale(1.000000) translate(0.5 0.5)">
<polygon fill="#360500" fill-opacity="0.501961" points="-2.704092,-9.425322,4.160039,-16.000000,13.802694,27.017522,47.000000,25.654487" />
<polygon fill="#ffffed" fill-opacity="0.501961" points="9.793092,8.146962,-0.547519,-16.000000,-10.719878,16.280995,4.567702,34.068098" />
<polygon fill="#ffffff" fill-opacity="0.501961" points="23.973441,9.968392,26.547649,16.203502,7.747125,-12.255444,47.000000,0.970386" />
<ellipse fill="#000000" fill-opacity="0.501961" cx="31" cy="16" rx="6" ry="9" />
<polygon fill="#ffffff" fill-opacity="0.501961" points="21.157595,7.604058,47.000000,10.064942,25.657816,-11.898158,22.309506,-16.000000" />
<g transform="translate(14 15) rotate(319) scale(15 10)"><rect fill="#743500" fill-opacity="0.501961" x="-0.5" y="-0.5" width="1" height="1" /></g>
<polygon fill="#fffad2" fill-opacity="0.501961" points="-16.000000,44.221069,-4.612222,47.000000,2.715041,-16.000000,9.068737,9.927405" />
<polygon fill="#f1bf88" fill-opacity="0.501961" points="11.600164,29.270671,-10.394349,3.040640,-0.888438,47.000000,32.948065,28.449761" />
<polygon fill="#a66f3e" fill-opacity="0.501961" points="26.547847,10.211474,6.876880,39.082821,10.447399,10.029208,24.619493,23.243211" />
<polygon fill="#371f10" fill-opacity="0.501961" points="21.744220,8.117660,22.790215,7.497681,13.463170,6.148182,21.145285,21.736732" />
</g>
</svg>