<svg xmlns="http://www.w3.org/2000/svg" version="1.1" width="500" height="500">
<rect x="0" y="0" width="500" height="500" fill="#a29b91" />
<g transform="scale(1.953125) translate(0.5 0.5)">
<g transform="translate(118.180928 145.233592) rotate(456.320547) scale(90.251717 74.282770)"><ellipse fill="#000000" fill-opacity="0.501961" cx="0" cy="0" rx="1" ry="1" /></g>
<g transform="translate(230.811723 82.866931) rotate(340.452014) scale(52.310526 255.000000)"><ellipse fill="#ffffff" fill-opacity="0.501961" cx="0" cy="0" rx="1" ry="1" /></g>
<g transform="translate(29.741905 47.868636) rotate(9.765658) scale(38.661505 253.576625)"><ellipse fill="#ffffff" fill-opacity="0.501961" cx="0" cy="0" rx="1" ry="1" /></g>
<ellipse fill="#060000" fill-opacity="0.501961" cx="124" cy="175" rx="90" ry="49" />
<g transform="translate(138.982907 255.000000) rotate(265.517128) scale(34.308666 133.335832)"><ellipse fill="#ffffff" fill-opacity="0.501961" cx="0" cy="0" rx="1" ry="1" /></g>
<ellipse fill="#000000" fill-opacity="0.501961" cx="197" cy="205" rx="37" ry="18" />
<ellipse fill="#572306" fill-opacity="0.501961" cx="114" cy="60" rx="43" ry="43" />
<ellipse fill="#ffffff" fill-opacity="0.501961" cx="242" cy="46" rx="76" ry="76" />
<g transform="translate(123.002507 1.052218) rotate(173.659276) scale(209.925874 16.841002)"><ellipse fill="#ffffff" fill-opacity="0.501961" cx="0" cy="0" rx="1" ry="1" /></g>
<polygon fill="#201005" fill-opacity="0.501961" points="83,30 44,242 143,210" />
<g transform="translate(20.396740 61.993443) rotate(113.503986) scale(103.746899 44.746126)"><ellipse fill="#fffff9" fill-opacity="0.501961" cx="0" cy="0" rx="1" ry="1" /></g>
<ellipse fill="#dee2e5" fill-opacity="0.501961" cx="140" cy="236" rx="54" ry="22" />
<polygon fill="#1e0e04" fill-opacity="0.501961" points="222,218 101,153 171,87" />
<g transform="translate(213.520749 122.302241) rotate(67.470776) scale(110.271764 23.093127)"><ellipse fill="#faffef" fill-opacity="0.501961" cx="0" cy="0" rx="1" ry="1" /></g>
<g transform="translate(221.831895 243.479557) rotate(251.495103) scale(24.494717 91.946826)"><ellipse fill="#ffffff" fill-opacity="0.501961" cx="0" cy="0" rx="1" ry="1" /></g>
<g transform="translate(30.847561 255.000000) rotate(49.050327) scale(49.125648 27.031758)"><ellipse fill="#f9fff8" fill-opacity="0.501961" cx="0" cy="0" rx="1" ry="1" /></g>
<g transform="translate(199.171108 15.528929) rotate(124.888246) scale(37.579442 156.925934)"><ellipse fill="#ffffff" fill-opacity="0.501961" cx="0" cy="0" rx="1" ry="1" /></g>
<g transform="translate(59.186657 201.965001) rotate(336.368912) scale(13.908766 39.619193)"><ellipse fill="#211304" fill-opacity="0.501961" cx="0" cy="0" rx="1" ry="1" /></g>
<g transform="translate(139.271888 64.311859) rotate(337.582669) scale(32.580451 36.967988)"><ellipse fill="#805b42" fill-opacity="0.501961" cx="0" cy="0" rx="1" ry="1" /></g>
<rect fill="#fcf4e6" fill-opacity="0.501961" x="0" y="0" width="55" height="141" />
<polygon fill="#39291d" fill-opacity="0.501961" points="55.891782,150.808558,174.974902,227.332626,71.767736,58.713003,58.950454,87.678795" />
<ellipse fill="#000000" fill-opacity="0.501961" cx="129" cy="66" rx="11" ry="11" />
<polygon fill="#d09f7d" fill-opacity="0.501961" points="132.698458,96.090755,154.300744,68.671953,126.507477,30.504325,139.842457,68.264642" />
<polygon fill="#2d2113" fill-opacity="0.501961" points="231.504178,211.913252,179.554987,225.222597,138.363086,176.990342,234.187605,199.110856" />
<ellipse fill="#ffffff" fill-opacity="0.501961" cx="113" cy="5" rx="46" ry="11" />
<g transform="translate(119 53) rotate(37) scale(9 39)"><rect fill="#ebad80" fill-opacity="0.501961" x="-0.5" y="-0.5" width="1" height="1" /></g>
<polygon fill="#e5e7d9" fill-opacity="0.501961" points="190.039297,157.404826,193.714943,150.189673,271.000000,127.911346,188.157194,108.285269" />
<g transform="translate(19.760286 200.681136) rotate(176.790785) scale(19.519819 121.272948)"><ellipse fill="#dfdccd" fill-opacity="0.501961" cx="0" cy="0" rx="1" ry="1" /></g>
<rect fill="#694a31" fill-opacity="0.501961" x="88" y="17" width="61" height="24" />
<g transform="translate(83.173752 113.718351) rotate(134.381324) scale(15.373354 27.805174)"><ellipse fill="#0c0704" fill-opacity="0.501961" cx="0" cy="0" rx="1" ry="1" /></g>
<polygon fill="#110c09" fill-opacity="0.501961" points="130.830017,156.958821,151.920348,95.691434,185.181445,102.395501,153.788601,183.358098" />
<rect fill="#f6f8f7" fill-opacity="0.501961" x="0" y="242" width="254" height="14" />
<polygon fill="#b5977c" fill-opacity="0.501961" points="85.630182,14.586288,100.661083,18.648330,77.185711,42.476685,68.458864,17.999067" />
<polygon fill="#322519" fill-opacity="0.501961" points="51,237 42,159 100,226" />
<polygon fill="#513d2b" fill-opacity="0.501961" points="194.677335,217.233256,170.306398,139.454631,179.324222,113.068467,213.892927,186.966671" />
<g transform="translate(142.307784 217.998737) rotate(93.177334) scale(4.461363 40.282793)"><ellipse fill="#6d6f70" fill-opacity="0.501961" cx="0" cy="0" rx="1" ry="1" /></g>
<polygon fill="#b28a6e" fill-opacity="0.501961" points="140,87 116,85 89,54" />
<polygon fill="#381d14" fill-opacity="0.501961" points="152.118863,49.319089,128.646393,22.140038,157.879179,77.373080,144.298687,104.390512" />
<polygon fill="#695244" fill-opacity="0.501961" points="75,86 124,129 72,50" />
<polygon fill="#33130a" fill-opacity="0.501961" points="113,25 98,65 127,29" />
<rect fill="#e6eade" fill-opacity="0.501961" x="215" y="96" width="41" height="98" />
<ellipse fill="#000000" fill-opacity="0.501961" cx="129" cy="69" rx="11" ry="10" />
<g transform="translate(39.961865 51.053422) rotate(146.807630) scale(37.696535 28.030422)"><ellipse fill="#fef9ef" fill-opacity="0.501961" cx="0" cy="0" rx="1" ry="1" /></g>
<ellipse fill="#fdfff5" fill-opacity="0.501961" cx="222" cy="32" rx="59" ry="59" />
<polygon fill="#2d1c13" fill-opacity="0.501961" points="84.819556,79.414170,99.377702,24.972316,89.326809,36.495393,83.158665,62.345980" />
<g transform="translate(102.075346 227.914034) rotate(164.822203) scale(37.442744 3.681720)"><ellipse fill="#999b95" fill-opacity="0.501961" cx="0" cy="0" rx="1" ry="1" /></g>
<polygon fill="#e5e0d0" fill-opacity="0.501961" points="34.213282,174.732889,57.396278,123.771614,-13.364804,76.991237,-16.000000,121.641186" />
<polygon fill="#fffeed" fill-opacity="0.501961" points="41.999195,5.881935,177.180802,-16.000000,144.055053,19.759637,101.212240,14.187468" />
<polygon fill="#291d1b" fill-opacity="0.501961" points="102.754574,66.715646,71.255689,102.586751,133.951785,95.501242,111.219218,80.762984" />
<g transform="translate(138 194) rotate(341) scale(19 50)"><rect fill="#4e4138" fill-opacity="0.501961" x="-0.5" y="-0.5" width="1" height="1" /></g>
<polygon fill="#000000" fill-opacity="0.501961" points="69.898191,160.047652,53.461448,139.791150,50.695845,174.306023,57.264920,181.196936" />
<ellipse fill="#b1b3b2" fill-opacity="0.501961" cx="167" cy="224" rx="65" ry="3" />
<polygon fill="#8f6a47" fill-opacity="0.501961" points="165.358177,78.773136,142.049556,34.788156,153.147466,22.380547,188.951498,117.214730" />
<polygon fill="#a66e4c" fill-opacity="0.501961" points="99.969456,65.568054,91.878017,66.855224,95.053384,34.856056,111.675823,35.226945" />
<polygon fill="#5e4335" fill-opacity="0.501961" points="155,78 137,133 92,107" />
<polygon fill="#17130f" fill-opacity="0.501961" points="173.297029,93.831205,142.890463,156.808256,80.498705,233.885139,55.852917,234.398486" />
<polygon fill="#2e1610" fill-opacity="0.501961" points="120.779787,25.552621,143.231571,37.791192,152.203130,52.137633,145.674805,52.552764" />
<g transform="translate(136.121034 51.534156) rotate(38.488965) scale(12.510634 5.085965)"><ellipse fill="#d1a17d" fill-opacity="0.501961" cx="0" cy="0" rx="1" ry="1" /></g>
<polygon fill="#cdb18f" fill-opacity="0.501961" points="160,10 137,19 163,33" />
<polygon fill="#cfc9bd" fill-opacity="0.501961" points="44.211686,206.326865,24.115271,151.245192,-16.000000,180.664677,48.900258,251.871403" />
<polygon fill="#e2e4da" fill-opacity="0.501961" points="251.917988,117.456536,197.274903,126.376861,213.190943,182.023321,271.000000,199.939837" />
<polygon fill="#96856c" fill-opacity="0.501961" points="80,12 72,21 74,39" />
<polygon fill="#67492b" fill-opacity="0.501961" points="52.363976,113.439197,57.614683,119.539600,45.210521,177.500648,81.138843,43.776891" />
<g transform="translate(80.870571 241.606380) rotate(83.993921) scale(7.032999 40.849842)"><ellipse fill="#cdcfcd" fill-opacity="0.501961" cx="0" cy="0" rx="1" ry="1" /></g>
<g transform="translate(119 48) rotate(38) scale(6 32)"><rect fill="#c8926a" fill-opacity="0.501961" x="-0.5" y="-0.5" width="1" height="1" /></g>
<polygon fill="#403028" fill-opacity="0.501961" points="126.083133,184.008400,75.727222,173.563476,126.167160,132.904394,96.511045,97.941308" />
<g transform="translate(215.090213 209.530706) rotate(63.612059) scale(8.899539 15.064515)"><ellipse fill="#23190b" fill-opacity="0.501961" cx="0" cy="0" rx="1" ry="1" /></g>
<polygon fill="#1a130d" fill-opacity="0.501961" points="162.679459,174.083197,177.102259,219.013374,183.845865,221.000197,198.245771,220.444494" />
<polygon fill="#dadad9" fill-opacity="0.501961" points="162.986809,250.269152,58.197873,247.910168,120.190532,230.592549,248.448276,221.129836" />
<g transform="translate(213.477617 255.000000) rotate(-22.785984) scale(133.321241 16.651735)"><ellipse fill="#fbfdf9" fill-opacity="0.501961" cx="0" cy="0" rx="1" ry="1" /></g>
<polygon fill="#2b1e13" fill-opacity="0.501961" points="209.983130,170.346524,197.076232,153.198338,191.547924,164.162393,195.147118,190.581814" />
<polygon fill="#58422c" fill-opacity="0.501961" points="64.164893,124.071130,44.267246,151.233722,59.024906,142.844279,84.236876,183.654398" />
<polygon fill="#e5e7d7" fill-opacity="0.501961" points="190.838067,140.339005,186.087932,65.718862,198.628739,151.375371,246.683141,186.557087" />
<polygon fill="#785c4a" fill-opacity="0.501961" points="104.878063,113.222469,153.199011,95.248455,144.130543,111.549944,119.522490,119.347307" />
<polygon fill="#bf9176" fill-opacity="0.501961" points="148.596790,78.751217,148.386257,51.416061,140.107948,72.690399,128.886275,88.604180" />
<polygon fill="#0d0b08" fill-opacity="0.501961" points="108.182722,119.982136,87.916763,104.164523,78.379063,101.679320,63.564782,139.286564" />
<polygon fill="#4b3a28" fill-opacity="0.501961" points="35.113730,175.090469,46.336300,209.534478,60.050326,225.510545,67.048400,192.101706" />
<ellipse fill="#e3ccbb" fill-opacity="0.501961" cx="78" cy="28" rx="4" ry="10" />
<polygon fill="#0a0e12" fill-opacity="0.501961" points="117.286457,65.042264,129.136475,85.178002,139.117023,65.949741,123.857198,51.098898" />
<polygon fill="#f6f9ef" fill-opacity="0.501961" points="270.489650,111.111429,171.558026,19.552994,171.455915,78.958137,173.266793,84.779203" />
<polygon fill="#a3a175" fill-opacity="0.501961" points="235.942907,214.644204,235.442554,199.112249,225.809532,217.649225,209.717043,223.318085" />
<polygon fill="#463325" fill-opacity="0.501961" points="188.380949,119.058132,170.255383,91.499352,95.727449,85.952403,184.374915,103.640381" />
<polygon fill="#332515" fill-opacity="0.501961" points="38.308332,169.439926,46.917836,150.739749,46.875074,143.797185,56.944259,232.500531" />
<polygon fill="#0d0904" fill-opacity="0.501961" points="129.541967,189.718968,94.386281,183.737362,103.782958,218.429431,128.068606,199.679376" />
<polygon fill="#5a4938" fill-opacity="0.501961" points="207,176 182,188 220,197" />
<polygon fill="#2e231a" fill-opacity="0.501961" points="169.273359,124.690792,194.820583,209.159387,189.191268,225.429915,152.278824,127.295821" />
<polygon fill="#564835" fill-opacity="0.501961" points="76.757810,215.539816,99.393272,224.271244,130.519258,208.222862,75.090763,224.692487" />
<polygon fill="#8a7c61" fill-opacity="0.501961" points="50.671480,240.043374,52.730072,233.965223,48.186094,212.617192,43.597507,234.349309" />
<polygon fill="#776450" fill-opacity="0.501961" points="167.215723,50.026744,158.930765,45.271181,164.477338,88.364794,170.493907,64.098438" />
<polygon fill="#f6f1e9" fill-opacity="0.501961" points="-16.000000,0.389868,90.767005,-16.000000,62.757425,43.835361,9.222101,119.319056" />
<g transform="translate(89 17) rotate(287) scale(1 20)"><rect fill="#69603d" fill-opacity="0.501961" x="-0.5" y="-0.5" width="1" height="1" /></g>
<polygon fill="#0d0b0a" fill-opacity="0.501961" points="116,144 123,172 175,104" />
<g transform="translate(115 41) rotate(127) scale(24 4)"><rect fill="#150907" fill-opacity="0.501961" x="-0.5" y="-0.5" width="1" height="1" /></g>
<polygon fill="#8f785b" fill-opacity="0.501961" points="37.918251,163.399249,58.198122,126.441504,60.107002,133.346237,52.200760,147.151368" />
<polygon fill="#7f674f" fill-opacity="0.501961" points="101.951005,32.675134,145.071092,24.465379,151.412615,12.714783,161.618126,13.151899" />
<polygon fill="#725944" fill-opacity="0.501961" points="68.447759,72.718472,80.446031,90.019924,94.503909,92.935570,69.167003,55.667567" />
<rect fill="#e7e4d6" fill-opacity="0.501961" x="0" y="98" width="53" height="43" />
<polygon fill="#493424" fill-opacity="0.501961" points="87.004703,54.735184,101.945340,32.173689,79.750321,43.171750,74.230148,59.355999" />
<polygon fill="#2c1f1a" fill-opacity="0.501961" points="81,57 107,101 138,103" />
<polygon fill="#59452a" fill-opacity="0.501961" points="220.845673,218.761253,213.836998,221.835446,227.572633,196.126880,232.926695,209.445205" />
</g>
</svg>