<svg xmlns="http://www.w3.org/2000/svg" version="1.1" width="500" height="500">
<rect x="0" y="0" width="500" height="500" fill="#a29b91" />
<g transform="scale(1.953125) translate(0.5 0.5)">
<polygon fill="#000000" fill-opacity="0.501961" points="93,-8 239,212 26,232" />
<g transform="translate(232.747439 85.362676) rotate(161.223296) scale(52.769734 234.605021)"><ellipse fill="#ffffff" fill-opacity="0.501961" cx="0" cy="0" rx="1" ry="1" /></g>
<g transform="translate(7 124) rotate(191) scale(93 255)"><rect fill="#ffffff" fill-opacity="0.501961" x="-0.5" y="-0.5" width="1" height="1" /></g>
<g transform="translate(167.856816 255.000000) rotate(266.111648) scale(29.972231 192.291633)"><ellipse fill="#ffffff" fill-opacity="0.501961" cx="0" cy="0" rx="1" ry="1" /></g>
<ellipse fill="#140000" fill-opacity="0.501961" cx="123" cy="145" rx="71" ry="71" />
<g transform="translate(138 0) rotate(191) scale(255 49)"><rect fill="#ffffff" fill-opacity="0.501961" x="-0.5" y="-0.5" width="1" height="1" /></g>
<g transform="translate(231.242177 69.198940) rotate(261.612631) scale(121.797135 54.781276)"><ellipse fill="#ffffff" fill-opacity="0.501961" cx="0" cy="0" rx="1" ry="1" /></g>
<ellipse fill="#744527" fill-opacity="0.501961" cx="127" cy="69" rx="42" ry="53" />
<g transform="translate(39.080000 35.376482) rotate(214.537527) scale(38.054998 223.379511)"><ellipse fill="#fffffd" fill-opacity="0.501961" cx="0" cy="0" rx="1" ry="1" /></g>
<g transform="translate(62.610281 195.172675) rotate(247.837336) scale(47.998189 18.700407)"><ellipse fill="#0e0000" fill-opacity="0.501961" cx="0" cy="0" rx="1" ry="1" /></g>
<ellipse fill="#150500" fill-opacity="0.501961" cx="200" cy="207" rx="35" ry="16" />
<polygon fill="#f5f8ec" fill-opacity="0.501961" points="47.818470,255.891572,46.252923,198.684873,34.140573,194.053683,-16.000000,256.046770" />
<g transform="translate(200.792300 255.000000) rotate(277.598663) scale(32.225360 125.389652)"><ellipse fill="#eff4f5" fill-opacity="0.501961" cx="0" cy="0" rx="1" ry="1" /></g>
<ellipse fill="#2a1c10" fill-opacity="0.501961" cx="85" cy="105" rx="30" ry="41" />
<g transform="translate(87.979816 209.266073) rotate(146.611398) scale(46.496099 17.329201)"><ellipse fill="#1a1204" fill-opacity="0.501961" cx="0" cy="0" rx="1" ry="1" /></g>
<polygon fill="#130f06" fill-opacity="0.501961" points="188.648855,111.545588,76.395746,234.117593,123.469619,146.968490,170.142363,76.280804" />
<ellipse fill="#fffff9" fill-opacity="0.501961" cx="145" cy="6" rx="255" ry="9" />
<g transform="translate(207.617723 48.615902) rotate(-29.377930) scale(39.710462 73.231777)"><ellipse fill="#fffff7" fill-opacity="0.501961" cx="0" cy="0" rx="1" ry="1" /></g>
<g transform="translate(114.990551 40.063932) rotate(179.686708) scale(41.983322 22.883363)"><ellipse fill="#815539" fill-opacity="0.501961" cx="0" cy="0" rx="1" ry="1" /></g>
<g transform="translate(241.964357 231.433817) rotate(228.350796) scale(23.216967 96.756684)"><ellipse fill="#fffffe" fill-opacity="0.501961" cx="0" cy="0" rx="1" ry="1" /></g>
<g transform="translate(128.819427 66.389363) rotate(136.397131) scale(10.997805 11.627072)"><ellipse fill="#000000" fill-opacity="0.501961" cx="0" cy="0" rx="1" ry="1" /></g>
<ellipse fill="#fff8e8" fill-opacity="0.501961" cx="33" cy="62" rx="23" ry="103" />
<polygon fill="#ab876d" fill-opacity="0.501961" points="151.850441,73.151446,97.899559,86.312125,115.207040,47.843652,125.841902,98.731797" />
<ellipse fill="#2b1f10" fill-opacity="0.501961" cx="178" cy="181" rx="33" ry="41" />
<polygon fill="#38270d" fill-opacity="0.501961" points="49,142 35,178 62,236" />
<polygon fill="#dba37c" fill-opacity="0.501961" points="130.000363,53.897078,150.819275,63.932223,127.602287,33.644089,98.559682,67.628007" />
<polygon fill="#31160b" fill-opacity="0.501961" points="151.489844,45.887140,147.740154,87.112980,163.793675,82.018277,124.158679,22.856478" />
<polygon fill="#e7ecd9" fill-opacity="0.501961" points="186.710172,86.303370,271.000000,101.139649,199.548308,146.065915,190.685252,156.808723" />
<polygon fill="#64554a" fill-opacity="0.501961" points="130,133 92,105 170,73" />
<polygon fill="#9fa1a1" fill-opacity="0.501961" points="114,213 58,242 178,218" />
<polygon fill="#e1dcc9" fill-opacity="0.501961" points="-16.000000,219.710241,-6.009266,100.219797,43.385497,94.154806,60.410726,133.041622" />
<rect fill="#e2e8d6" fill-opacity="0.501961" x="213" y="128" width="43" height="66" />
<polygon fill="#553a23" fill-opacity="0.501961" points="104.294327,23.176784,74.732586,42.847973,48.540545,162.769168,86.693061,66.740093" />
<polygon fill="#211513" fill-opacity="0.501961" points="101,99 78,51 137,103" />
<polygon fill="#27110b" fill-opacity="0.501961" points="130.828355,32.398893,118.166764,21.551201,102.160631,65.380597,120.361644,38.039278" />
<polygon fill="#cfa180" fill-opacity="0.501961" points="145.985525,86.696454,109.906413,80.864678,132.960911,89.140988,148.217210,51.312581" />
<polygon fill="#3e2e20" fill-opacity="0.501961" points="227,212 168,98 182,225" />
<rect fill="#f9faf8" fill-opacity="0.501961" x="30" y="246" width="226" height="10" />
<polygon fill="#b0926e" fill-opacity="0.501961" points="71,24 112,24 81,11" />
<g transform="translate(124.128144 145.196468) rotate(218.518011) scale(81.112419 14.117231)"><ellipse fill="#14100d" fill-opacity="0.501961" cx="0" cy="0" rx="1" ry="1" /></g>
<ellipse fill="#f9f4e9" fill-opacity="0.501961" cx="27" cy="31" rx="43" ry="91" />
<g transform="translate(100.530157 1.898566) rotate(93.613018) scale(14.101008 63.093279)"><ellipse fill="#fffef1" fill-opacity="0.501961" cx="0" cy="0" rx="1" ry="1" /></g>
<polygon fill="#b98160" fill-opacity="0.501961" points="111,27 95,69 93,47" />
<polygon fill="#0a0d05" fill-opacity="0.501961" points="67.488172,155.009968,81.673434,185.175595,37.181646,174.491725,58.723974,141.149007" />
<g transform="translate(127 68) rotate(306) scale(18 18)"><rect fill="#000000" fill-opacity="0.501961" x="-0.5" y="-0.5" width="1" height="1" /></g>
<polygon fill="#d3cdbe" fill-opacity="0.501961" points="-16.000000,183.574586,34.387856,238.127853,45.517916,221.922426,28.279959,145.137994" />
<polygon fill="#b7b9b8" fill-opacity="0.501961" points="87.519735,240.877057,167.969235,216.395967,197.091597,228.963606,241.087326,216.287472" />
<polygon fill="#d1b898" fill-opacity="0.501961" points="161.834364,12.579464,164.325848,29.553461,160.500148,42.314597,140.942358,14.122751" />
<polygon fill="#674f41" fill-opacity="0.501961" points="63.362490,70.838117,117.372899,130.624873,129.472219,139.262242,73.079170,59.017941" />
<rect fill="#fcfff7" fill-opacity="0.501961" x="172" y="27" width="84" height="57" />
</g>
</svg>